<?xml version="1.0" encoding="UTF-8"?>
<!DOCTYPE svg PUBLIC "-//W3C//DTD SVG 1.1//EN" "http://www.w3.org/Graphics/SVG/1.1/DTD/svg11.dtd">
<svg xmlns="http://www.w3.org/2000/svg" version="1.1" width="512px" height="512px" style="shape-rendering:geometricPrecision; text-rendering:geometricPrecision; image-rendering:optimizeQuality; fill-rule:evenodd; clip-rule:evenodd" xmlns:xlink="http://www.w3.org/1999/xlink">
<g><path style="opacity:0.973" fill="#000000" d="M 355.5,63.5 C 368.104,60.8555 377.27,65.1888 383,76.5C 388.265,104.088 393.098,131.755 397.5,159.5C 396.28,171.218 389.947,178.385 378.5,181C 354.852,185.108 331.186,189.108 307.5,193C 295.665,195.732 286.831,191.899 281,181.5C 276.603,168.681 280.103,158.848 291.5,152C 302.077,149.57 312.743,147.57 323.5,146C 284.26,125.325 243.927,122.991 202.5,139C 156.634,160.215 129.134,195.715 120,245.5C 113.885,303.759 134.718,349.592 182.5,383C 237.266,413.764 290.266,411.097 341.5,375C 371.017,351.148 388.517,320.315 394,282.5C 400.844,268.994 411.344,265.16 425.5,271C 434.014,276.526 437.514,284.359 436,294.5C 425.72,351.925 395.553,395.425 345.5,425C 299.889,449.179 252.223,454.179 202.5,440C 149.013,421.842 110.846,387.009 88,335.5C 62.9973,266.539 73.3306,203.539 119,146.5C 170.374,92.4928 232.54,73.9928 305.5,91C 318.943,95.2362 331.943,100.236 344.5,106C 342.903,98.9244 341.57,91.7577 340.5,84.5C 341.36,74.4166 346.36,67.4166 355.5,63.5 Z"/></g>
</svg>
