<?xml version="1.0" encoding="UTF-8"?>
<svg version="1.1" xmlns="http://www.w3.org/2000/svg" width="512" height="512">
<path d="M0 0 C0.99965365 -0.00367669 1.9993073 -0.00735338 3.02925348 -0.01114148 C6.38299222 -0.02216502 9.73669996 -0.02601994 13.0904541 -0.02983093 C15.49371438 -0.03609665 17.89697368 -0.04274355 20.30023193 -0.04974365 C27.51517861 -0.06895971 34.73012271 -0.07957081 41.94508719 -0.08847144 C45.34741033 -0.09286004 48.74973192 -0.09822541 52.15205383 -0.10346031 C63.47051419 -0.12047037 74.78897359 -0.13496249 86.10744476 -0.14220905 C89.04253643 -0.14411878 91.97762809 -0.14603913 94.91271973 -0.147995 C96.00690026 -0.14872061 96.00690026 -0.14872061 97.12318546 -0.14946087 C108.9284777 -0.15775355 120.73366836 -0.18307853 132.53891629 -0.21557567 C144.67434255 -0.2487078 156.8097173 -0.26666341 168.945189 -0.26985329 C175.7526012 -0.27201284 182.55986532 -0.28067955 189.36723328 -0.30631447 C195.77603582 -0.32964373 202.18457263 -0.33380867 208.59340668 -0.32355309 C210.93906795 -0.32305878 213.28474251 -0.32934794 215.63036346 -0.34310913 C230.84765158 -0.4273531 244.42996916 -0.31741782 257.14709473 9.14717102 C258.15771973 9.84842102 259.16834473 10.54967102 260.20959473 11.27217102 C267.43035294 17.54594455 272.51179761 27.54640962 273.42575538 37.04246593 C273.53564454 40.42824999 273.55174495 43.80243917 273.53477478 47.18998718 C273.54285309 49.13160923 273.54285309 49.13160923 273.55109459 51.11245596 C273.56549426 54.68525704 273.56132178 58.25782637 273.55392778 61.83063984 C273.54918474 65.69169059 273.56171599 69.55269202 273.57194519 73.41372681 C273.58911652 80.97013103 273.58997664 88.52645204 273.58473229 96.08287071 C273.58068613 102.22673525 273.58213944 108.37057525 273.58748055 114.51443863 C273.58822897 115.38983278 273.58897739 116.26522693 273.58974849 117.16714818 C273.59128001 118.94568034 273.59281836 120.72421249 273.59436346 122.50274463 C273.60808255 139.1710211 273.60265504 155.8392506 273.59117825 172.507526 C273.5812472 187.74440545 273.59418535 202.98116345 273.61811244 218.21802418 C273.64251637 233.87695669 273.65210808 249.53583266 273.64545971 265.19478381 C273.64197027 273.98059854 273.64418131 282.76631989 273.66171074 291.55212021 C273.67644893 299.03150036 273.67704711 306.51072137 273.65963983 313.99009846 C273.65114058 317.80317516 273.64895365 321.61596775 273.66429138 325.42902946 C273.68074019 329.56971131 273.66596147 333.70971077 273.64830017 337.85038757 C273.65790518 339.04563785 273.66751018 340.24088813 273.67740625 341.47235811 C273.5685634 353.89994631 269.55227837 364.1052892 261.18225098 373.30732727 C253.92635719 380.32704368 244.02986515 385.25700443 233.78408051 385.2813921 C232.47696145 385.28807886 232.47696145 385.28807886 231.14343596 385.29490072 C230.19053568 385.29471635 229.23763541 385.29453199 228.25585938 385.29434204 C227.24002038 385.29801873 226.22418138 385.30169542 225.17755938 385.30548352 C221.76310253 385.31652364 218.34867612 385.3203648 214.9342041 385.32417297 C212.49006046 385.33043746 210.04591777 385.33708425 207.60177612 385.34408569 C200.25886501 385.36331555 192.91596199 385.37391522 185.57303309 385.38281348 C182.11180326 385.38719995 178.65057495 385.39256591 175.18934631 385.39780235 C163.67705351 385.41481465 152.16476164 385.42930689 140.65245819 385.43655109 C137.66596984 385.43846088 134.67948149 385.44038122 131.69299316 385.44233704 C130.57962722 385.44306265 130.57962722 385.44306265 129.44376904 385.44380292 C117.43080966 385.452096 105.41795008 385.47742068 93.40503424 385.50991771 C81.06059221 385.54303815 68.7162008 385.56100444 56.37171412 385.56419533 C49.44527147 385.56635606 42.51897429 385.5750401 35.59257507 385.60065651 C29.07218738 385.62471606 22.5520136 385.62815797 16.03157425 385.61789513 C13.64356746 385.61740037 11.25554768 385.62370278 8.86758041 385.63745117 C-8.85702016 385.73375474 -22.21436938 384.8764463 -35.85290527 372.30342102 C-42.73235738 365.06813518 -46.96841312 355.73197207 -46.98712635 345.73499966 C-46.99158419 344.62958275 -46.99604204 343.52416585 -47.00063497 342.38525146 C-47.00045061 341.17097554 -47.00026624 339.95669961 -47.00007629 338.70562744 C-47.00375298 337.41548487 -47.00742967 336.12534229 -47.01121777 334.79610449 C-47.02122963 331.21207818 -47.02495326 327.62806862 -47.02760708 324.04403031 C-47.03151259 320.17949788 -47.04109081 316.31497869 -47.04981995 312.45045471 C-47.06957813 303.11569108 -47.07965008 293.78092637 -47.08854774 284.44614705 C-47.09293199 280.04886053 -47.09829847 275.6515752 -47.10353661 271.25428963 C-47.12054879 256.6340545 -47.13504234 242.01382012 -47.14228535 227.39357662 C-47.1441952 223.59993425 -47.14611554 219.80629188 -47.14807129 216.01264954 C-47.14855503 215.06977207 -47.14903877 214.12689461 -47.14953717 213.15544511 C-47.15783514 197.88592433 -47.18316817 182.61648196 -47.21565197 167.34699541 C-47.24873962 151.665632 -47.26673568 135.98430841 -47.26992959 120.30290991 C-47.27209318 111.50023987 -47.2808197 102.69768413 -47.30639076 93.89504814 C-47.32812113 86.3972639 -47.33613673 78.89962173 -47.32642398 71.40180957 C-47.32188592 67.57862987 -47.32373632 63.75574316 -47.34318542 59.93260384 C-47.36412371 55.78073093 -47.35381048 51.62950487 -47.34065247 47.4776001 C-47.35162171 46.27893922 -47.36259096 45.08027835 -47.37389261 43.84529442 C-47.27177872 30.4734426 -42.54323376 19.72534889 -32.97790527 10.29951477 C-23.29311027 2.41044218 -12.12365402 -0.00239375 0 0 Z M0.77209473 51.52217102 C0.07986816 52.33814758 0.07986816 52.33814758 -0.62634277 53.17060852 C-4.30154266 59.0930644 -4.13903409 65.0674159 -4.11360168 71.79936218 C-4.11742723 72.87281848 -4.12125278 73.94627477 -4.12519425 75.05226004 C-4.1355137 78.64953928 -4.13153404 82.2466586 -4.12756348 85.84394836 C-4.13191053 88.42295479 -4.13709366 91.00195993 -4.14305115 93.58096313 C-4.15579341 99.85939052 -4.15759242 106.13777512 -4.15525088 112.41621326 C-4.15346697 117.52041171 -4.15521895 122.62459719 -4.15947533 127.7287941 C-4.16007052 128.45559138 -4.1606657 129.18238866 -4.16127893 129.93121011 C-4.1624907 131.40776606 -4.16370483 132.884322 -4.16492131 134.36087795 C-4.17579511 148.20488154 -4.17363516 162.04886077 -4.16753646 175.89286573 C-4.16236796 188.55180255 -4.17362125 201.21066241 -4.19263468 213.86958401 C-4.21201699 226.87400258 -4.22026836 239.87838475 -4.21651143 252.88281786 C-4.21459991 260.18130248 -4.21708206 267.4797216 -4.23122597 274.77819443 C-4.24439248 281.64167868 -4.24187438 288.50500642 -4.22881508 295.36849022 C-4.22644644 297.88717513 -4.2291942 300.40587085 -4.2374382 302.92454338 C-4.24788269 306.36354584 -4.2398228 309.80202883 -4.22712708 313.24101257 C-4.23450136 314.23693653 -4.24187564 315.23286048 -4.24947339 316.25896394 C-4.19557338 323.20247082 -3.34808754 328.99061514 1.09240723 334.60810852 C1.8117041 335.23974915 2.53100098 335.87138977 3.27209473 336.52217102 C4.32783691 337.49283508 4.32783691 337.49283508 5.40490723 338.48310852 C11.43533257 342.1425974 18.54862364 342.44426824 25.45788574 342.40113831 C26.24326753 342.40425829 27.02864931 342.40737827 27.83783054 342.41059279 C30.44229941 342.41850405 33.0465308 342.41227625 35.65100098 342.40596008 C37.52932877 342.408673 39.4076555 342.41223562 41.28598022 342.4165802 C46.36856081 342.42567064 51.45105987 342.42217376 56.53364182 342.41582203 C61.86255863 342.4107447 67.19146864 342.41545829 72.52038574 342.41859436 C81.4679082 342.42222895 90.4153976 342.41744819 99.36291504 342.40791321 C109.69497992 342.39702965 120.02696585 342.40055558 130.35902882 342.41156602 C139.2433607 342.42065332 148.12766887 342.42191711 157.0120039 342.41668868 C162.31234722 342.41357692 167.61265347 342.41313779 172.91299438 342.41976166 C177.89692998 342.42555548 182.88076418 342.42150099 187.86468887 342.40997314 C189.68955441 342.40733744 191.51442854 342.40807295 193.33929062 342.41249847 C195.83840869 342.41799858 198.33720584 342.41106614 200.83630371 342.40113831 C201.55101113 342.40559975 202.26571856 342.41006119 203.00208378 342.41465783 C210.28913027 342.35886422 217.48435153 341.6136492 223.02209473 336.52217102 C224.10104004 335.57471008 224.10104004 335.57471008 225.20178223 334.60810852 C230.35178277 328.09304759 230.58291507 321.22212999 230.53477478 313.26119995 C230.54016032 312.18674037 230.54554586 311.1122808 230.55109459 310.00526184 C230.56536541 306.41646098 230.55827239 302.82802941 230.55114746 299.23921204 C230.55685145 296.66153162 230.56381581 294.08385372 230.57194519 291.50617981 C230.58911054 285.2383689 230.58997796 278.97065833 230.58473229 272.70283002 C230.58068527 267.60678701 230.58214045 262.51077358 230.58748055 257.41473198 C230.58822897 256.6884944 230.58897739 255.96225682 230.58974849 255.21401204 C230.59128002 253.73850488 230.59281837 252.26299774 230.59436346 250.7874906 C230.6080802 236.96155815 230.60265653 223.13568235 230.59117825 209.30975121 C230.58124583 196.67099108 230.5941881 184.03237736 230.61811244 171.39363981 C230.64251535 158.40383531 230.65210844 145.41409896 230.64545971 132.424272 C230.64197025 125.13638707 230.64418152 117.84861471 230.66171074 110.56074715 C230.67798984 103.70785845 230.67323256 96.85525369 230.65440559 90.00237274 C230.65071767 87.48894492 230.65383403 84.97549641 230.66429138 82.46208763 C230.67748819 79.0277779 230.66596399 75.59439575 230.64830017 72.16012573 C230.65790518 71.16847886 230.66751018 70.17683199 230.67740625 69.15513521 C230.60246515 62.06046079 229.36624073 55.61413625 224.39709944 50.262456 C218.72310485 45.04143734 213.56906383 43.84885995 205.93095398 43.87974548 C205.1074488 43.87521437 204.28394363 43.87068326 203.43548375 43.86601484 C200.67808272 43.85336208 197.92087899 43.85499178 195.16345215 43.85664368 C193.18556972 43.85065896 191.20768963 43.84385354 189.22981262 43.83628845 C183.85782957 43.81861508 178.48591022 43.81393249 173.1139009 43.81265688 C168.62837975 43.81075748 164.14287343 43.80339944 159.65735799 43.79631269 C149.07344423 43.7800259 138.4895645 43.77514399 127.90563965 43.77656555 C116.99077649 43.77776694 106.07611109 43.75666616 95.16129798 43.72507823 C85.78789184 43.69891867 76.41455031 43.68819813 67.04110795 43.68947637 C61.44389637 43.68998611 55.84686049 43.68429595 50.24968529 43.66312027 C44.98420673 43.64374353 39.71907159 43.64360972 34.45358086 43.65815353 C32.52347563 43.66024345 30.59334894 43.65552988 28.66328049 43.64343262 C26.02318047 43.62795975 23.3842616 43.63730143 20.7441864 43.6526947 C19.98492818 43.64240758 19.22566995 43.63212045 18.4434039 43.62152159 C11.61311562 43.70920199 5.18355058 46.09072538 0.77209473 51.52217102 Z " fill="#000000" transform="translate(174.8529052734375,105.85282897949219)"/>
<path d="M0 0 C1.01134858 -0.00367669 2.02269717 -0.00735338 3.06469268 -0.01114148 C6.45774032 -0.02216548 9.85075733 -0.02601996 13.24382019 -0.02983093 C15.67489723 -0.03609642 18.10597331 -0.0427433 20.53704834 -0.04974365 C27.83354123 -0.06895649 35.13003158 -0.07956825 42.42654207 -0.08847144 C45.86487466 -0.09285876 49.30320572 -0.09822429 52.74153709 -0.10346031 C64.17409985 -0.12046649 75.60666166 -0.1349612 87.03923512 -0.14220905 C90.00358901 -0.14411884 92.96794289 -0.1460392 95.93229675 -0.147995 C97.03741646 -0.14872061 97.03741646 -0.14872061 98.16486182 -0.14946087 C110.10286174 -0.15776339 122.04076153 -0.18310674 133.97871772 -0.21557567 C146.24181123 -0.24865652 158.50485384 -0.2666586 170.7679922 -0.26985329 C177.65069748 -0.27201708 184.5332566 -0.28074674 191.41591835 -0.30631447 C197.88951968 -0.33030772 204.36292937 -0.33384075 210.83656883 -0.32355309 C213.21174367 -0.3230569 215.58693132 -0.32940146 217.96206665 -0.34310913 C221.20639113 -0.36078497 224.44976682 -0.35374235 227.6940918 -0.34057617 C229.10145457 -0.35703004 229.10145457 -0.35703004 230.53724891 -0.37381631 C238.10618855 -0.29973594 243.40152126 1.5697487 248.85002136 6.89717102 C252.84673335 12.83514312 255.24538009 18.85884167 254.03752136 26.14717102 C252.11720922 32.85683309 248.82402875 37.27680972 243.03752136 41.14717102 C242.52236025 41.49641664 242.00719913 41.84566225 241.47642708 42.20549107 C237.7965417 43.62632266 234.12347087 43.42386007 230.23377991 43.40545654 C229.33495279 43.40913225 228.43612568 43.41280795 227.51006138 43.41659504 C224.49165083 43.42659236 221.47342387 43.42242071 218.45500183 43.41841125 C216.29332279 43.42279743 214.13164544 43.42809918 211.9699707 43.43424988 C207.31062155 43.44576147 202.65131795 43.45121017 197.9919548 43.45213127 C190.62096259 43.45407029 183.2500646 43.47211546 175.87910461 43.4928894 C157.56550176 43.54210646 139.2518732 43.57294261 120.93821716 43.5941925 C106.71610268 43.61072256 92.49406868 43.6335667 78.27200806 43.67721325 C70.94885451 43.69897214 63.62585388 43.70704898 56.30267024 43.70482051 C51.73844972 43.70649054 47.17432845 43.72055988 42.61014366 43.73803329 C40.49867285 43.74361986 38.38718135 43.74412999 36.27570915 43.73909569 C33.38463539 43.73292717 30.49418442 43.74523514 27.60316467 43.76190186 C26.77512199 43.75569004 25.94707931 43.74947822 25.09394443 43.74307817 C18.01219063 43.81704768 11.31287008 45.22468373 5.16252136 48.83467102 C-0.73333728 55.25075248 -1.5432257 61.63926689 -1.45454407 70.1023407 C-1.45922306 71.18426181 -1.46390204 72.26618293 -1.46872282 73.38088953 C-1.47962886 76.9951225 -1.46218333 80.60865489 -1.44490051 84.22285461 C-1.44708701 86.81861578 -1.4510847 89.41437595 -1.45675659 92.01013184 C-1.46641974 97.59490296 -1.46199252 103.17951782 -1.44833374 108.76427841 C-1.42893127 116.8496914 -1.43542851 124.93492956 -1.44890755 133.02034719 C-1.47047362 146.15410178 -1.47720622 159.28781504 -1.47175598 172.42158508 C-1.47143535 173.20695088 -1.47111472 173.99231668 -1.47078437 174.80148144 C-1.46807219 181.17226163 -1.46464129 187.5430414 -1.46117878 193.91382122 C-1.45818381 199.47988561 -1.45547545 205.04595004 -1.45320129 210.61201477 C-1.45287578 211.39581278 -1.45255027 212.17961079 -1.4522149 212.98716025 C-1.44726738 226.07077045 -1.45797128 239.15432334 -1.47977304 252.23791564 C-1.4924497 260.29973569 -1.49105688 268.36131898 -1.47132218 276.42312612 C-1.45719089 282.60416194 -1.46333663 288.78502487 -1.47681999 294.96605873 C-1.4789495 297.49680904 -1.47423717 300.02757594 -1.46211433 302.55829811 C-1.44647568 306.01851034 -1.45549191 309.47783783 -1.47041321 312.93803406 C-1.45992431 313.93454998 -1.44943542 314.93106591 -1.43862867 315.95777929 C-1.5082817 323.23329262 -2.69245884 330.5064855 -7.71250963 336.09557283 C-13.57769666 341.48850956 -19.11339484 342.6137992 -26.95466614 342.45967102 C-32.93000591 341.8388565 -36.53841764 339.53958622 -40.77497864 335.39717102 C-45.86972701 327.82783058 -46.39846499 321.30086732 -46.34342957 312.40821838 C-46.34810954 311.2419538 -46.35278951 310.07568922 -46.3576113 308.87408328 C-46.36747397 305.65435842 -46.36396903 302.43497561 -46.35465264 299.21525955 C-46.34784597 295.73591079 -46.35835158 292.25660716 -46.36659241 288.77726746 C-46.37991641 281.96701763 -46.37705748 275.15686712 -46.36835448 268.34661344 C-46.36157087 262.80818782 -46.36066416 257.26978997 -46.36392593 251.73136139 C-46.36438563 250.94215667 -46.36484533 250.15295195 -46.36531896 249.33983193 C-46.36627818 247.73637097 -46.36725082 246.13291002 -46.36823674 244.52944908 C-46.3767873 229.50022268 -46.36696289 214.47105121 -46.35083564 199.44183382 C-46.33744318 186.56298638 -46.33975234 173.68422011 -46.35359192 160.80537415 C-46.36967162 145.835001 -46.3759524 130.86467603 -46.36675513 115.89429545 C-46.36579953 114.29561155 -46.36485642 112.69692763 -46.36392593 111.09824371 C-46.36346311 110.31175662 -46.36300028 109.52526953 -46.36252343 108.7149495 C-46.35993992 103.18910236 -46.36429093 97.66328593 -46.37136459 92.13744354 C-46.37980685 85.39443074 -46.37744291 78.6515226 -46.36152236 71.90852168 C-46.3536745 68.47206876 -46.35048779 65.0357899 -46.36046982 61.59933853 C-46.3687054 57.8640732 -46.3583385 54.12929293 -46.34342957 50.39405823 C-46.35012173 49.32165807 -46.3568139 48.24925791 -46.36370885 47.14436078 C-46.25853199 33.49571984 -42.63584475 22.19376897 -33.46247864 11.95967102 C-23.97154388 2.92767895 -12.67226693 -0.00247244 0 0 Z " fill="#000000" transform="translate(87.96247863769531,20.852828979492188)"/>
</svg>
