<?xml version="1.0" encoding="UTF-8"?>
<svg version="1.1" xmlns="http://www.w3.org/2000/svg" width="833" height="818">
<path d="M0 0 C2.8758036 -0.00217864 5.75121722 -0.02039379 8.62695312 -0.03930664 C26.04726819 -0.09263945 43.31138317 1.2112641 60.52539062 3.93530273 C61.59845459 4.10449219 62.67151855 4.27368164 63.77709961 4.44799805 C132.57357982 15.72627376 194.8677558 47.08770217 247.11083984 92.75024414 C248.30840613 93.78270155 249.52020501 94.79873372 250.74072266 95.80395508 C251.38251465 96.33585449 252.02430664 96.86775391 252.68554688 97.41577148 C253.27601807 97.89812256 253.86648926 98.38047363 254.47485352 98.87744141 C255.77539062 100.18530273 255.77539062 100.18530273 255.77539062 102.18530273 C256.76539063 102.51530273 257.75539063 102.84530273 258.77539062 103.18530273 C258.77539062 103.84530273 258.77539062 104.50530273 258.77539062 105.18530273 C259.76539063 105.51530273 260.75539063 105.84530273 261.77539062 106.18530273 C261.77539062 106.84530273 261.77539062 107.50530273 261.77539062 108.18530273 C262.76539063 108.51530273 263.75539063 108.84530273 264.77539062 109.18530273 C264.77539062 109.84530273 264.77539062 110.50530273 264.77539062 111.18530273 C265.76539063 111.51530273 266.75539063 111.84530273 267.77539062 112.18530273 C269.28320312 113.68139648 269.28320312 113.68139648 270.90039062 115.62280273 C274.43314555 119.79446015 278.07886208 123.84715601 281.75976562 127.88842773 C286.77539062 133.60390739 286.77539062 133.60390739 286.77539062 136.18530273 C287.43539062 136.18530273 288.09539063 136.18530273 288.77539062 136.18530273 C290.11303711 137.65966797 290.11303711 137.65966797 291.64648438 139.74389648 C292.21520264 140.5134668 292.7839209 141.28303711 293.36987305 142.07592773 C293.97806885 142.91639648 294.58626465 143.75686523 295.21289062 144.62280273 C295.84106689 145.48518555 296.46924316 146.34756836 297.11645508 147.23608398 C310.33099774 165.528243 322.05574291 184.85785632 331.82373047 205.20825195 C332.7913993 207.21856037 333.77689099 209.21947328 334.76367188 211.22045898 C355.4996357 253.70500294 367.66023565 302.69415704 368.01367188 350.00952148 C368.02346573 351.10203217 368.03325958 352.19454285 368.04335022 353.32015991 C368.21605232 377.58679384 368.00257886 401.23447527 363.77539062 425.18530273 C363.56640137 426.4025 363.35741211 427.61969727 363.14208984 428.8737793 C358.86112429 453.13579082 352.19962539 477.39335907 342.77539062 500.18530273 C342.45634766 500.97098633 342.13730469 501.75666992 341.80859375 502.56616211 C336.52681717 515.51979293 330.54627851 527.94690893 323.77539062 540.18530273 C323.41026367 540.84675293 323.04513672 541.50820313 322.66894531 542.18969727 C310.54248742 564.04083537 296.14045239 584.31967512 279.77539062 603.18530273 C279.2368042 603.80783936 278.69821777 604.43037598 278.14331055 605.07177734 C273.96242503 609.88070547 269.68743493 614.59112549 265.33789062 619.24780273 C264.72107422 619.91618164 264.10425781 620.58456055 263.46875 621.27319336 C259.71074096 625.29711772 255.80721499 629.00676678 251.6262207 632.58837891 C249.12100561 634.74991589 246.73891119 637.03414951 244.33789062 639.31030273 C236.93329195 646.18093327 228.90017168 652.1995801 220.77539062 658.18530273 C220.09879395 658.68674805 219.42219727 659.18819336 218.72509766 659.70483398 C202.50409811 671.66254627 185.28709276 682.6194585 167.00195312 691.14428711 C164.43837576 692.34287197 161.88916692 693.57013559 159.33789062 694.79467773 C127.6026049 709.85397888 93.18788012 720.95189368 58.31445312 725.8293457 C56.56028411 726.07526671 54.80772477 726.33285092 53.05664062 726.59985352 C19.87173697 731.54525162 -16.11860446 731.63845997 -49.22460938 726.18530273 C-50.44100098 725.98662598 -51.65739258 725.78794922 -52.91064453 725.58325195 C-75.24710391 721.8158264 -98.33204494 717.13883622 -119.22460938 708.18530273 C-118.73443292 701.14088548 -117.78452426 694.47470085 -116.09960938 687.62280273 C-113.99441633 678.73386308 -112.09913438 669.81280023 -110.28973389 660.8600769 C-107.83387676 648.72502309 -105.26360127 636.62338246 -102.47460938 624.56030273 C-102.05236084 622.71275391 -102.05236084 622.71275391 -101.62158203 620.82788086 C-97.87347464 604.834168 -97.87347464 604.834168 -95.22460938 602.18530273 C-93.2423512 602.28027956 -91.26315414 602.43945838 -89.28710938 602.62280273 C-86.59980549 602.82035881 -83.91342011 603.01128784 -81.22460938 603.18530273 C-80.55187988 603.22896973 -79.87915039 603.27263672 -79.18603516 603.31762695 C-31.68452316 605.9522026 17.98559943 579.58594365 52.77539062 549.18530273 C53.93748047 548.19143555 53.93748047 548.19143555 55.12304688 547.17749023 C58.9442733 543.89373882 62.53478915 540.4627022 66.06054688 536.86499023 C67.73381112 535.22602981 69.46849765 533.73677913 71.27539062 532.24780273 C75.22193925 528.90105996 78.47644886 525.1634384 81.77539062 521.18530273 C82.2265625 520.64647461 82.67773438 520.10764648 83.14257812 519.55249023 C98.23018289 501.49426899 111.02730778 482.57832298 122.77539062 462.18530273 C123.31583008 461.25169922 123.85626953 460.3180957 124.41308594 459.35620117 C132.98150294 444.4487672 140.05552862 429.00101372 146.77539062 413.18530273 C147.14083984 412.33887207 147.50628906 411.49244141 147.8828125 410.62036133 C158.36594495 386.24656752 166.30131706 360.43500823 173.07568359 334.8137207 C173.71779732 332.40164938 174.38379752 329.99799808 175.06054688 327.59545898 C182.66615109 300.25524958 187.40093374 272.1903003 191.77539062 244.18530273 C191.94022949 243.13922852 192.10506836 242.0931543 192.27490234 241.01538086 C194.64759776 225.80237313 196.25078312 210.50345813 197.77539062 195.18530273 C197.9363623 193.59274658 197.9363623 193.59274658 198.10058594 191.96801758 C199.32752507 179.66941345 200.07404122 167.54611906 199.77539062 155.18530273 C199.19144531 155.91233398 199.19144531 155.91233398 198.59570312 156.65405273 C186.1006488 171.62508556 168.06190972 181.02342717 150.67822266 189.28100586 C148.8287543 190.15994232 146.98737695 191.05419785 145.14648438 191.95092773 C131.01518766 198.76423151 116.38333505 204.4308247 101.5402832 209.48803711 C97.57282922 210.84212288 93.62430066 212.23481804 89.69775391 213.70336914 C78.40838223 217.92450457 67.04306576 221.82328833 55.57470703 225.5300293 C52.74807829 226.44413529 49.92375288 227.36511307 47.09960938 228.28686523 C30.7178196 233.61418171 30.7178196 233.61418171 22.89501953 235.58325195 C20.56157393 236.24603436 18.38278639 237.11433436 16.15039062 238.06030273 C11.97395158 239.7918388 7.74307706 241.13307697 3.40039062 242.37280273 C-4.7136634 244.69352973 -12.75243046 247.22880656 -20.78710938 249.81030273 C-21.98835449 250.19468506 -23.18959961 250.57906738 -24.42724609 250.97509766 C-31.51036606 253.25448774 -31.51036606 253.25448774 -38.50976562 255.77514648 C-42.66927805 257.35409915 -46.8709449 258.74342786 -51.09960938 260.12280273 C-56.71288023 261.97112344 -62.22425116 263.91998572 -67.68164062 266.19311523 C-70.94584934 267.46670819 -74.26861318 268.54045758 -77.59960938 269.62280273 C-84.29991672 271.81793201 -90.76690722 274.35862172 -97.22460938 277.18530273 C-98.66593859 277.80136841 -100.10735078 278.41723999 -101.54882812 279.03295898 C-110.50506202 282.89600699 -118.9024411 287.08265941 -127.22460938 292.18530273 C-128.34867188 292.81436523 -129.47273437 293.44342773 -130.63085938 294.09155273 C-134.26371966 296.15788696 -137.65301465 298.48714263 -141.03710938 300.93530273 C-141.64458008 301.37285889 -142.25205078 301.81041504 -142.87792969 302.26123047 C-161.99732842 316.12657807 -178.04047766 332.04894319 -192.09960938 350.99780273 C-192.79642822 351.93100342 -192.79642822 351.93100342 -193.50732422 352.88305664 C-196.1587059 356.50263404 -198.33238896 360.093846 -200.22460938 364.18530273 C-200.88460937 364.18530273 -201.54460937 364.18530273 -202.22460938 364.18530273 C-202.31226563 364.7022168 -202.39992187 365.21913086 -202.49023438 365.75170898 C-203.51031943 369.13209723 -205.25839216 372.05840851 -206.97460938 375.12280273 C-210.70739079 381.94486868 -213.56697154 388.87440009 -216.22460938 396.18530273 C-216.90666755 397.83339869 -217.59387295 399.47937739 -218.28710938 401.12280273 C-229.77832908 429.75818086 -234.77495151 464.29601565 -222.83056641 493.43652344 C-213.3681932 515.32214994 -197.44635685 536.84324833 -178.22460938 551.18530273 C-177.23460937 551.51530273 -176.24460938 551.84530273 -175.22460938 552.18530273 C-175.10085937 550.90397461 -174.97710937 549.62264648 -174.84960938 548.30249023 C-172.01738406 523.07798354 -162.67205153 498.16275009 -152.22460938 475.18530273 C-151.86367187 474.38656738 -151.50273437 473.58783203 -151.13085938 472.76489258 C-141.92204978 452.51270586 -130.81433077 433.80839844 -117.22460938 416.18530273 C-116.39926266 415.09110056 -115.57506985 413.99602717 -114.75195312 412.90014648 C-109.56018085 406.01868467 -104.07416142 399.52059497 -98.22460938 393.18530273 C-96.74447382 391.51949646 -95.26531471 389.85282209 -93.78710938 388.18530273 C-86.72218983 380.34496519 -79.26932032 373.01197646 -71.22460938 366.18530273 C-70.32742188 365.39897461 -69.43023437 364.61264648 -68.50585938 363.80249023 C-39.29605067 338.36597068 -5.48392796 318.92723353 29.77539062 303.18530273 C31.28830688 302.50818237 31.28830688 302.50818237 32.83178711 301.81738281 C41.27801406 298.11085905 49.81349153 294.98652334 58.58789062 292.12280273 C59.9098038 291.68742116 61.23166198 291.25187256 62.5534668 290.81616211 C71.90546019 287.74515187 81.27516827 284.76505615 90.77539062 282.18530273 C92.18111328 281.80245117 92.18111328 281.80245117 93.61523438 281.41186523 C97.62537531 280.41095486 100.78750908 279.89888933 104.77539062 281.18530273 C104.53515625 283.04663086 104.53515625 283.04663086 103.77539062 285.18530273 C101.96875 286.40209961 101.96875 286.40209961 99.61914062 287.40405273 C98.33136719 287.96672852 98.33136719 287.96672852 97.01757812 288.54077148 C96.11265625 288.9184668 95.20773437 289.29616211 94.27539062 289.68530273 C92.96441406 290.2518457 92.96441406 290.2518457 91.62695312 290.82983398 C89.87614438 291.58574696 88.12222372 292.33449389 86.36523438 293.07592773 C83.10178468 294.47384585 79.88275956 295.96239838 76.66796875 297.46850586 C74.77539063 298.18530273 74.77539063 298.18530273 71.77539062 298.18530273 C71.77539062 298.84530273 71.77539062 299.50530273 71.77539062 300.18530273 C70.32132812 300.89493164 70.32132812 300.89493164 68.83789062 301.61889648 C51.52674344 310.131682 35.15806103 319.65278271 19.33398438 330.70874023 C16.73461047 332.52452832 14.12034018 334.31683781 11.49804688 336.09936523 C10.77576904 336.59146484 10.05349121 337.08356445 9.30932617 337.59057617 C7.89707495 338.55198659 6.48323515 339.51106867 5.06762695 340.4675293 C4.09925903 341.12833496 4.09925903 341.12833496 3.11132812 341.80249023 C2.53946777 342.19033691 1.96760742 342.57818359 1.37841797 342.9777832 C-0.31948865 344.25677287 -1.74976085 345.65736688 -3.22460938 347.18530273 C-8.26127072 351.77994761 -13.52066139 356.04310062 -18.92773438 360.19311523 C-21.38394299 362.32350026 -23.21471582 364.63675771 -25.22460938 367.18530273 C-26.52723405 368.38615986 -27.8600699 369.55529348 -29.22460938 370.68530273 C-32.29120198 373.3032642 -34.78438615 375.96072204 -37.22460938 379.18530273 C-39.34960938 381.49780273 -39.34960938 381.49780273 -41.22460938 383.18530273 C-41.88460938 383.18530273 -42.54460937 383.18530273 -43.22460938 383.18530273 C-43.45019531 383.71897461 -43.67578125 384.25264648 -43.90820312 384.80249023 C-45.65463872 387.96369413 -47.94323802 390.58517933 -50.28710938 393.31030273 C-53.58871484 397.01637542 -53.58871484 397.01637542 -56.22460938 401.18530273 C-56.88460938 401.18530273 -57.54460937 401.18530273 -58.22460938 401.18530273 C-58.49015625 401.92651367 -58.75570313 402.66772461 -59.02929688 403.43139648 C-60.20885433 406.14900436 -61.4692329 407.97823206 -63.34960938 410.24780273 C-68.54129404 416.73468755 -73.69068535 423.63310977 -77.22460938 431.18530273 C-77.88460938 431.18530273 -78.54460937 431.18530273 -79.22460938 431.18530273 C-79.39766602 432.04176392 -79.39766602 432.04176392 -79.57421875 432.91552734 C-80.28767853 435.40540558 -81.30471596 437.27876836 -82.63085938 439.50170898 C-83.12320068 440.33911621 -83.61554199 441.17652344 -84.12280273 442.03930664 C-84.65139893 442.93311035 -85.17999512 443.82691406 -85.72460938 444.74780273 C-91.12196174 454.02412434 -95.90115333 463.45610161 -100.33300781 473.22583008 C-101.07694639 474.86078382 -101.83986962 476.48708218 -102.60742188 478.11108398 C-110.06870552 493.99719453 -115.87640841 510.51422792 -121.25878906 527.19799805 C-122.19739342 530.10112316 -123.15100328 532.99894285 -124.10742188 535.89624023 C-127.70823769 546.88866108 -130.82610758 557.90682185 -133.49853516 569.15893555 C-134.335826 572.64886741 -135.19958326 576.13179162 -136.06445312 579.61499023 C-139.76267097 594.56181212 -143.21604727 609.53494286 -146.35144043 624.61013794 C-148.2001147 633.49465052 -150.1687376 642.323791 -152.4453125 651.10913086 C-154.34803058 658.49875691 -155.95358728 665.94615724 -157.52587891 673.41235352 C-158.58414249 678.40357999 -159.74904428 683.30044113 -161.22460938 688.18530273 C-167.83242507 687.80081549 -172.40685505 685.21094337 -178.03710938 681.87280273 C-179.41709106 681.06746094 -179.41709106 681.06746094 -180.82495117 680.24584961 C-200.55868468 668.6036091 -218.94490286 655.2121765 -236.22460938 640.18530273 C-236.93746094 639.57299805 -237.6503125 638.96069336 -238.38476562 638.32983398 C-240.34789379 636.63275604 -242.28852469 634.91316699 -244.22460938 633.18530273 C-245.55878906 632.00774414 -245.55878906 632.00774414 -246.91992188 630.80639648 C-257.54309798 621.32909898 -267.18257383 610.98441335 -276.06835938 599.86108398 C-277.51738112 598.062932 -278.99744301 596.28939799 -280.50585938 594.54077148 C-292.5567181 580.55316761 -302.68722862 565.05251529 -312.04882812 549.16967773 C-313.08914485 547.41392724 -314.15502441 545.6733783 -315.22460938 543.93530273 C-344.15891436 495.71146109 -361.18388926 435.48986277 -361.42773438 379.36889648 C-361.43474869 378.2821312 -361.441763 377.19536591 -361.44898987 376.07566833 C-361.46638486 372.5913371 -361.47284139 369.10717579 -361.47460938 365.62280273 C-361.47528412 364.43245422 -361.47595886 363.24210571 -361.47665405 362.01568604 C-361.46119331 344.87159895 -361.10058471 328.12407429 -358.22460938 311.18530273 C-358.04768555 310.08798828 -357.87076172 308.99067383 -357.68847656 307.86010742 C-351.85329383 272.11331442 -341.30696259 237.65561207 -325.22460938 205.18530273 C-324.74330566 204.19046875 -324.26200195 203.19563477 -323.76611328 202.1706543 C-310.04666186 173.90489948 -291.97710055 147.75650755 -271.22460938 124.18530273 C-270.4228125 123.27135742 -269.62101562 122.35741211 -268.79492188 121.41577148 C-257.31848223 108.63437842 -245.29625735 95.63741274 -231.69335938 85.09936523 C-228.94892763 82.97156214 -226.3504031 80.70762422 -223.72460938 78.43530273 C-216.36203603 72.2870759 -208.44358186 66.98038242 -200.46240234 61.67358398 C-198.52397369 60.38439992 -196.59421586 59.08343985 -194.66601562 57.77905273 C-151.908626 29.44522431 -101.81671512 10.94016547 -51.16503906 3.47338867 C-49.29988374 3.19647834 -47.43791452 2.89836031 -45.57617188 2.59936523 C-30.44134572 0.25261691 -15.28279563 -0.00128817 0 0 Z " fill="#45A257" transform="translate(406.224609375,46.814697265625)"/>
<path d="M0 0 C0 3 0 3 -2.203125 5.54370117 C-3.21108431 6.55118515 -4.22730922 7.55044193 -5.25 8.54296875 C-5.78270508 9.07142899 -6.31541016 9.59988922 -6.86425781 10.1443634 C-8.56927029 11.83256735 -10.28441127 13.51005145 -12 15.1875 C-13.15693178 16.32938778 -14.31319065 17.47195776 -15.46875 18.61523438 C-18.30474911 21.41813541 -21.14987676 24.2114652 -24 27 C-24.66 26.34 -25.32 25.68 -26 25 C-23.337658 22.30818725 -20.66933333 19.62237853 -18 16.9375 C-17.25621094 16.18533203 -16.51242187 15.43316406 -15.74609375 14.65820312 C-11.47680342 10.37035066 -7.1239089 6.25524872 -2.53125 2.31469727 C-1.66377645 1.56990373 -0.80846391 0.80846391 0 0 Z " fill="#2D8D3A" transform="translate(336,412)"/>
</svg>
