<?xml version="1.0" encoding="UTF-8"?>
<svg version="1.1" xmlns="http://www.w3.org/2000/svg" width="512" height="512">
<path d="M0 0 C13.21144491 9.89746293 18.46948195 23.80116316 24.40606689 38.69485474 C25.67794751 41.88542488 26.96117476 45.07139573 28.24368286 48.25770569 C28.93080286 49.96495892 29.6173784 51.67243137 30.30343628 53.38011169 C34.1654741 62.98743212 38.08517163 72.57106838 42.00891113 82.15332031 C43.17040005 84.98993941 44.33088716 87.82696664 45.49121094 90.6640625 C46.21805197 92.4401234 46.94493859 94.21616564 47.671875 95.9921875 C48.01512817 96.83153839 48.35838135 97.67088928 48.71203613 98.53567505 C50.19203708 102.14935457 51.67862923 105.75940422 53.20214844 109.35498047 C53.89099121 110.98137451 53.89099121 110.98137451 54.59375 112.640625 C54.98224121 113.54675537 55.37073242 114.45288574 55.77099609 115.38647461 C56.5703125 117.48828125 56.5703125 117.48828125 56.5703125 119.48828125 C57.61948349 119.53731094 58.66865448 119.58634064 59.74961853 119.63685608 C71.91693193 120.23986213 84.01435897 121.29429894 96.13671875 122.484375 C98.15207852 122.68010159 100.16745463 122.87565993 102.18284607 123.07106018 C106.36897598 123.47785766 110.55481595 123.88749509 114.74047852 124.29907227 C120.0856468 124.82430996 125.43160268 125.34100845 130.77781773 125.8554678 C134.92445377 126.25566509 139.07057468 126.66101075 143.21656609 127.06782722 C145.18783718 127.26051466 147.15927769 127.45147761 149.1308918 127.64062309 C151.88411907 127.90539727 154.6365574 128.17729016 157.38891602 128.45092773 C158.18854767 128.52632278 158.98817932 128.60171783 159.81204224 128.67939758 C173.26125141 130.04174638 183.05991153 133.50599016 192.5703125 143.48828125 C198.67981817 151.40691238 201.12691288 160.26278369 200.359375 170.2265625 C197.93756538 186.37957571 187.80384733 195.27645338 175.546875 205.08203125 C172.20777697 207.78135459 168.94766808 210.56066721 165.6953125 213.36328125 C159.55056902 218.65139837 153.37344977 223.89940555 147.17919922 229.12939453 C145.01728087 230.95537898 142.8570767 232.7833845 140.69702148 234.61157227 C139.61464996 235.52760004 138.53213097 236.44345361 137.44946289 237.35913086 C134.71394518 239.67284913 131.98030039 241.9887202 129.25 244.30859375 C123.08922419 249.5392701 116.8909615 254.71341891 110.6171875 259.80859375 C108.70015683 261.32575104 108.70015683 261.32575104 107.5703125 262.48828125 C108.07462691 269.004069 109.26540143 275.24107849 110.70336914 281.60693359 C110.91809372 282.57568924 111.1328183 283.54444489 111.35404968 284.54255676 C111.81750867 286.63161776 112.2830071 288.72022717 112.75035286 290.80842209 C113.49094453 294.12107674 114.22444686 297.43522853 114.95591736 300.74990845 C117.03537904 310.16927516 119.12377178 319.58662586 121.22583008 329.00097656 C122.51418521 334.77339351 123.79120259 340.54822369 125.06124687 346.32469559 C125.54535659 348.51594153 126.03373196 350.70624984 126.52656746 352.89554977 C127.21724277 355.96506432 127.89343012 359.03745682 128.56665039 362.11083984 C128.77079559 363.001577 128.9749408 363.89231415 129.18527222 364.81004333 C131.65833497 376.28146101 131.34862694 386.44431404 125.25 396.7109375 C119.35790966 405.06611479 110.89093629 412.59084698 100.5703125 414.48828125 C97.84642398 414.66100183 95.17042039 414.76479831 92.4453125 414.80078125 C91.73632812 414.82978516 91.02734375 414.85878906 90.296875 414.88867188 C80.53354572 415.00281152 72.69145184 410.27981 64.7578125 405.05078125 C63.09309496 403.97686092 61.42770571 402.90398125 59.76171875 401.83203125 C58.90852051 401.2803125 58.05532227 400.72859375 57.17626953 400.16015625 C52.88155431 397.40484336 48.53869795 394.72846602 44.1953125 392.05078125 C42.42706007 390.95837099 40.65883102 389.86592288 38.890625 388.7734375 C38.01180664 388.23090332 37.13298828 387.68836914 36.22753906 387.12939453 C32.7125584 384.95852904 29.19991858 382.78389443 25.6875 380.60888672 C23.95068674 379.53342343 22.21370906 378.45822562 20.4765625 377.38330078 C15.92473074 374.56659858 11.37499294 371.74658408 6.828125 368.921875 C5.88517578 368.33664062 4.94222656 367.75140625 3.97070312 367.1484375 C2.17450627 366.03355669 0.37889401 364.91773325 -1.41601562 363.80078125 C-3.02500811 362.80262174 -4.64356587 361.81966361 -6.27270508 360.85473633 C-8.4296875 359.48828125 -8.4296875 359.48828125 -10.1237793 357.98706055 C-11.89163934 356.37641595 -11.89163934 356.37641595 -15.4296875 355.48828125 C-20.15641861 357.14255502 -24.26996518 359.77911493 -28.4921875 362.42578125 C-29.75097613 363.1845651 -31.01149935 363.94047828 -32.27368164 364.69360352 C-34.81875138 366.21793674 -37.35338387 367.75758443 -39.87988281 369.3125 C-43.81503884 371.73219056 -47.79362614 374.07439598 -51.77978516 376.40893555 C-54.41371864 377.95305979 -57.03961754 379.51012226 -59.6640625 381.0703125 C-69.51802087 386.92044833 -79.41122932 392.70413196 -89.30432129 398.48776245 C-92.97085348 400.63195526 -96.63147081 402.78591199 -100.2890625 404.9453125 C-101.98165529 405.93899892 -103.67435465 406.93250384 -105.3671875 407.92578125 C-106.11121826 408.36809082 -106.85524902 408.81040039 -107.62182617 409.26611328 C-117.12478366 414.81812802 -126.63667683 416.21352638 -137.53515625 413.80078125 C-148.9275392 409.94440338 -156.66320401 403.56873995 -162.75 393.25 C-169.77844732 378.62788058 -163.95659604 361.37291028 -160.1796875 346.6640625 C-159.63980192 344.50217287 -159.10174848 342.33982496 -158.56542969 340.17704773 C-157.16106454 334.5312481 -155.73552838 328.89103009 -154.30419922 323.25201416 C-152.00830217 314.19132889 -149.74534351 305.12236175 -147.48205566 296.05348778 C-146.69081919 292.89598454 -145.89059753 289.74086669 -145.08886719 286.58601379 C-144.60334195 284.65675146 -144.11798138 282.72744768 -143.6328125 280.7980957 C-143.40839478 279.92483643 -143.18397705 279.05157715 -142.95275879 278.15185547 C-141.44077871 272.39200556 -141.44077871 272.39200556 -141.4296875 266.48828125 C-143.55901547 263.93364156 -143.55901547 263.93364156 -146.4296875 261.61328125 C-147.18463501 260.95984741 -147.18463501 260.95984741 -147.95483398 260.29321289 C-149.43659091 259.01339578 -150.93291267 257.75050172 -152.4296875 256.48828125 C-153.78620868 255.30347161 -155.14069097 254.11631926 -156.4921875 252.92578125 C-157.12253906 252.37792969 -157.75289063 251.83007812 -158.40234375 251.265625 C-160.76457923 249.19468638 -163.09764603 247.09315277 -165.4296875 244.98828125 C-168.41031471 242.29844694 -171.40213983 239.62517761 -174.4296875 236.98828125 C-178.32481561 233.59575032 -182.15751513 230.13633924 -185.9921875 226.67578125 C-188.12386231 224.76273976 -190.2698786 222.86940513 -192.4296875 220.98828125 C-196.32481561 217.59575032 -200.15751513 214.13633924 -203.9921875 210.67578125 C-206.12386231 208.76273976 -208.2698786 206.86940513 -210.4296875 204.98828125 C-211.76352351 203.82218932 -213.09682075 202.65548094 -214.4296875 201.48828125 C-215.26886719 200.75480469 -216.10804688 200.02132812 -216.97265625 199.265625 C-227.39637626 190.04286534 -234.16088663 181.77693105 -235.4296875 167.48828125 C-235.56498195 156.7248558 -232.46501795 147.41002091 -224.9296875 139.59765625 C-217.5155573 133.3419839 -209.66803757 130.2342799 -200.15551758 129.39111328 C-198.98931365 129.27500041 -198.98931365 129.27500041 -197.79955006 129.15654182 C-195.34407079 128.91811942 -192.88764484 128.69953476 -190.4296875 128.48828125 C-189.65370083 128.42122734 -188.87771416 128.35417343 -188.07821274 128.28508759 C-182.45224457 127.80882972 -176.82256684 127.3899689 -171.19140625 126.98046875 C-169.40980397 126.84896139 -167.62821344 126.71729491 -165.84663391 126.58547974 C-162.14848814 126.3126894 -158.45016856 126.04242673 -154.75170898 125.77392578 C-150.04711092 125.43208507 -145.34309644 125.08282639 -140.63919353 124.73156548 C-136.97341476 124.45882935 -133.30732005 124.190543 -129.64112282 123.92349625 C-127.90732878 123.79659354 -126.17363979 123.66824582 -124.4400692 123.53832626 C-114.74581515 122.81408015 -105.15715123 122.29437292 -95.4296875 122.48828125 C-95.25944061 121.94568161 -95.08919373 121.40308197 -94.91378784 120.84403992 C-93.07780926 115.1484333 -90.88820296 109.71365013 -88.4375 104.2578125 C-87.86398552 102.96694984 -87.86398552 102.96694984 -87.27888489 101.65000916 C-86.46299528 99.81458968 -85.645289 97.97997683 -84.82589722 96.14611816 C-82.66852084 91.31728264 -80.5247206 86.48241905 -78.37890625 81.6484375 C-77.73874321 80.20783463 -77.73874321 80.20783463 -77.08564758 78.73812866 C-73.73619562 71.19570384 -70.42768517 63.63641272 -67.15478516 56.06048584 C-66.37311395 54.25199282 -65.58891013 52.44459513 -64.8046875 50.63720703 C-62.38754928 45.05889548 -59.99848879 39.47120626 -57.66015625 33.859375 C-57.21873291 32.81233398 -56.77730957 31.76529297 -56.32250977 30.68652344 C-55.51603455 28.77135835 -54.71976846 26.85183797 -53.93725586 24.92675781 C-48.3745251 11.7868401 -39.45827052 3.06594603 -26.4296875 -2.51171875 C-17.27465416 -5.77028994 -8.32153018 -5.17754369 0 0 Z M-26.4296875 29.48828125 C-28.02026037 32.14721747 -29.20421562 34.93787558 -30.3984375 37.79296875 C-30.93380127 39.02649582 -30.93380127 39.02649582 -31.47998047 40.28494263 C-32.64278988 42.97236565 -33.78617268 45.6675989 -34.9296875 48.36328125 C-35.7389341 50.2427479 -36.54949334 52.12164987 -37.36132812 54 C-38.98386354 57.75961028 -40.59905434 61.52222617 -42.20703125 65.28808594 C-44.0805768 69.6756969 -45.96746881 74.05725856 -47.8671875 78.43359375 C-48.38031494 79.61598633 -48.89344238 80.79837891 -49.42211914 82.01660156 C-49.9196167 83.16225586 -50.41711426 84.30791016 -50.9296875 85.48828125 C-51.94947633 87.83973206 -52.96899961 90.19129805 -53.98828125 92.54296875 C-54.25015732 93.1467334 -54.51203339 93.75049805 -54.78184509 94.37255859 C-56.41609103 98.14223007 -58.0443169 101.9144393 -59.66845703 105.68847656 C-61.69592428 110.39840316 -63.73345316 115.10388323 -65.77636719 119.80712891 C-66.58105549 121.66437535 -67.38237792 123.52308408 -68.18017578 125.38330078 C-69.29752308 127.98730806 -70.42669175 130.58588654 -71.55859375 133.18359375 C-71.89037125 133.96445343 -72.22214874 134.74531311 -72.5639801 135.54983521 C-74.75402212 140.53239797 -76.64016004 144.30680462 -81.89053345 146.5305481 C-86.64364988 147.81679253 -91.28707484 148.10359812 -96.18920898 148.41796875 C-97.26148743 148.49307678 -98.33376587 148.56818481 -99.4385376 148.64556885 C-101.761072 148.80724583 -104.08385977 148.96531489 -106.40685844 149.12017822 C-110.0853454 149.36558718 -113.76304322 149.62072994 -117.44068909 149.87841797 C-125.24893218 150.42376393 -133.05799087 150.95678909 -140.8671875 151.48828125 C-149.91431885 152.10432943 -158.96104873 152.72543374 -168.00697517 153.35894775 C-171.626529 153.60986692 -175.24661474 153.85174048 -178.86680603 154.09326172 C-181.09149163 154.24793509 -183.31614841 154.40302366 -185.54077148 154.55859375 C-186.54411026 154.62306702 -187.54744904 154.68754028 -188.58119202 154.75396729 C-197.35304385 155.24504787 -197.35304385 155.24504787 -205.20703125 158.78515625 C-207.16059215 161.2320406 -208.38929608 163.33344748 -209.1796875 166.36328125 C-206.59170427 177.14654472 -192.47841308 185.73938888 -184.45703125 192.7109375 C-182.09479577 194.78187612 -179.76172897 196.88340973 -177.4296875 198.98828125 C-174.44906029 201.67811556 -171.45723517 204.35138489 -168.4296875 206.98828125 C-164.53455939 210.38081218 -160.70185987 213.84022326 -156.8671875 217.30078125 C-154.09471442 219.78889812 -151.29123901 222.23895589 -148.48046875 224.68359375 C-146.16879953 226.71786266 -143.8943732 228.79050435 -141.6171875 230.86328125 C-138.13283888 234.0114676 -134.57936955 237.03353161 -130.9296875 239.98828125 C-113.98056041 253.80759794 -113.98056041 253.80759794 -112.4296875 260.48828125 C-112.60591608 267.18653092 -114.30291153 273.67065748 -115.94580078 280.12939453 C-116.20114594 281.1533432 -116.45649109 282.17729187 -116.71957397 283.23226929 C-117.27094359 285.44101716 -117.82485991 287.64913056 -118.38107681 289.85666275 C-119.26108654 293.35263674 -120.13258892 296.85063104 -121.00167847 300.34933472 C-123.47252655 310.29152261 -125.95540094 320.23066551 -128.45166016 330.16650391 C-129.98096166 336.25608079 -131.49774471 342.34866342 -133.00677109 348.44329453 C-133.5832883 350.76090634 -134.16462456 353.07732498 -134.75088882 355.39249039 C-135.56980051 358.62751268 -136.3727853 361.86611067 -137.17236328 365.10595703 C-137.41750671 366.05782898 -137.66265015 367.00970093 -137.91522217 367.99041748 C-139.18480936 373.21412077 -139.81656552 377.24520059 -138.4296875 382.48828125 C-135.15645928 385.67758054 -132.62999602 387.29651598 -128.12890625 388.015625 C-121.37627945 387.9049262 -115.80226505 383.49245459 -110.2421875 380.05078125 C-108.95815388 379.27418247 -107.67297384 378.49947637 -106.38671875 377.7265625 C-103.71767361 376.12072807 -101.05372562 374.50689488 -98.39306641 372.88720703 C-92.87339698 369.53546804 -87.29559836 366.28412863 -81.7171936 363.03146362 C-78.72006846 361.28235177 -75.72751306 359.52545396 -72.734375 357.76953125 C-68.36841898 355.2096913 -64.001345 352.65176957 -59.63317871 350.09570312 C-57.70151367 348.96523249 -55.77017823 347.83420028 -53.83886719 346.703125 C-51.34875027 345.24494986 -48.85707763 343.78948645 -46.36425781 342.3359375 C-40.70095405 339.02889881 -35.08449721 335.6703206 -29.5456543 332.15844727 C-18.53316593 325.25240818 -18.53316593 325.25240818 -12.4296875 326.48828125 C-3.1450697 329.71151262 5.22732389 335.94035999 13.44921875 341.21484375 C18.58129786 344.50637848 23.75701243 347.72380094 28.9453125 350.92578125 C29.82074707 351.46678467 30.69618164 352.00778809 31.59814453 352.56518555 C34.25513259 354.20686809 36.91271344 355.84758805 39.5703125 357.48828125 C43.00847321 359.61221395 46.44594354 361.73725894 49.8828125 363.86328125 C50.72956543 364.38704346 51.57631836 364.91080566 52.44873047 365.45043945 C60.53706051 370.45854577 68.60345967 375.501603 76.6652832 380.55224609 C77.62394287 381.15246582 78.58260254 381.75268555 79.5703125 382.37109375 C80.4159375 382.90105957 81.2615625 383.43102539 82.1328125 383.97705078 C82.9371875 384.47575684 83.7415625 384.97446289 84.5703125 385.48828125 C85.43785156 386.03726074 86.30539062 386.58624023 87.19921875 387.15185547 C90.32167584 388.91177414 92.03228928 389.06591769 95.5703125 388.48828125 C99.27092681 385.92631749 101.96577124 383.72164677 103.5703125 379.48828125 C103.73353916 372.19784359 101.97382279 364.8899543 100.36132812 357.81958008 C100.13845627 356.81645279 99.91558441 355.8133255 99.68595886 354.77980042 C98.95578589 351.50019692 98.2161049 348.2228146 97.4765625 344.9453125 C96.96401424 342.64865122 96.45218514 340.35182933 95.94104004 338.05485535 C94.59917089 332.03153743 93.24973363 326.0099438 91.89801025 319.98883057 C89.7332006 310.34288829 87.57716811 300.69499443 85.42643738 291.04590416 C84.67597269 287.68613346 83.92056296 284.32750199 83.16467285 280.96894836 C82.70270315 278.90227157 82.24090218 276.83555704 81.77929688 274.76879883 C81.46444588 273.37914917 81.46444588 273.37914917 81.14323425 271.96142578 C77.681588 256.39073026 77.681588 256.39073026 80.1796875 251.39453125 C85.51893099 244.07556826 93.6311205 238.54850323 100.62890625 232.89453125 C103.94419227 230.18242476 107.19900927 227.40722345 110.4453125 224.61328125 C116.59041416 219.32557716 122.76717124 214.07716033 128.96142578 208.84716797 C131.66603539 206.56281939 134.36803377 204.27538617 137.0703125 201.98828125 C138.15363349 201.07159999 139.23696682 200.15493332 140.3203125 199.23828125 C140.8565625 198.78453125 141.3928125 198.33078125 141.9453125 197.86328125 C146.8203125 193.73828125 146.8203125 193.73828125 148.44775391 192.36157227 C149.52341929 191.45115731 150.5986202 190.54019328 151.67333984 189.62866211 C154.49529335 187.23647164 157.32635195 184.85631357 160.171875 182.4921875 C160.76162109 181.99976563 161.35136719 181.50734375 161.95898438 181 C163.08492551 180.06023811 164.21367277 179.12382415 165.34570312 178.19140625 C168.93288734 175.18923691 171.88455802 172.54554468 173.3828125 168.05078125 C173.6563718 164.3121375 172.64243761 161.79237799 170.27224445 158.90935516 C164.80701224 154.34601236 154.09910402 154.91533156 147.26489258 154.28320312 C146.18227646 154.17883438 145.09966034 154.07446564 143.98423767 153.9669342 C141.6513814 153.74264615 139.31830186 153.52067041 136.98502541 153.30079651 C133.28945797 152.95227953 129.59458671 152.59707466 125.89982605 152.2401123 C116.7296018 151.35537168 107.5584477 150.48042162 98.38702393 149.60821533 C90.62058423 148.86949931 82.85468009 148.12552324 75.08945274 147.37416077 C71.45445654 147.02454351 67.81879379 146.68254323 64.18305969 146.34069824 C61.9511837 146.1253228 59.71934468 145.90956372 57.48754883 145.69335938 C56.48114349 145.60083389 55.47473816 145.50830841 54.43783569 145.41297913 C41.24040293 144.1121113 41.24040293 144.1121113 37.32275391 140.30297852 C35.35048699 137.13520681 33.87829148 133.91786732 32.53125 130.453125 C32.25295853 129.75866272 31.97466705 129.06420044 31.6879425 128.34869385 C31.08380753 126.83832009 30.48357158 125.32638216 29.8868103 123.81307983 C28.92668756 121.37855512 27.95660063 118.94822042 26.98364258 116.51879883 C25.94311519 113.92059235 24.90315087 111.32217797 23.86610413 108.72257996 C17.88604723 93.7375692 11.7327667 78.82225902 5.60420227 63.89753723 C3.75953883 59.40204027 1.9256302 54.90262664 0.1134491 50.39393616 C-0.99830163 47.63096289 -2.12162338 44.87268958 -3.2421875 42.11328125 C-3.79096558 40.72532349 -3.79096558 40.72532349 -4.35083008 39.30932617 C-6.54116509 33.95557543 -8.98382089 28.21121455 -14.4296875 25.48828125 C-20.04294352 24.95872879 -22.43425046 25.52151589 -26.4296875 29.48828125 Z " fill="#000000" transform="translate(273.4296875,50.51171875)"/>
</svg>
