<?xml version="1.0" encoding="UTF-8"?>
<svg version="1.1" xmlns="http://www.w3.org/2000/svg" width="512" height="512">
<path d="M0 0 C7.10492963 3.71935914 10.17355117 11.23374627 13.2109375 18.1953125 C13.63966156 19.15857452 14.06838562 20.12183655 14.51010132 21.11428833 C19.03814659 31.33690069 23.42037817 41.62346651 27.7779541 51.91964722 C30.24986716 57.76006898 32.73113834 63.59651711 35.2109375 69.43359375 C35.72454834 70.64324295 36.23815918 71.85289215 36.76733398 73.09919739 C42.48623404 86.56489885 48.24964205 100.01150019 54.0165329 113.45670319 C54.80857641 115.30335215 55.60050467 117.15005049 56.39239502 118.99676514 C59.07604754 125.25500409 61.76024064 131.51301068 64.44537354 137.77061462 C65.81847663 140.97176484 67.19051548 144.17337021 68.5625 147.375 C85.46151109 148.96155363 102.371346 150.11269455 119.31337404 151.12735748 C122.79872194 151.33707893 126.28379773 151.55122239 129.76889038 151.76513672 C141.56478399 152.48840175 153.36108354 153.20488705 165.15771484 153.91601562 C171.71826752 154.31154791 178.27854039 154.71144275 184.83854902 155.11590004 C188.28748412 155.32833049 191.73652192 155.53852043 195.18593216 155.74310303 C199.02486414 155.97169718 202.86327582 156.20772311 206.70166016 156.4453125 C208.37269302 156.5420224 208.37269302 156.5420224 210.07748413 156.64068604 C233.87742237 158.14655399 233.87742237 158.14655399 240.5625 165.375 C244.82077762 171.13986122 246.03467125 176.29243122 245.5625 183.375 C243.32827968 193.60321963 235.41788604 199.72365851 227.5859375 205.95703125 C224.35859569 208.53807076 221.20684756 211.19426003 218.0625 213.875 C213.21365099 217.99687767 208.31087002 222.04493138 203.375 226.0625 C199.6815609 229.0993277 196.03951514 232.19460955 192.39624023 235.29125977 C189.00295891 238.1704532 185.57982214 241.00704237 182.125 243.8125 C177.87857618 247.26774151 173.70953706 250.80197834 169.5625 254.375 C164.54930512 258.69428956 159.4771268 262.92597119 154.33984375 267.09765625 C151.21853699 269.65703999 148.1379772 272.26091204 145.0625 274.875 C140.15483431 279.04611672 135.19961767 283.15181844 130.1953125 287.20703125 C128.07488226 288.95308286 125.98153172 290.72110605 123.89794922 292.51049805 C123.27201874 293.04781052 122.64608826 293.58512299 122.00119019 294.13871765 C121.52642242 294.54669083 121.05165466 294.954664 120.5625 295.375 C123.72879506 312.10020508 127.04591568 328.78872882 130.50528717 345.45568657 C131.28959954 349.23666927 132.07084756 353.01827404 132.85125732 356.80006409 C135.06547838 367.52953523 137.28199827 378.25852289 139.5078125 388.9855957 C140.88066675 395.60209257 142.24708755 402.21989454 143.6099472 408.83845711 C144.12602387 411.33901561 144.64430164 413.83912095 145.1648941 416.33874321 C145.89060046 419.82422565 146.60871852 423.31119435 147.32519531 426.79858398 C147.64464615 428.31904579 147.64464615 428.31904579 147.97055054 429.870224 C150.36280768 441.60654834 152.17061966 451.19175464 145.4375 461.6875 C140.38155263 466.41371167 135.16950315 468.56066647 128.25 469 C117.59597034 468.44260698 107.99477313 460.96876275 99.25 455.375 C97.14397477 454.04309115 95.03718437 452.71239154 92.9296875 451.3828125 C91.34172363 450.37976074 91.34172363 450.37976074 89.72167969 449.35644531 C84.80281971 446.27132417 79.84111754 443.25825615 74.875 440.25 C66.78284143 435.34179881 58.71824692 430.39224233 50.67578125 425.40307617 C42.66818746 420.43636911 34.65160459 415.48423748 26.61328125 410.56738281 C21.42152905 407.38797347 16.24874154 404.1891166 11.1264801 400.89918518 C8.74738214 399.3729462 6.35995198 397.86002853 3.97177124 396.34805298 C2.28123381 395.26991924 0.60298708 394.17259064 -1.07495117 393.07495117 C-2.0982251 392.42888916 -3.12149902 391.78282715 -4.17578125 391.1171875 C-5.07337158 390.5382373 -5.97096191 389.95928711 -6.89575195 389.36279297 C-9.41133174 388.09807392 -9.41133174 388.09807392 -12.00854492 389.0559082 C-12.8101001 389.4912085 -13.61165527 389.92650879 -14.4375 390.375 C-15.46230469 390.93054565 -15.46230469 390.93054565 -16.5078125 391.49731445 C-17.18585938 391.9068335 -17.86390625 392.31635254 -18.5625 392.73828125 C-19.33996582 393.20588867 -20.11743164 393.67349609 -20.91845703 394.15527344 C-21.74974121 394.6609082 -22.58102539 395.16654297 -23.4375 395.6875 C-24.75983643 396.48655762 -24.75983643 396.48655762 -26.10888672 397.30175781 C-34.05294926 402.11403999 -41.95021659 407.00150656 -49.83984375 411.90234375 C-55.92448873 415.68100039 -62.02395864 419.43539139 -68.125 423.1875 C-69.76202881 424.19441895 -69.76202881 424.19441895 -71.43212891 425.22167969 C-73.65701431 426.59008699 -75.88194944 427.95841344 -78.10693359 429.32666016 C-82.4726443 432.01162664 -86.83765497 434.6977293 -91.20239258 437.38427734 C-93.35161172 438.70679888 -95.50118619 440.02874317 -97.65112305 441.35009766 C-102.68098848 444.44229361 -107.70756122 447.53944108 -112.72192383 450.65670776 C-115.06277269 452.11146192 -117.40558136 453.56304334 -119.74853516 455.0144043 C-121.3798375 456.02671724 -123.00833193 457.04355071 -124.63671875 458.06054688 C-144.01967863 470.06011295 -144.01967863 470.06011295 -155.4375 468.375 C-161.32511785 466.63304365 -164.99678758 463.4869156 -168.4375 458.375 C-172.03387463 451.2547583 -171.90738851 444.83800784 -170.34327698 437.05537415 C-170.10071167 435.8314798 -169.85814636 434.60758545 -169.60823059 433.34660339 C-169.33603393 432.00879374 -169.06370596 430.67101081 -168.79125977 429.33325195 C-168.50659607 427.91027127 -168.22252354 426.48717221 -167.93899536 425.06396484 C-167.17021971 421.21382475 -166.39314385 417.36540261 -165.61448789 413.5172503 C-164.8001132 409.48552548 -163.99325251 405.45229731 -163.18553162 401.41923523 C-161.82886253 394.65058693 -160.46732157 387.88293438 -159.10229492 381.1159668 C-157.17734323 371.57319448 -155.26116609 362.028676 -153.34675515 352.48378432 C-151.85912707 345.06828432 -150.36928317 337.65322921 -148.87890625 330.23828125 C-148.7191636 329.44347359 -148.55942095 328.64866593 -148.39483762 327.82977319 C-147.47663564 323.2621095 -146.55728453 318.69467967 -145.63624954 314.12758636 C-145.35737805 312.74413816 -145.07881824 311.36062708 -144.80059242 309.97704887 C-144.42085606 308.08907788 -144.03981485 306.20136948 -143.65870667 304.31367493 C-143.44577249 303.25717397 -143.23283831 302.20067301 -143.01345158 301.11215687 C-142.53738401 298.84968959 -142.01939879 296.6121317 -141.4375 294.375 C-142.22447266 294.05208984 -142.22447266 294.05208984 -143.02734375 293.72265625 C-146.38287106 291.84638895 -149.12833313 289.34006735 -152 286.8125 C-153.26085107 285.71644897 -154.52257833 284.62140511 -155.78515625 283.52734375 C-156.40664551 282.98835449 -157.02813477 282.44936523 -157.66845703 281.89404297 C-160.05630319 279.84364567 -162.49164785 277.85566779 -164.9375 275.875 C-169.1654248 272.44291987 -173.3127789 268.92948829 -177.4375 265.375 C-182.45064773 261.05565728 -187.52287515 256.82402723 -192.66015625 252.65234375 C-195.78146367 250.09295946 -198.8620003 247.48906209 -201.9375 244.875 C-205.90653543 241.50216411 -209.89767021 238.16323355 -213.9375 234.875 C-218.5420358 231.12712202 -223.07769191 227.30516556 -227.6015625 223.4609375 C-231.0180954 220.56255177 -234.46254838 217.703449 -237.9375 214.875 C-243.14715702 210.63404934 -248.27576473 206.30278392 -253.39453125 201.953125 C-254.94293172 200.64125811 -256.49282862 199.33049941 -258.07421875 198.05859375 C-263.44005526 193.72666233 -265.93422238 190.13782331 -266.85546875 183.25 C-267.16756897 175.96203811 -266.39775564 170.85465414 -261.4375 165.375 C-255.21035658 159.0174452 -249.18183567 158.04472748 -240.671875 157.515625 C-239.65448746 157.44589478 -238.63709991 157.37616455 -237.58888245 157.30432129 C-234.12226602 157.06940421 -230.65496337 156.84704206 -227.1875 156.625 C-224.7059439 156.46040372 -222.22441815 156.29534935 -219.74291992 156.12988281 C-211.54355491 155.5879163 -203.34302508 155.06513894 -195.14217377 154.54620361 C-192.27845834 154.36493279 -189.41477127 154.18321821 -186.55108643 154.00146484 C-172.38906924 153.10320658 -158.22651252 152.21375834 -144.06349182 151.33146667 C-141.85155871 151.19363912 -139.63963449 151.05566877 -137.42771912 150.91755676 C-131.04579803 150.51911177 -124.66374035 150.12300572 -118.28144646 149.73057556 C-116.31265817 149.60923771 -114.34391341 149.48719112 -112.37521553 149.36439514 C-109.65562099 149.19496629 -106.93587184 149.02827694 -104.21606445 148.86230469 C-103.42521328 148.81247562 -102.63436211 148.76264656 -101.81954575 148.71130753 C-97.34897953 148.44196523 -92.91624579 148.32878129 -88.4375 148.375 C-88.03853516 147.11913086 -87.63957031 145.86326172 -87.22851562 144.56933594 C-85.37078989 139.00510315 -83.10097751 133.65037575 -80.78125 128.265625 C-80.32643753 127.20163483 -79.87162506 126.13764465 -79.4030304 125.04141235 C-78.42587833 122.75642022 -77.44713683 120.47210726 -76.46694946 118.18841553 C-74.12562713 112.7334433 -71.79357267 107.27451117 -69.46082497 101.81586838 C-68.66565816 99.95553174 -67.87005342 98.09538284 -67.0743866 96.23526001 C-62.49454522 85.52543725 -57.9576589 74.79777569 -53.43560791 64.06344604 C-51.14144384 58.61939767 -48.84186706 53.17763308 -46.54333496 47.73542786 C-44.57118971 43.06468985 -42.60382525 38.39198791 -40.64109802 33.71728516 C-39.28690771 30.49675936 -37.9241048 27.27989776 -36.5625 24.0625 C-35.87571167 22.41773682 -35.87571167 22.41773682 -35.17504883 20.73974609 C-31.32067444 11.67071556 -28.00591065 4.61125095 -19.4375 -0.625 C-13.2986364 -2.67128787 -5.93733235 -2.73071965 0 0 Z M-11.4375 22.375 C-11.72657227 23.06795166 -12.01564453 23.76090332 -12.31347656 24.47485352 C-19.49614441 41.67859097 -26.75439867 58.84917842 -34.0625 76 C-40.96397174 92.19721363 -47.84240633 108.40387384 -54.6875 124.625 C-55.07351379 125.53969055 -55.45952759 126.4543811 -55.85723877 127.39678955 C-56.60836126 129.17687125 -57.35925084 130.95705124 -58.1098938 132.73733521 C-58.83044471 134.44493004 -59.55215817 136.15203485 -60.27511597 137.85861206 C-62.08776961 142.1429569 -63.87358418 146.43588607 -65.61914062 150.74804688 C-65.97457947 151.61693542 -66.33001831 152.48582397 -66.69622803 153.38104248 C-67.36813219 155.02550709 -68.03227898 156.6731717 -68.68707275 158.32452393 C-70.6698395 163.15078211 -72.56324082 166.93787041 -77.4375 169.375 C-79.40581566 169.58583319 -81.38029879 169.73988186 -83.35571289 169.86816406 C-85.25007584 169.99427063 -85.25007584 169.99427063 -87.18270874 170.1229248 C-88.59185115 170.2122649 -90.00100057 170.3014945 -91.41015625 170.390625 C-92.89061687 170.48732871 -94.37105462 170.58438324 -95.85147095 170.6817627 C-99.88962351 170.94618447 -103.92811948 171.20498514 -107.96670151 171.4627533 C-111.34552603 171.67915225 -114.72412553 171.89895565 -118.10273075 172.11874771 C-137.4645558 173.37769861 -156.82913184 174.59132928 -176.1953125 175.78125 C-177.12067495 175.83814751 -178.04603741 175.89504501 -178.99944115 175.95366669 C-188.03356815 176.50895082 -197.06781441 177.06208693 -206.10261154 177.60636902 C-209.45164346 177.8084313 -212.80057253 178.01216518 -216.14948654 178.21617126 C-217.69925318 178.31012154 -219.2490694 178.40325835 -220.79893875 178.49549866 C-228.36920743 178.9461088 -235.90915179 179.43729978 -243.4375 180.375 C-239.89635637 184.00761228 -236.20501432 187.36952773 -232.3125 190.625 C-231.45881836 191.34333008 -231.45881836 191.34333008 -230.58789062 192.07617188 C-226.17578729 195.77997769 -221.71769511 199.42600398 -217.25 203.0625 C-213.55735636 206.09867366 -209.91628212 209.1934997 -206.2734375 212.2890625 C-202.8569046 215.18744823 -199.41245162 218.046551 -195.9375 220.875 C-191.3321675 224.62352646 -186.79545556 228.44584246 -182.27124023 232.29125977 C-178.87795891 235.1704532 -175.45482214 238.00704237 -172 240.8125 C-167.13700576 244.76943418 -162.38049797 248.83935942 -157.63134766 252.93115234 C-153.22074033 256.72357436 -148.74080824 260.42118682 -144.2265625 264.08984375 C-139.93008418 267.61006758 -135.68981738 271.19454732 -131.46875 274.8046875 C-129.63716425 276.35775892 -127.78764632 277.89047036 -125.90625 279.3828125 C-125.1946875 279.95773437 -124.483125 280.53265625 -123.75 281.125 C-123.14800781 281.59421875 -122.54601562 282.0634375 -121.92578125 282.546875 C-119.23242572 285.85524872 -118.31356594 289.47609386 -118.58745956 293.67266655 C-119.01235715 296.37805133 -119.53789212 299.04472427 -120.10302734 301.72436523 C-120.3044635 302.74378204 -120.50589966 303.76319885 -120.71343994 304.81350708 C-121.38468079 308.19016383 -122.07897619 311.56164276 -122.7734375 314.93359375 C-123.25180278 317.31612539 -123.72871527 319.69894913 -124.20425415 322.08204651 C-125.46585792 328.38416403 -126.74695974 334.68216403 -128.03222656 340.97949219 C-129.30504597 347.23207814 -130.56009762 353.48822035 -131.81640625 359.74414062 C-135.30751278 377.10513148 -138.80909616 394.46406472 -142.37389946 411.81009197 C-143.15050504 415.5943039 -143.92150668 419.37964332 -144.69133377 423.16523933 C-145.04459212 424.89442069 -145.40067211 426.6230283 -145.75974655 428.35101128 C-146.24462973 430.68457266 -146.72032642 433.01982406 -147.19384766 435.35571289 C-147.33705067 436.03221704 -147.48025368 436.7087212 -147.62779617 437.40572548 C-148.26194622 440.58263466 -148.48403817 442.2353855 -147.4375 445.375 C-132.83718158 436.5364137 -118.25380648 427.67459083 -103.75390625 418.671875 C-97.76255933 414.95256252 -91.75671793 411.25692096 -85.75 407.5625 C-84.11200439 406.55497681 -84.11200439 406.55497681 -82.44091797 405.52709961 C-80.2166807 404.15910394 -77.9923966 402.79118441 -75.76806641 401.42333984 C-70.32382431 398.07506311 -64.88072501 394.72492981 -59.4375 391.375 C-58.38062988 390.72466797 -57.32375977 390.07433594 -56.23486328 389.40429688 C-51.1641984 386.28412465 -46.09377559 383.16356085 -41.0241394 380.04171753 C-38.63344969 378.56957975 -36.24263306 377.09764817 -33.85180664 375.62573242 C-32.16735668 374.58857993 -30.48309003 373.55112974 -28.79882812 372.51367188 C-27.77595703 371.88396484 -26.75308594 371.25425781 -25.69921875 370.60546875 C-24.80162842 370.05270264 -23.90403809 369.49993652 -22.97924805 368.93041992 C-22.14047119 368.41713135 -21.30169434 367.90384277 -20.4375 367.375 C-19.56327393 366.83141846 -18.68904785 366.28783691 -17.78833008 365.7277832 C-14.85893155 364.04206327 -12.82305418 363.51042217 -9.4375 363.375 C-3.28350053 365.63356502 2.20091676 368.9563937 7.8125 372.3125 C8.78195557 372.8887915 9.75141113 373.46508301 10.75024414 374.05883789 C17.6729175 378.19411569 24.51083268 382.4506677 31.31005859 386.78515625 C37.47153925 390.70761142 43.69205363 394.52534547 49.9375 398.3125 C57.27020223 402.75967627 64.5876421 407.22886082 71.875 411.75 C90.05972295 423.03053942 108.29228868 434.23347578 126.5625 445.375 C127.70031114 441.96156659 127.39974674 440.61535362 126.67791748 437.14190674 C126.45644547 436.05720596 126.23497345 434.97250519 126.00679016 433.85493469 C125.75543808 432.66433945 125.504086 431.4737442 125.24511719 430.24707031 C124.98673569 428.99300888 124.72835419 427.73894745 124.46214294 426.44688416 C123.75188987 423.00048561 123.03207169 419.55614615 122.31060314 416.11208057 C121.5549905 412.49676057 120.80826145 408.87960698 120.06060791 405.26263428 C118.63951606 398.3944482 117.21060079 391.52791453 115.77881455 384.66195083 C114.00355131 376.14708405 112.23798933 367.63021128 110.47265625 359.11328125 C108.66608902 350.39844777 106.85867211 341.68379826 105.0446167 332.97052002 C104.76362731 331.62020552 104.48264672 330.26988919 104.20167542 328.91957092 C103.68838182 326.45341457 103.1746437 323.98735067 102.6603241 321.52140808 C101.95673342 318.14014517 101.25817062 314.75790104 100.5625 311.375 C100.42894765 310.72829188 100.2953953 310.08158377 100.15779591 309.41527843 C99.74238373 307.39868372 99.33095853 305.38131086 98.92047119 303.3637085 C98.67414066 302.15877621 98.42781013 300.95384392 98.17401505 299.71239853 C96.20755153 288.98024646 96.20755153 288.98024646 98.5234375 284.52734375 C102.12544596 279.95716539 106.9806388 276.43691911 111.50390625 272.828125 C114.74026062 270.23242826 117.90549628 267.56590973 121.0625 264.875 C125.9114023 260.7531838 130.81412836 256.70506994 135.75 252.6875 C138.88049666 250.11353608 141.97422461 247.49930914 145.0625 244.875 C149.91209381 240.75398366 154.81410806 236.70508646 159.75 232.6875 C162.88049666 230.11353608 165.97422461 227.49930914 169.0625 224.875 C173.91209381 220.75398366 178.81410806 216.70508646 183.75 212.6875 C186.88049851 210.11353455 189.97415634 207.49923097 193.0625 204.875 C199.85908906 199.1021984 206.74943609 193.4487531 213.69140625 187.8515625 C214.70074219 187.03429687 215.71007812 186.21703125 216.75 185.375 C217.67167969 184.6325 218.59335937 183.89 219.54296875 183.125 C220.20941406 182.5475 220.87585938 181.97 221.5625 181.375 C221.5625 181.045 221.5625 180.715 221.5625 180.375 C204.36021629 178.85288679 187.14837069 177.65341292 169.91216111 176.58971095 C166.45757047 176.37591303 163.00317189 176.15905362 159.54875183 175.94252014 C153.03445132 175.53459414 146.52000824 175.12899867 140.00549763 174.72444302 C128.32906278 173.99926395 116.65286612 173.27026611 104.97674769 172.54001147 C101.55897882 172.32633645 98.1411797 172.11316954 94.72330666 171.90116692 C90.92071384 171.66527154 87.11818972 171.4282937 83.31567383 171.19116211 C82.2125737 171.12309357 81.10947357 171.05502502 79.97294617 170.9848938 C77.88248781 170.8541188 75.79232405 170.71852642 73.70252419 170.57761955 C71.48859382 170.434759 69.27322846 170.31334374 67.05722618 170.20736885 C65.90905733 170.14272879 64.76088848 170.07808872 63.57792664 170.01148987 C62.54444942 169.96084664 61.51097219 169.91020342 60.44617748 169.85802555 C57.19234372 169.31299759 55.2298721 168.28883977 52.5625 166.375 C51.24551392 164.40963745 51.24551392 164.40963745 50.26025391 162.14404297 C49.88017181 161.28996857 49.50008972 160.43589417 49.10848999 159.55593872 C48.71432892 158.62740082 48.32016785 157.69886292 47.9140625 156.7421875 C47.48533844 155.76539032 47.05661438 154.78859314 46.61489868 153.78219604 C45.24748443 150.6533742 43.90337743 147.51527503 42.5625 144.375 C41.70450572 142.3868698 40.84611234 140.39891179 39.98730469 138.41113281 C37.75560601 133.22576039 35.54784399 128.03051112 33.34759521 122.83172607 C30.87280511 116.98437434 28.38885676 111.14091123 25.90625 105.296875 C25.39222626 104.08619354 24.87820251 102.87551208 24.34860229 101.62814331 C20.55151975 92.68748609 16.73434894 83.75554268 12.90625 74.828125 C12.63351887 74.19207714 12.36078773 73.55602928 12.07979202 72.90070724 C9.68231068 67.31006258 7.28332279 61.72006516 4.88348389 56.13043213 C3.8875446 53.81066685 2.8918308 51.49080475 1.8963623 49.1708374 C0.9984131 47.07818564 0.09994472 44.98575652 -0.79919434 42.89361572 C-3.72553143 36.07336934 -6.59493784 29.23056893 -9.4375 22.375 C-10.0975 22.375 -10.7575 22.375 -11.4375 22.375 Z " fill="#2F3B41" transform="translate(266.4375,22.625)"/>
</svg>
