<?xml version="1.0" encoding="UTF-8"?>
<svg version="1.1" xmlns="http://www.w3.org/2000/svg" width="512" height="512">
<path d="M0 0 C1.66570038 -0.01052147 1.66570038 -0.01052147 3.36505127 -0.02125549 C6.93090915 -0.03867475 10.49660113 -0.04510804 14.0625 -0.046875 C15.88678528 -0.04788712 15.88678528 -0.04788712 17.7479248 -0.04891968 C35.04137873 -0.03364277 51.98264115 0.23654835 69.0625 3.203125 C70.15256348 3.38536621 71.24262695 3.56760742 72.36572266 3.75537109 C105.06338739 9.31885435 144.17574661 17.91066499 165.0625 46.203125 C166.00989546 47.88341128 166.90863744 49.59231707 167.75 51.328125 C168.37455078 52.60042969 168.37455078 52.60042969 169.01171875 53.8984375 C171.13772705 58.56142968 171.21335789 62.65003269 171.21640015 67.68333435 C171.2207824 68.55947815 171.22516465 69.43562194 171.2296797 70.33831555 C171.24307703 73.28601134 171.24924877 76.23367723 171.25537109 79.18139648 C171.26327156 81.29042191 171.27154047 83.39944598 171.28015137 85.50846863 C171.30638601 92.44703885 171.32168413 99.38561513 171.3359375 106.32421875 C171.34129728 108.71341519 171.34667479 111.10261158 171.35206985 113.49180794 C171.37370397 123.4333605 171.39243892 133.37491144 171.40369225 143.31648159 C171.41991821 157.55731336 171.45305735 171.79787169 171.51009309 186.03860039 C171.54883529 196.05405219 171.56833024 206.069431 171.57361281 216.08495575 C171.57726141 222.06467502 171.58923034 228.04410275 171.62171555 234.02374077 C171.65186977 239.65529531 171.65808154 245.28638304 171.64633179 250.91800117 C171.64611165 252.97866687 171.65436718 255.03935468 171.67198563 257.09994507 C171.79727039 272.60407093 170.2113817 283.49075385 159.625 295.609375 C150.82379677 304.51790998 140.37373438 310.16897563 129.0625 315.203125 C128.37446289 315.50992187 127.68642578 315.81671875 126.97753906 316.1328125 C110.18564337 323.46018517 92.40465754 327.50619981 74.375 330.453125 C73.45195068 330.60418701 72.52890137 330.75524902 71.57788086 330.91088867 C52.93225128 333.75318093 34.40317151 334.57829789 15.5625 334.515625 C14.42186096 334.51380219 13.28122192 334.51197937 12.10601807 334.51010132 C-34.66520421 334.38448442 -94.45062801 329.89905631 -129.9375 295.203125 C-132.66077989 292.04155956 -134.97383358 288.88499954 -136.9375 285.203125 C-137.26858513 284.63197968 -137.59967026 284.06083435 -137.94078827 283.47238159 C-142.44154143 274.34956922 -141.4978038 264.31181554 -141.45507812 254.3984375 C-141.46050383 252.28513101 -141.467629 250.17182831 -141.47631836 248.05853271 C-141.49450114 242.33953262 -141.48750492 236.62082226 -141.47480202 230.90181732 C-141.46464824 224.90605409 -141.4740743 218.91031503 -141.48034668 212.91455078 C-141.48761615 202.8472856 -141.47805371 192.78013795 -141.45898438 182.71289062 C-141.43721708 171.08733514 -141.44426894 159.4620603 -141.46629 147.83651161 C-141.48446389 137.84045834 -141.48699256 127.84448937 -141.47653532 117.84842491 C-141.47031137 111.8846006 -141.46943461 105.92090804 -141.48268127 99.95709229 C-141.49426803 94.34925502 -141.48616216 88.74177827 -141.46310425 83.1339798 C-141.45783228 81.08055468 -141.4593049 79.02709903 -141.46815491 76.97368622 C-141.52383717 62.73745182 -140.5993538 52.33231641 -130.9375 41.203125 C-130.38578125 40.55730469 -129.8340625 39.91148438 -129.265625 39.24609375 C-99.86435405 7.39471689 -40.62443948 0.17191716 0 0 Z " fill="#000101" transform="translate(240.9375,-0.203125)"/>
<path d="M0 0 C3.85397007 0.02381267 7.70725299 0.02050076 11.5612793 0.01391602 C24.81158229 0.02899919 37.77677483 0.43556004 50.89526367 2.33618164 C51.8453833 2.46178467 52.79550293 2.5873877 53.77441406 2.71679688 C81.32610641 6.45088881 116.828608 13.20100959 135.58276367 35.60180664 C138.13622655 38.97602545 138.37109189 41.68760052 138.27807617 45.84008789 C137.34715942 51.91004508 133.71343593 55.81076594 129.12963867 59.65649414 C121.27979317 65.36019961 112.89188141 69.72044577 103.89526367 73.33618164 C103.18031738 73.62734863 102.46537109 73.91851562 101.72875977 74.21850586 C43.45806098 97.30261887 -39.56376843 95.70666706 -97.10473633 72.33618164 C-107.69122293 67.68556525 -120.12682878 61.76900736 -126.72973633 51.89868164 C-128.44204236 47.46225236 -129.147348 44.01581077 -128.10473633 39.33618164 C-120.82019548 24.51970045 -101.05271111 16.8980861 -86.3425293 11.84887695 C-79.28883317 9.56126287 -72.14219891 7.74568808 -64.91723633 6.08618164 C-63.91724609 5.85205566 -62.91725586 5.61792969 -61.88696289 5.37670898 C-41.43250373 0.93631519 -20.87616353 -0.13765091 0 0 Z " fill="#4CB5AB" transform="translate(251.104736328125,22.663818359375)"/>
<path d="M0 0 C3.55503973 1.38662876 6.92656131 2.95540086 10.31420898 4.71557617 C18.98220029 9.20259867 27.75391777 12.88567252 37 16 C37.9588208 16.32629395 37.9588208 16.32629395 38.93701172 16.65917969 C69.17118224 26.74995814 101.205329 29.27346576 132.875 29.25 C133.75438232 29.24940582 134.63376465 29.24881165 135.53979492 29.24819946 C152.49810406 29.2043226 169.15943515 28.45898584 185.9375 25.875 C186.99242645 25.71460236 186.99242645 25.71460236 188.06866455 25.55096436 C213.06031044 21.70042358 237.97995891 15.1211099 260.09375 2.6015625 C263 1 263 1 266 0 C266.09924823 4.87461475 266.17164581 9.74863497 266.21972656 14.62402344 C266.23978009 16.28070325 266.26703029 17.93731282 266.30175781 19.59375 C266.35055512 21.98194758 266.37303064 24.36920547 266.390625 26.7578125 C266.41127014 27.49242706 266.43191528 28.22704163 266.45318604 28.98391724 C266.45592742 35.33798259 264.06848039 38.66694653 259.984375 43.2734375 C237.30872308 64.60123599 200.63678309 69.43933599 171 73 C170.27299896 73.08846191 169.54599792 73.17692383 168.79696655 73.26806641 C161.9298104 74.03202714 155.12029391 74.17735099 148.21484375 74.203125 C147.00091446 74.20882507 145.78698517 74.21452515 144.53627014 74.22039795 C141.97039651 74.2298068 139.40451101 74.23636547 136.83862305 74.24023438 C133.00091036 74.24984127 129.16375699 74.28086408 125.32617188 74.3125 C85.83771737 74.4824802 34.36321031 70.22649484 4.2578125 41.515625 C0.02989346 36.8049332 -0.2814333 33.16810569 -0.1953125 26.953125 C-0.1924826 26.18192322 -0.18965271 25.41072144 -0.18673706 24.6161499 C-0.17557013 22.16060668 -0.15047229 19.7054324 -0.125 17.25 C-0.11496568 15.58203653 -0.10584061 13.91406732 -0.09765625 12.24609375 C-0.07564225 8.16392103 -0.04113667 4.082023 0 0 Z " fill="#4CB5AB" transform="translate(123,237)"/>
<path d="M0 0 C1.08337646 0.55228271 2.16675293 1.10456543 3.28295898 1.67358398 C27.20695783 13.84380937 51.45758073 21.72995823 78 26 C79.53817383 26.2477417 79.53817383 26.2477417 81.10742188 26.50048828 C98.35780603 29.10528551 115.58914561 29.28407809 133 29.3125 C134.0810199 29.31617584 135.16203979 29.31985168 136.27581787 29.32363892 C154.60140555 29.35615884 172.72925172 28.37009667 190.8125 25.25 C191.79694092 25.08153564 192.78138184 24.91307129 193.7956543 24.73950195 C218.68921782 20.30867264 241.36424973 13.1479831 263.44384766 0.80688477 C265 0 265 0 266 0 C266.14927122 4.83791857 266.25764206 9.67447284 266.32958984 14.51416016 C266.35960598 16.15730157 266.4004338 17.80028486 266.45263672 19.44287109 C266.9297038 34.84933145 266.9297038 34.84933145 263.22265625 39.90625 C261.56445313 41.6328125 261.56445313 41.6328125 260 43 C259.33097656 43.6703125 258.66195313 44.340625 257.97265625 45.03125 C214.29260872 78.61754422 144.39653467 78.89046194 92 73 C91.14083984 72.90348145 90.28167969 72.80696289 89.39648438 72.70751953 C60.8022923 69.31432721 23.24509566 62.55303656 3 40 C-0.21604829 35.73478266 -0.40106607 32.02005998 -0.29296875 26.85546875 C-0.28872391 26.08568192 -0.28447906 25.31589508 -0.28010559 24.52278137 C-0.26338597 22.07732354 -0.2257477 19.63270643 -0.1875 17.1875 C-0.17244441 15.52410049 -0.15875754 13.86068799 -0.14648438 12.19726562 C-0.11350465 8.13118918 -0.06177006 4.06573687 0 0 Z " fill="#4CB4AB" transform="translate(123,170)"/>
<path d="M0 0 C0.67877197 0.38091797 1.35754395 0.76183594 2.05688477 1.15429688 C65.72564079 36.45054989 150.56800399 38.13522872 219.78637695 19.22485352 C223.22152713 18.23827678 226.61364033 17.14185727 230 16 C231.16354004 15.60941406 231.16354004 15.60941406 232.35058594 15.2109375 C242.81337816 11.64700987 252.41165578 7.53117574 262 2 C263.33028281 1.32726686 264.66310195 0.65948906 266 0 C266.09924823 4.87461475 266.17164581 9.74863497 266.21972656 14.62402344 C266.23978009 16.28070325 266.26703029 17.93731282 266.30175781 19.59375 C266.35055512 21.98194758 266.37303064 24.36920547 266.390625 26.7578125 C266.41127014 27.49242706 266.43191528 28.22704163 266.45318604 28.98391724 C266.45588449 35.23847808 264.20178586 38.62508985 260.0625 43.08984375 C221.5451384 77.59498019 155.83691743 77.00387027 107.1953125 74.72265625 C73.08095957 72.67243142 28.44014376 66.40134137 3.3046875 40.640625 C-0.16114463 36.28239298 -0.27059296 32.38580346 -0.1953125 26.953125 C-0.1924826 26.18192322 -0.18965271 25.41072144 -0.18673706 24.6161499 C-0.17557013 22.16060668 -0.15047229 19.7054324 -0.125 17.25 C-0.11496568 15.58203653 -0.10584061 13.91406732 -0.09765625 12.24609375 C-0.07564225 8.16392103 -0.04113667 4.082023 0 0 Z " fill="#4CB5AB" transform="translate(123,103)"/>
<path d="M0 0 C1.68536277 -0.01646303 3.37065856 -0.04362376 5.05566406 -0.08203125 C17.84241214 -0.37132419 28.51583211 0.41024063 38.48681641 9.41259766 C46.66472209 18.62093038 48.29842546 28.41796248 48.10791016 40.40087891 C48.10441307 42.34815132 48.10441307 42.34815132 48.10084534 44.33476257 C48.09473627 47.05873797 48.07230658 49.78187272 48.03637695 52.50561523 C47.99088261 55.9798497 47.97633502 59.45333337 47.97264004 62.92783833 C47.96712878 66.2731263 47.94376118 69.61816537 47.92041016 72.96337891 C47.9123661 74.82135857 47.9123661 74.82135857 47.90415955 76.71687317 C47.77257329 86.2807282 47.77257329 86.2807282 46.40112305 90.49926758 C46.12002686 91.4400415 45.83893066 92.38081543 45.54931641 93.35009766 C46.53931641 94.83509766 46.53931641 94.83509766 47.54931641 96.35009766 C48.26953916 100.82217849 48.13142806 104.33679219 45.86181641 108.28759766 C42.87158317 110.95456243 40.7065335 112.43190828 36.59228516 112.27587891 C33.84095808 111.96450423 31.1657564 111.53128651 28.50683594 110.74975586 C26.31710923 110.14694361 26.31710923 110.14694361 23.29150391 111.26806641 C17.25232046 112.92667602 11.03781363 112.68494788 4.82324219 112.66577148 C2.68583976 112.66261468 0.54982947 112.6861171 -1.58740234 112.71142578 C-14.40012922 112.77195806 -23.73687624 110.79606448 -33.13818359 101.72119141 C-41.89333674 92.28751389 -42.60152258 81.64847885 -42.65380859 69.36962891 C-42.65950867 68.32038742 -42.66520874 67.27114594 -42.67108154 66.19010925 C-42.68049791 63.97546384 -42.6870521 61.76080463 -42.69091797 59.54614258 C-42.70060212 56.19082651 -42.73164956 52.83612911 -42.76318359 49.48095703 C-42.76971706 47.31885125 -42.77496618 45.15674114 -42.77880859 42.99462891 C-42.7911554 42.00670853 -42.8035022 41.01878815 -42.81622314 40.00093079 C-42.78208324 29.1084111 -40.82928943 18.70699056 -33.45068359 10.35009766 C-23.10581378 0.93440777 -13.35357714 0.09525397 0 0 Z M-17.06896973 28.1362915 C-18.73425533 30.80444125 -18.83595541 32.37052395 -18.85473633 35.49829102 C-18.8674205 36.52292953 -18.88010468 37.54756805 -18.89317322 38.60325623 C-18.89023758 39.70436234 -18.88730194 40.80546844 -18.88427734 41.93994141 C-18.8895192 43.07661758 -18.89476105 44.21329376 -18.90016174 45.38441467 C-18.90658349 47.78759952 -18.90524302 50.1908158 -18.89672852 52.59399414 C-18.88822332 56.2704266 -18.91697262 59.94530327 -18.94873047 63.62158203 C-18.95034268 65.95686802 -18.94976458 68.29215677 -18.94677734 70.62744141 C-18.95801132 71.72652328 -18.9692453 72.82560516 -18.9808197 73.95799255 C-18.95478809 80.0309038 -18.95478809 80.0309038 -16.55712891 85.5012207 C-11.64332316 89.81418442 -6.86066529 89.61070916 -0.63818359 89.47509766 C0.15007812 89.46607422 0.93833984 89.45705078 1.75048828 89.44775391 C3.68356307 89.4243227 5.6164802 89.38845604 7.54931641 89.35009766 C6.89705078 88.28017578 6.24478516 87.21025391 5.57275391 86.10791016 C2.6517725 80.9852358 3.10153018 77.29269289 3.98681641 71.47509766 C6.22411094 68.43237709 8.52372245 68.06107052 12.16259766 67.42822266 C17.10754341 67.26635864 20.51192314 69.65850214 24.54931641 72.35009766 C24.64844925 66.62098193 24.72090981 60.89236927 24.76904297 55.16259766 C24.78911547 53.214918 24.81637972 51.26729829 24.85107422 49.31982422 C24.89978493 46.51466045 24.92232881 43.71029579 24.93994141 40.90478516 C24.96058655 40.03892792 24.98123169 39.17307068 25.00250244 38.28097534 C25.00450993 32.82977694 24.294936 29.60439179 20.54931641 25.35009766 C15.69041917 21.82137833 8.8328427 23.02262898 3.11181641 23.03759766 C1.88398438 23.02148438 0.65615234 23.00537109 -0.60888672 22.98876953 C-2.38489258 22.98780273 -2.38489258 22.98780273 -4.19677734 22.98681641 C-5.81604126 22.98234497 -5.81604126 22.98234497 -7.46801758 22.9777832 C-11.68420634 23.50407344 -14.22848914 25.00109258 -17.06896973 28.1362915 Z " fill="#000000" transform="translate(364.45068359375,355.64990234375)"/>
<path d="M0 0 C0.74765625 -0.04898437 1.4953125 -0.09796875 2.265625 -0.1484375 C9.41304816 1.35746612 13.66248003 8.94778202 17.625 14.5 C18.2348877 15.34151611 18.84477539 16.18303223 19.47314453 17.05004883 C20.68324851 18.72096888 21.89020912 20.39417068 23.09375 22.06982422 C25.25556842 25.07865228 27.4403063 28.07024988 29.625 31.0625 C30.66732966 32.49951934 31.70931638 33.93678816 32.75 35.375 C37.37307361 31.08339204 40.94201487 26.2300488 44.625 21.125 C46.98925971 17.86699816 49.36267711 14.61614496 51.75 11.375 C52.67280762 10.11526367 52.67280762 10.11526367 53.61425781 8.83007812 C54.21850586 8.02505859 54.82275391 7.22003906 55.4453125 6.390625 C56.25379639 5.30442871 56.25379639 5.30442871 57.07861328 4.19628906 C60.03755262 0.97197012 62.28159858 0.42032917 66.625 0 C70.96277309 0.12948576 73.49401354 1.42910749 76.75 4.375 C78.98494889 9.40411034 79.03506901 14.0288471 79.00878906 19.42211914 C79.0122937 20.31229233 79.01579834 21.20246552 79.01940918 22.11961365 C79.02818194 25.04987481 79.02239357 27.97989281 79.015625 30.91015625 C79.01697281 32.95226589 79.01891431 34.99437522 79.02142334 37.03648376 C79.02436847 41.31089338 79.02009614 45.58521927 79.01074219 49.85961914 C78.99934083 55.33624201 79.00591538 60.812669 79.01788712 66.28928471 C79.02511602 70.50403823 79.02281316 74.71874536 79.01763153 78.93350029 C79.01629827 80.95290589 79.01793143 82.97231572 79.02259064 84.99171638 C79.02767354 87.81368288 79.01992105 90.63533247 79.00878906 93.45727539 C79.01283752 94.29014069 79.01688599 95.12300598 79.02105713 95.98110962 C78.98194839 101.33673711 78.30751851 105.13217334 75.1875 109.625 C71.59522859 112.20406665 68.12327445 112.57840811 63.75 112.375 C59.999842 110.8260217 57.84602751 108.83344539 55.75 105.375 C54.776089 102.27011486 54.59979866 99.39172119 54.54467773 96.14746094 C54.5147599 94.58629547 54.5147599 94.58629547 54.48423767 92.99359131 C54.46752518 91.87679993 54.45081268 90.76000854 54.43359375 89.609375 C54.41281265 88.46084045 54.39203156 87.31230591 54.37062073 86.12896729 C54.30525007 82.46103889 54.24629806 78.79303907 54.1875 75.125 C54.14430293 72.63801346 54.10068825 70.15103413 54.05664062 67.6640625 C53.94958142 61.56778378 53.84779175 55.47143405 53.75 49.375 C53.07453125 50.26703125 52.3990625 51.1590625 51.703125 52.078125 C50.80224025 53.26053624 49.9011898 54.44282124 49 55.625 C48.33484375 56.50478516 48.33484375 56.50478516 47.65625 57.40234375 C40.35720046 66.95551154 40.35720046 66.95551154 35.83203125 67.68359375 C31.62450115 67.92257567 28.61742983 67.81421211 25.25 65.125 C22.18455038 62.04131223 19.61068784 58.62941341 17.03125 55.140625 C16.6177832 54.5852002 16.20431641 54.02977539 15.77832031 53.45751953 C14.7668569 52.09818287 13.75814677 50.73679826 12.75 49.375 C12.74413376 50.03819244 12.73826752 50.70138489 12.73222351 51.38467407 C12.66822292 58.29562848 12.58378543 65.2061201 12.48754883 72.11669922 C12.45432219 74.6947621 12.42628327 77.27289733 12.40356445 79.85107422 C12.36997793 83.55988354 12.31765756 87.2680312 12.26171875 90.9765625 C12.25213387 92.70188705 12.25213387 92.70188705 12.24235535 94.46206665 C12.05604456 104.63375419 12.05604456 104.63375419 8.75 109.375 C5.3601682 111.81883222 2.7893733 112.62207534 -1.3125 112.3125 C-5.15289572 111.65036281 -7.47083632 110.15416368 -10.25 107.375 C-11.96278782 103.94942436 -11.42501757 100.01796267 -11.44287109 96.24707031 C-11.45104858 95.3005661 -11.45922607 94.35406189 -11.46765137 93.37887573 C-11.4925259 90.23696531 -11.50902707 87.09510014 -11.5234375 83.953125 C-11.52876118 82.88125694 -11.53408485 81.80938889 -11.53956985 80.70503998 C-11.56631096 75.03123184 -11.58568241 69.35744577 -11.60009766 63.68359375 C-11.61674371 57.82113882 -11.66151884 51.95924625 -11.7124691 46.09700394 C-11.74611681 41.59140371 -11.75767245 37.08593731 -11.76332474 32.58022308 C-11.77004451 30.41925511 -11.7852853 28.25829617 -11.80921555 26.09745026 C-11.8408147 23.07133618 -11.84091138 20.04674339 -11.83349609 17.02050781 C-11.8581041 15.68301987 -11.8581041 15.68301987 -11.88320923 14.31851196 C-11.840217 10.02912587 -11.58603053 7.23848799 -8.83853149 3.83465576 C-5.71116338 0.86299055 -4.19341306 0.18542303 0 0 Z " fill="#000000" transform="translate(22.25,355.625)"/>
<path d="M0 0 C3.28527476 2.42136918 6.2060841 5.01892228 8.9375 8.0625 C9.63875 8.805 10.34 9.5475 11.0625 10.3125 C14.93714195 15.99530819 16.61180414 22.18459779 15.9375 29.0625 C15.05581759 32.49126494 13.73317034 33.21370395 10.8125 35.375 C7.31965366 37.20874433 4.64957305 37.48388661 0.79296875 36.73046875 C-2.43927444 35.5668612 -4.00966766 33.76050822 -6.0625 31.0625 C-6.5575 29.886875 -7.0525 28.71125 -7.5625 27.5 C-9.51603059 23.02315907 -11.58702572 21.24178138 -15.96484375 19.15625 C-25.26981967 15.52175669 -34.59886107 16.11597373 -43.765625 19.8515625 C-46.77658032 21.43897092 -48.50565671 23.02665558 -50.0625 26.0625 C-49.30844608 29.42626828 -49.30844608 29.42626828 -45.625 31.0625 C-38.56073517 34.36827883 -31.02475614 36.13077513 -23.42651367 37.74731445 C-10.16877802 40.61381843 3.60497723 44.46396327 11.9375 56.0625 C16.41210055 63.96336611 16.98062481 71.18864294 15.0625 79.9375 C12.12331061 88.71405621 5.13814723 95.26898345 -2.875 99.5625 C-19.13270203 106.74661865 -35.44594398 106.71808229 -52.0625 101.0625 C-61.70165969 96.69022756 -69.23292106 90.04823004 -73.0625 80.0625 C-74.55767989 74.85445731 -74.90662667 70.66031119 -72.3125 65.75 C-69.12800196 61.94629401 -67.59110114 61.23234457 -62.6875 60.6875 C-58.16604805 61.15523641 -56.42793656 61.98971009 -53.0625 65.0625 C-52.26791965 66.68727981 -51.52167454 68.33616743 -50.8125 70 C-48.46244435 75.05821503 -45.98416873 77.08253634 -40.875 79.2265625 C-32.12970842 81.8258575 -23.03206557 82.03713046 -14.765625 77.91796875 C-10.31776562 75.4490522 -10.31776562 75.4490522 -8.0625 71.0625 C-15.08955703 63.26015734 -26.02478242 61.78608321 -35.875 59.75 C-48.64469684 57.03274247 -61.33088641 53.01350762 -69.64453125 42.27734375 C-74.22167102 35.12792708 -75.31899448 28.02354357 -73.55859375 19.671875 C-70.62942992 9.82988452 -64.78433642 4.13967947 -56.15625 -1.09375 C-39.53451919 -10.08583388 -16.11875992 -10.22616408 0 0 Z " fill="#000000" transform="translate(285.0625,362.9375)"/>
<path d="M0 0 C4.92515649 4.00218694 7.42670551 9.01312027 10.25 14.5625 C10.69601563 15.41263672 11.14203125 16.26277344 11.6015625 17.13867188 C13.46625943 20.74092732 15.14975242 24.01206824 16 28 C16.66 28 17.32 28 18 28 C18.22945312 27.20980469 18.45890625 26.41960937 18.6953125 25.60546875 C20.37811896 20.95507843 22.57948217 16.68603033 24.875 12.3125 C25.30941406 11.45849609 25.74382812 10.60449219 26.19140625 9.72460938 C26.62066406 8.90412109 27.04992187 8.08363281 27.4921875 7.23828125 C27.87745605 6.49618408 28.26272461 5.75408691 28.65966797 4.98950195 C31.04966669 1.44194284 33.30066667 0.16529697 37.4375 -0.8125 C41.14173825 -1.00745991 42.84091276 -0.87837619 46 1 C49.85677681 4.74964412 50.83639984 7.65926772 51 13 C49.93319353 16.41609868 48.31521789 19.50585187 46.67578125 22.6796875 C46.1880574 23.65984833 45.70033356 24.64000916 45.1978302 25.64987183 C44.09338031 27.86780054 42.98156443 30.08207099 41.86383057 32.29333496 C39.84350451 36.29668306 37.87233557 40.32352733 35.90380859 44.35253906 C32.5314575 51.24919768 29.13401488 58.13297327 25.71818352 65.00819778 C23.73802133 68.99453389 21.76355408 72.9834725 19.80200195 76.97900391 C17.86951237 80.91505719 15.92335559 84.84406197 13.96730995 88.76845932 C13.23332753 90.24676922 12.50412526 91.72746333 11.78001976 93.21063614 C10.77292388 95.27108684 9.74844747 97.32198455 8.71948242 99.37158203 C7.85657845 101.1161821 7.85657845 101.1161821 6.97624207 102.89602661 C4.40927209 106.92782344 1.40921624 110.36308076 -3.37890625 111.62890625 C-7.28459298 111.51012866 -9.50982188 111.29202101 -12.9375 109.25 C-15.34199193 106.6269179 -16.8964169 104.55462178 -17.13723755 100.9402771 C-16.50154435 94.88736487 -14.55473099 90.64240094 -11.4296875 85.4765625 C-10.5224498 83.862691 -9.61891661 82.24673243 -8.71875 80.62890625 C-7.30753781 78.12057458 -5.8799128 75.63307378 -4.38378906 73.17431641 C1.46704547 63.95969285 1.46704547 63.95969285 2.59024048 53.48388672 C0.87238207 48.28584661 -1.79730887 43.69468293 -4.70825195 39.08148193 C-6.45100479 36.27326515 -7.86709945 33.34226497 -9.28515625 30.359375 C-10.68871932 27.52127367 -12.09501621 24.68600671 -13.52929688 21.86328125 C-16.09363788 16.63304117 -17.73822658 12.84492801 -17 7 C-15.60126781 3.58087687 -14.34613174 2.24148726 -11.3125 0.125 C-7.31121098 -1.23392835 -3.97677577 -1.59377526 0 0 Z " fill="#000000" transform="translate(139,401)"/>
<path d="M0 0 C4.11349937 2.36307411 5.61554398 4.54312446 7 9 C7.17677708 11.6742552 7.25336167 14.2399372 7.22705078 16.91137695 C7.22734283 17.69239273 7.22763489 18.47340851 7.22793579 19.27809143 C7.22654736 21.84826945 7.21100921 24.41815414 7.1953125 26.98828125 C7.19158064 28.77475323 7.18873448 30.56122726 7.18673706 32.34770203 C7.17911424 37.0412871 7.15947736 41.73474768 7.1373291 46.42828369 C7.11684155 51.22105221 7.10772912 56.01384091 7.09765625 60.80664062 C7.0762302 70.20448167 7.04211056 79.60223047 7 89 C8.08941895 88.97381592 9.17883789 88.94763184 10.30126953 88.9206543 C14.36014097 88.82985339 18.41892345 88.77264316 22.47851562 88.7253418 C24.23225015 88.70026533 25.98588086 88.66619505 27.73925781 88.62280273 C30.26653706 88.56184396 32.79242981 88.53372281 35.3203125 88.51171875 C36.09867462 88.48591232 36.87703674 88.4601059 37.6789856 88.43351746 C41.76366775 88.43143375 44.25065592 88.79192814 47.47998047 91.40551758 C51.1940287 95.22931051 51.34756334 97.58632568 51.28125 102.7421875 C50.85665394 106.1507503 49.52704082 107.74615278 47 110 C43.5662521 111.63566218 40.81868524 112.25390639 37.02954102 112.2746582 C36.06826797 112.28419022 35.10699493 112.29372223 34.11659241 112.30354309 C32.57581276 112.30217598 32.57581276 112.30217598 31.00390625 112.30078125 C29.93760483 112.30506638 28.87130341 112.3093515 27.77268982 112.31376648 C25.52091175 112.31950138 23.26911517 112.32001624 21.01733398 112.31567383 C17.57829084 112.31251451 14.14010869 112.33598211 10.70117188 112.36132812 C8.51041775 112.3636013 6.31966132 112.36430453 4.12890625 112.36328125 C3.10374405 112.372491 2.07858185 112.38170074 1.02235413 112.39118958 C-5.21695656 112.35089266 -9.86446587 111.93112 -14.62950134 107.47673035 C-16.74837142 103.64756218 -16.43406722 99.95322596 -16.41992188 95.64501953 C-16.42839142 94.69822327 -16.43686096 93.751427 -16.44558716 92.77593994 C-16.46899411 89.64476096 -16.46997835 86.51407238 -16.46875 83.3828125 C-16.47584982 81.20571699 -16.48354855 79.02862335 -16.49182129 76.85153198 C-16.50527496 72.28687338 -16.50683106 67.72238774 -16.50097656 63.15771484 C-16.49508264 57.3109392 -16.52565585 51.46499453 -16.56609344 45.61837959 C-16.59195698 41.121323 -16.59484899 36.62446676 -16.59120178 32.12734604 C-16.59289458 29.97198271 -16.60255238 27.81661028 -16.62034607 25.66131973 C-16.64250638 22.64490612 -16.63284783 19.63017788 -16.61523438 16.61376953 C-16.62849762 15.72525299 -16.64176086 14.83673645 -16.65542603 13.92129517 C-16.59742485 9.64161085 -16.32708989 6.85672949 -13.58654785 3.4616394 C-9.33698292 -0.58270738 -5.69403835 -0.70929197 0 0 Z " fill="#000000" transform="translate(450,356)"/>
</svg>
