<?xml version="1.0" encoding="UTF-8"?>
<svg version="1.1" xmlns="http://www.w3.org/2000/svg" width="512" height="512">
<path d="M0 0 C1.66012758 -0.00346318 3.32025285 -0.00823216 4.98037338 -0.01418173 C9.50940007 -0.02663069 14.03823554 -0.02054935 18.56726265 -0.01122308 C23.46441018 -0.00440775 28.36152588 -0.01492608 33.25866699 -0.02316284 C42.83919882 -0.03647594 52.41965999 -0.03363324 62.00019455 -0.02492492 C69.78915739 -0.01813923 77.57810048 -0.01723548 85.36706543 -0.02049637 C86.47724588 -0.02095607 87.58742633 -0.02141577 88.73124862 -0.0218894 C90.98682817 -0.02284861 93.24240773 -0.02382125 95.49798727 -0.02480717 C116.62958279 -0.03335397 137.76113922 -0.02353808 158.89272833 -0.00740607 C177.00955981 0.00599646 195.12633362 0.00366816 213.24316406 -0.01016235 C234.30112278 -0.02623071 255.35904727 -0.03253006 276.41701126 -0.02332556 C278.6641159 -0.02236995 280.91122055 -0.02142684 283.1583252 -0.02049637 C284.81658754 -0.01980213 284.81658754 -0.01980213 286.50835013 -0.01909386 C294.28450581 -0.01650775 302.06063969 -0.02086681 309.83679199 -0.02793503 C319.31825733 -0.03636417 328.79964819 -0.03404015 338.28110504 -0.0180928 C343.11513364 -0.01022914 347.94903823 -0.00708592 352.7830658 -0.01704025 C357.21445992 -0.02602721 361.64561595 -0.02098885 366.0769887 -0.0051076 C367.67372291 -0.00177666 369.27047755 -0.00341551 370.86719847 -0.01073496 C390.48933835 -0.09373247 407.72465162 4.45183053 422.26269531 18.38095093 C435.84266157 32.55457691 440.73808153 49.21403416 440.65037537 68.4283905 C440.65455514 69.92933778 440.66003618 71.4302819 440.66669518 72.93122023 C440.6810843 77.02957543 440.67692563 81.12772841 440.66952837 85.22609437 C440.66478269 89.65635865 440.67731894 94.08658007 440.68754578 98.51683044 C440.7047122 107.18623127 440.7055782 115.85555955 440.70033287 124.52497295 C440.69628564 131.57456003 440.6977413 138.62412572 440.70308113 145.67371178 C440.70382955 146.67841076 440.70457798 147.68310974 440.70534908 148.71825415 C440.70688061 150.75954504 440.70841896 152.80083593 440.70996404 154.84212681 C440.72368148 173.97079197 440.71825689 193.09941619 440.70677883 212.22808041 C440.69684899 229.70991798 440.70978419 247.19164966 440.73371302 264.67347089 C440.75812372 282.64335494 440.76770694 300.61318972 440.7610603 318.58309001 C440.75757224 328.66396869 440.75977276 338.74476599 440.77731133 348.8256321 C440.79205801 357.40792879 440.79263663 365.99008678 440.77524041 374.57238082 C440.76674802 378.94682912 440.76453753 383.32102991 440.77989197 387.69546509 C440.79380203 391.70825386 440.78889564 395.72058456 440.76965273 399.73334726 C440.76591163 401.17672911 440.76875953 402.62014822 440.77926438 404.06349669 C440.90423212 422.56510571 435.1958878 438.92520521 422.26269531 452.38095093 C406.10363453 466.52585116 389.50112565 470.85805564 368.52539062 470.76190186 C366.86526305 470.76536504 365.20513777 470.77013401 363.54501724 470.77608359 C359.01599055 470.78853254 354.48715508 470.78245121 349.95812798 470.77312493 C345.06098045 470.76630961 340.16386474 470.77682794 335.26672363 470.7850647 C325.6861918 470.7983778 316.10573063 470.7955351 306.52519608 470.78682677 C298.73623324 470.78004109 290.94729015 470.77913733 283.1583252 470.78239822 C282.04814474 470.78285792 280.93796429 470.78331762 279.79414201 470.78379125 C277.53856245 470.78475046 275.2829829 470.78572311 273.02740335 470.78670903 C251.89580783 470.79525582 230.76425141 470.78543993 209.6326623 470.76930793 C191.51583081 470.7559054 173.39905701 470.75823369 155.28222656 470.77206421 C134.22426784 470.78813256 113.16634336 470.79443192 92.10837936 470.78522742 C89.86127472 470.78427181 87.61417008 470.7833287 85.36706543 470.78239822 C84.2615572 470.7819354 83.15604897 470.78147257 82.01704049 470.78099572 C74.24088482 470.7784096 66.46475093 470.78276867 58.68859863 470.78983688 C49.20713329 470.79826603 39.72574243 470.79594201 30.24428558 470.77999465 C25.41025699 470.77213099 20.5763524 470.76898777 15.74232483 470.77894211 C11.3109307 470.78792907 6.87977468 470.78289071 2.44840193 470.76700945 C0.85166771 470.76367851 -0.74508693 470.76531737 -2.34180784 470.77263682 C-21.96394773 470.85563432 -39.199261 466.31007132 -53.73730469 452.38095093 C-67.31727094 438.20732495 -72.2126909 421.5478677 -72.12498474 402.33351135 C-72.12916452 400.83256407 -72.13464555 399.33161995 -72.14130455 397.83068162 C-72.15569367 393.73232643 -72.15153501 389.63417345 -72.14413774 385.53580749 C-72.13939206 381.1055432 -72.15192831 376.67532179 -72.16215515 372.24507141 C-72.17932157 363.57567058 -72.18018758 354.90634231 -72.17494225 346.2369289 C-72.17089501 339.18734183 -72.17235068 332.13777614 -72.17769051 325.08819008 C-72.17843893 324.0834911 -72.17918735 323.07879212 -72.17995845 322.04364771 C-72.18148999 320.00235682 -72.18302834 317.96106593 -72.18457342 315.91977505 C-72.19829086 296.79110989 -72.19286626 277.66248566 -72.18138821 258.53382144 C-72.17145836 241.05198388 -72.18439356 223.5702522 -72.2083224 206.08843096 C-72.23273309 188.11854692 -72.24231632 170.14871214 -72.23566967 152.17881185 C-72.23218161 142.09793316 -72.23438214 132.01713587 -72.2519207 121.93626976 C-72.26666739 113.35397307 -72.267246 104.77181508 -72.24984979 96.18952104 C-72.2413574 91.81507274 -72.2391469 87.44087194 -72.25450134 83.06643677 C-72.2684114 79.053648 -72.26350502 75.04131729 -72.24426211 71.0285546 C-72.24052101 69.58517275 -72.24336891 68.14175364 -72.25387376 66.69840517 C-72.3788415 48.19679614 -66.67049717 31.83669665 -53.73730469 18.38095093 C-37.5782439 4.23605069 -20.97573502 -0.09615378 0 0 Z " fill="#DDDDDE" transform="translate(71.7373046875,20.619049072265625)"/>
<path d="M0 0 C1.66012758 -0.00346318 3.32025285 -0.00823216 4.98037338 -0.01418173 C9.50940007 -0.02663069 14.03823554 -0.02054935 18.56726265 -0.01122308 C23.46441018 -0.00440775 28.36152588 -0.01492608 33.25866699 -0.02316284 C42.83919882 -0.03647594 52.41965999 -0.03363324 62.00019455 -0.02492492 C69.78915739 -0.01813923 77.57810048 -0.01723548 85.36706543 -0.02049637 C86.47724588 -0.02095607 87.58742633 -0.02141577 88.73124862 -0.0218894 C90.98682817 -0.02284861 93.24240773 -0.02382125 95.49798727 -0.02480717 C116.62958279 -0.03335397 137.76113922 -0.02353808 158.89272833 -0.00740607 C177.00955981 0.00599646 195.12633362 0.00366816 213.24316406 -0.01016235 C234.30112278 -0.02623071 255.35904727 -0.03253006 276.41701126 -0.02332556 C278.6641159 -0.02236995 280.91122055 -0.02142684 283.1583252 -0.02049637 C284.81658754 -0.01980213 284.81658754 -0.01980213 286.50835013 -0.01909386 C294.28450581 -0.01650775 302.06063969 -0.02086681 309.83679199 -0.02793503 C319.31825733 -0.03636417 328.79964819 -0.03404015 338.28110504 -0.0180928 C343.11513364 -0.01022914 347.94903823 -0.00708592 352.7830658 -0.01704025 C357.21445992 -0.02602721 361.64561595 -0.02098885 366.0769887 -0.0051076 C367.67372291 -0.00177666 369.27047755 -0.00341551 370.86719847 -0.01073496 C390.48933835 -0.09373247 407.72465162 4.45183053 422.26269531 18.38095093 C435.84266157 32.55457691 440.73808153 49.21403416 440.65037537 68.4283905 C440.65455514 69.92933778 440.66003618 71.4302819 440.66669518 72.93122023 C440.6810843 77.02957543 440.67692563 81.12772841 440.66952837 85.22609437 C440.66478269 89.65635865 440.67731894 94.08658007 440.68754578 98.51683044 C440.7047122 107.18623127 440.7055782 115.85555955 440.70033287 124.52497295 C440.69628564 131.57456003 440.6977413 138.62412572 440.70308113 145.67371178 C440.70382955 146.67841076 440.70457798 147.68310974 440.70534908 148.71825415 C440.70688061 150.75954504 440.70841896 152.80083593 440.70996404 154.84212681 C440.72368148 173.97079197 440.71825689 193.09941619 440.70677883 212.22808041 C440.69684899 229.70991798 440.70978419 247.19164966 440.73371302 264.67347089 C440.75812372 282.64335494 440.76770694 300.61318972 440.7610603 318.58309001 C440.75757224 328.66396869 440.75977276 338.74476599 440.77731133 348.8256321 C440.79205801 357.40792879 440.79263663 365.99008678 440.77524041 374.57238082 C440.76674802 378.94682912 440.76453753 383.32102991 440.77989197 387.69546509 C440.79380203 391.70825386 440.78889564 395.72058456 440.76965273 399.73334726 C440.76591163 401.17672911 440.76875953 402.62014822 440.77926438 404.06349669 C440.90423212 422.56510571 435.1958878 438.92520521 422.26269531 452.38095093 C406.10363453 466.52585116 389.50112565 470.85805564 368.52539062 470.76190186 C366.86526305 470.76536504 365.20513777 470.77013401 363.54501724 470.77608359 C359.01599055 470.78853254 354.48715508 470.78245121 349.95812798 470.77312493 C345.06098045 470.76630961 340.16386474 470.77682794 335.26672363 470.7850647 C325.6861918 470.7983778 316.10573063 470.7955351 306.52519608 470.78682677 C298.73623324 470.78004109 290.94729015 470.77913733 283.1583252 470.78239822 C282.04814474 470.78285792 280.93796429 470.78331762 279.79414201 470.78379125 C277.53856245 470.78475046 275.2829829 470.78572311 273.02740335 470.78670903 C251.89580783 470.79525582 230.76425141 470.78543993 209.6326623 470.76930793 C191.51583081 470.7559054 173.39905701 470.75823369 155.28222656 470.77206421 C134.22426784 470.78813256 113.16634336 470.79443192 92.10837936 470.78522742 C89.86127472 470.78427181 87.61417008 470.7833287 85.36706543 470.78239822 C84.2615572 470.7819354 83.15604897 470.78147257 82.01704049 470.78099572 C74.24088482 470.7784096 66.46475093 470.78276867 58.68859863 470.78983688 C49.20713329 470.79826603 39.72574243 470.79594201 30.24428558 470.77999465 C25.41025699 470.77213099 20.5763524 470.76898777 15.74232483 470.77894211 C11.3109307 470.78792907 6.87977468 470.78289071 2.44840193 470.76700945 C0.85166771 470.76367851 -0.74508693 470.76531737 -2.34180784 470.77263682 C-21.96394773 470.85563432 -39.199261 466.31007132 -53.73730469 452.38095093 C-67.31727094 438.20732495 -72.2126909 421.5478677 -72.12498474 402.33351135 C-72.12916452 400.83256407 -72.13464555 399.33161995 -72.14130455 397.83068162 C-72.15569367 393.73232643 -72.15153501 389.63417345 -72.14413774 385.53580749 C-72.13939206 381.1055432 -72.15192831 376.67532179 -72.16215515 372.24507141 C-72.17932157 363.57567058 -72.18018758 354.90634231 -72.17494225 346.2369289 C-72.17089501 339.18734183 -72.17235068 332.13777614 -72.17769051 325.08819008 C-72.17843893 324.0834911 -72.17918735 323.07879212 -72.17995845 322.04364771 C-72.18148999 320.00235682 -72.18302834 317.96106593 -72.18457342 315.91977505 C-72.19829086 296.79110989 -72.19286626 277.66248566 -72.18138821 258.53382144 C-72.17145836 241.05198388 -72.18439356 223.5702522 -72.2083224 206.08843096 C-72.23273309 188.11854692 -72.24231632 170.14871214 -72.23566967 152.17881185 C-72.23218161 142.09793316 -72.23438214 132.01713587 -72.2519207 121.93626976 C-72.26666739 113.35397307 -72.267246 104.77181508 -72.24984979 96.18952104 C-72.2413574 91.81507274 -72.2391469 87.44087194 -72.25450134 83.06643677 C-72.2684114 79.053648 -72.26350502 75.04131729 -72.24426211 71.0285546 C-72.24052101 69.58517275 -72.24336891 68.14175364 -72.25387376 66.69840517 C-72.3788415 48.19679614 -66.67049717 31.83669665 -53.73730469 18.38095093 C-37.5782439 4.23605069 -20.97573502 -0.09615378 0 0 Z M-28.73730469 107.38095093 C-28.81980469 157.56157593 -28.90230469 207.74220093 -28.98730469 259.44345093 C-29.0237207 275.30286743 -29.06013672 291.16228394 -29.09765625 307.50228882 C-29.1110319 321.68733804 -29.1110319 321.68733804 -29.11907959 335.87239075 C-29.12281438 342.20297668 -29.13750656 348.5334219 -29.15960693 354.8639679 C-29.18505139 362.1631877 -29.19665245 369.46227224 -29.19108449 376.76153674 C-29.1886726 380.49623348 -29.19252203 384.23062781 -29.21416521 387.96526921 C-29.23719689 391.96377883 -29.22928942 395.96162911 -29.21832275 399.96018982 C-29.22997341 401.12620444 -29.24162407 402.29221907 -29.25362778 403.49356747 C-29.19750641 411.08148882 -28.18845296 415.57465093 -22.99121094 421.30673218 C-22.43304688 421.76434937 -21.87488281 422.22196655 -21.29980469 422.69345093 C-20.74421875 423.16395874 -20.18863281 423.63446655 -19.61621094 424.11923218 C-15.1703895 427.10467984 -11.28958644 427.63195039 -5.99116802 427.63821983 C-4.9882805 427.64347895 -4.9882805 427.64347895 -3.96513262 427.6488443 C-1.72070607 427.65816163 0.52346119 427.6532342 2.76789856 427.64837646 C4.39168579 427.65211256 6.01547122 427.65671392 7.6392538 427.66210711 C12.1047528 427.67435756 16.57017701 427.67407424 21.035689 427.67171836 C25.85039849 427.67131071 30.66508383 427.68234438 35.4797821 427.6918335 C44.9139962 427.70845565 54.3481853 427.71394359 63.7824128 427.71505825 C71.45004017 427.71600815 79.11765929 427.7201155 86.78528404 427.7264595 C108.51820838 427.74407519 130.25111295 427.75329786 151.98404447 427.75179856 C153.15599192 427.75171864 154.32793938 427.75163873 155.53540039 427.7515564 C157.29546473 427.75143375 157.29546473 427.75143375 159.09108593 427.75130863 C178.1099184 427.75049563 197.12867168 427.76963612 216.14748124 427.79783313 C235.66977805 427.82654852 255.19203622 427.84037417 274.71435469 427.83864558 C285.67709965 427.83798121 296.63976161 427.84349383 307.60248756 427.86500168 C316.93607791 427.88319576 326.26954763 427.88757539 335.60314802 427.87398283 C340.36565998 427.86744425 345.12794039 427.86736809 349.89043045 427.88468933 C354.25100479 427.90038575 358.61116334 427.89759164 362.97172733 427.88012107 C364.54842764 427.87704359 366.12515871 427.88071168 367.70182274 427.89184122 C376.83849821 427.95206 384.0504242 427.87879878 391.28613281 421.63485718 C391.73214844 421.07669312 392.17816406 420.51852905 392.63769531 419.94345093 C393.09917969 419.38786499 393.56066406 418.83227905 394.03613281 418.25985718 C396.63598975 414.27727378 397.51268399 410.74220863 397.50879097 406.01803112 C397.51277271 404.94878965 397.51675446 403.87954819 397.52085686 402.77790546 C397.51503153 401.60995536 397.5092062 400.44200525 397.50320435 399.23866272 C397.50491638 397.9959964 397.50662842 396.75333008 397.50839233 395.4730072 C397.51112766 392.01957474 397.50485159 388.56636852 397.49484077 385.1129633 C397.48611138 381.33331675 397.48902974 377.55367598 397.49047661 373.7740221 C397.49154024 366.43606511 397.48230251 359.09815704 397.46947395 351.76021262 C397.45508003 343.27298806 397.45348479 334.78579293 397.4519043 326.29855347 C397.44140147 303.88851153 397.41347928 281.4784805 397.38769531 259.06845093 C397.34644531 209.01157593 397.30519531 158.95470093 397.26269531 107.38095093 C256.68269531 107.38095093 116.10269531 107.38095093 -28.73730469 107.38095093 Z " fill="#607D8B" transform="translate(71.7373046875,20.619049072265625)"/>
<path d="M0 0 C70.29 0 140.58 0 213 0 C213.1613254 75.9663366 213.1613254 75.9663366 213.1953125 107.671875 C213.20314398 114.92903682 213.21122591 122.1861983 213.21972656 129.44335938 C213.22078156 130.35292562 213.22183655 131.26249187 213.22292352 132.19962072 C213.24032049 146.88365431 213.27185562 161.56762523 213.30861118 176.25162166 C213.34601804 191.32150176 213.36823531 206.39134905 213.37635398 221.46127367 C213.38184228 230.76015372 213.39917626 240.05885673 213.43166587 249.35768229 C213.45281059 255.73434303 213.45920014 262.11091226 213.45400551 268.48760551 C213.45144365 272.16660211 213.4553692 275.84528937 213.4768219 279.52423096 C213.49992463 283.51533875 213.49194596 287.50578872 213.48101807 291.49694824 C213.49266943 292.65649379 213.5043208 293.81603934 213.51632524 295.01072264 C213.45964683 302.66027565 212.39530017 308.06540159 207.25390625 314.0234375 C206.69574219 314.46945312 206.13757813 314.91546875 205.5625 315.375 C205.00691406 315.83648437 204.45132813 316.29796875 203.87890625 316.7734375 C199.03665084 319.93449404 194.58215895 320.28437728 188.91984558 320.24050903 C187.70674767 320.24307231 187.70674767 320.24307231 186.46914274 320.24568737 C183.76213427 320.24897881 181.05537426 320.23798426 178.34838867 320.22705078 C176.4067892 320.22648659 174.46518931 320.22680338 172.52359009 320.22793579 C167.25335575 320.22851001 161.98321231 320.21674451 156.71299911 320.20278788 C151.20501779 320.19029202 145.69703444 320.18911092 140.18904114 320.18673706 C129.75918517 320.18051893 119.32937109 320.16410359 108.89953357 320.14403808 C94.80547307 320.11751126 80.71140113 320.10670913 66.61732197 320.09503365 C44.4115166 320.07622325 22.20579963 320.03637976 0 320 C0 290.96 0 261.92 0 232 C3.3 232.66 6.6 233.32 10 234 C13.25117329 234.197938 16.41578942 234.32712227 19.6640625 234.3359375 C20.54097748 234.3425943 21.41789246 234.3492511 22.32138062 234.35610962 C24.15824307 234.36615069 25.99514138 234.37092932 27.83203125 234.37060547 C30.62561032 234.37500096 33.41763444 234.41147141 36.2109375 234.44921875 C38.00780717 234.45508453 39.80468424 234.45905552 41.6015625 234.4609375 C42.42572662 234.47530853 43.24989075 234.48967957 44.09902954 234.50448608 C49.79091378 234.46003813 54.2930379 233.31033685 59 230 C62.6417905 225.85233779 63.65750488 221.68268483 63.38671875 216.2109375 C62.54955474 211.42472707 60.42739751 208.07054814 56.5 205.125 C51.57537708 202.90891969 46.92772084 202.82517266 41.5859375 202.75390625 C39.92186925 202.72099277 38.25780687 202.68778074 36.59375 202.65429688 C33.97562376 202.60673491 31.35752552 202.5622394 28.73925781 202.52319336 C26.20874479 202.48360965 23.67869659 202.43206295 21.1484375 202.37890625 C20.36197845 202.3704921 19.57551941 202.36207794 18.76522827 202.35340881 C13.22674864 202.22674864 13.22674864 202.22674864 11 200 C10.8046875 196.9609375 10.8046875 196.9609375 10.875 193.375 C10.89304687 192.18648437 10.91109375 190.99796875 10.9296875 189.7734375 C10.95289063 188.85820312 10.97609375 187.94296875 11 187 C12.16982422 186.9906543 13.33964844 186.98130859 14.54492188 186.97167969 C18.913789 186.93159938 23.28196523 186.86579141 27.65039062 186.79248047 C29.53571654 186.76437503 31.42115799 186.74310894 33.30664062 186.72900391 C36.027941 186.70742911 38.74786731 186.66070651 41.46875 186.609375 C42.30241089 186.60814636 43.13607178 186.60691772 43.99499512 186.60565186 C49.7008259 186.4650526 54.27477121 185.31767314 59 182 C62.6590165 177.83206046 63.66332486 173.63866729 63.3828125 168.140625 C62.54802101 163.4726073 59.98545563 160.82712285 56.46240234 157.87011719 C51.91382858 155.4133357 48.31565216 155.3976684 43.2265625 155.390625 C42.3028183 155.37408875 41.3790741 155.35755249 40.42733765 155.34051514 C37.4931567 155.29214764 34.55949362 155.27068917 31.625 155.25 C29.62888035 155.22183091 27.63278471 155.19190218 25.63671875 155.16015625 C20.75785515 155.08639161 15.87927714 155.03674822 11 155 C10.94615479 152.70858714 10.90727913 150.41681812 10.875 148.125 C10.85179687 146.84882813 10.82859375 145.57265625 10.8046875 144.2578125 C11 141 11 141 13 139 C15.84461097 138.81487572 18.60033832 138.74733462 21.4453125 138.76171875 C23.17969522 138.74628771 24.91407036 138.72998326 26.6484375 138.71289062 C29.38037876 138.69649506 32.11176403 138.68746553 34.84375 138.69458008 C37.48240595 138.69721682 40.11938198 138.66894813 42.7578125 138.63671875 C43.966082 138.65202888 43.966082 138.65202888 45.19876099 138.66764832 C51.21614267 138.56508865 55.34874975 136.84617058 60 133 C62.98224098 128.89941865 63.53929233 125.13332319 63.34765625 120.17578125 C62.59930951 115.49230786 59.98668744 112.84485052 56.50170898 109.86083984 C51.75325202 107.33746684 47.8921121 107.4592456 42.59765625 107.5390625 C41.60172958 107.53997894 40.60580292 107.54089539 39.57969666 107.5418396 C37.47927061 107.54786541 35.37885275 107.56358059 33.27856445 107.58837891 C30.07666066 107.62483875 26.87591772 107.62939824 23.67382812 107.62890625 C21.62759424 107.6387404 19.58136814 107.65039869 17.53515625 107.6640625 C16.58391373 107.66628815 15.6326712 107.66851379 14.65260315 107.67080688 C13.30101357 107.68994644 13.30101357 107.68994644 11.92211914 107.70947266 C11.13857559 107.71709625 10.35503204 107.72471985 9.54774475 107.73257446 C6.20380715 108.00937022 6.20380715 108.00937022 0 110 C0 73.7 0 37.4 0 0 Z " fill="#FEFEFE" transform="translate(256,128)"/>
<path d="M0 0 C1.98218778 0.00084773 3.96437649 0.00036828 5.94656372 -0.00132751 C11.29074877 -0.00218318 16.63472907 0.01537274 21.97886682 0.03639436 C27.57754984 0.05523308 33.17623829 0.05691725 38.77494812 0.06047058 C49.36039275 0.06976999 59.94574368 0.09435515 70.53114718 0.12451905 C84.84685916 0.16442143 99.16259702 0.18053495 113.47835064 0.1980257 C136.00996986 0.22617785 158.54139143 0.28596145 181.07299805 0.34057617 C181.07299805 35.65057617 181.07299805 70.96057617 181.07299805 107.34057617 C110.78299805 107.34057617 40.49299805 107.34057617 -31.92700195 107.34057617 C-31.86568162 161.3787113 -31.86568162 161.3787113 -31.7668457 215.41674805 C-31.75075325 222.69986915 -31.73490974 229.98299073 -31.71948242 237.26611328 C-31.71656651 238.63535667 -31.71656651 238.63535667 -31.71359169 240.03226155 C-31.68256552 254.7718894 -31.66559494 269.51150168 -31.65380773 284.25115604 C-31.64139959 299.37645028 -31.61390581 314.50166275 -31.57238889 329.62690538 C-31.54724383 338.96106078 -31.53388541 348.29508061 -31.53557238 357.62927037 C-31.53560212 364.02886186 -31.52098717 370.42831519 -31.49483767 376.82785285 C-31.48018049 380.52086736 -31.47199823 384.21359852 -31.48119926 387.90663719 C-31.49100789 391.91129991 -31.46998739 395.91521249 -31.44598389 399.91981506 C-31.4537443 401.0861644 -31.46150472 402.25251374 -31.4695003 403.454207 C-31.39059468 410.87340033 -30.44979912 415.40333228 -25.3996582 421.04760742 C-19.60501406 425.59022319 -15.11087278 426.63773903 -7.84684753 426.61904907 C-6.63374963 426.62773768 -6.63374963 426.62773768 -5.39614469 426.63660181 C-2.68918613 426.65359233 0.01760183 426.65647749 2.72460938 426.65942383 C4.66621315 426.66872265 6.60781293 426.67889126 8.54940796 426.68986511 C13.81959647 426.71718426 19.08975821 426.73232024 24.35999894 426.74529314 C29.86801618 426.76091526 35.37597871 426.78770842 40.88395691 426.81332397 C51.3137722 426.86012801 61.74359777 426.89686428 72.17346448 426.92999685 C84.04763258 426.96820673 95.92174575 427.01761988 107.79586756 427.067981 C132.22154224 427.17132506 156.64723997 427.25909846 181.07299805 427.34057617 C181.07299805 441.53057617 181.07299805 455.72057617 181.07299805 470.34057617 C155.09036981 470.40837417 129.10781353 470.46360515 103.12511921 470.49601269 C91.06010578 470.511462 78.99515134 470.53251448 66.93017578 470.56689453 C56.41070759 470.59685618 45.89128214 470.61616524 35.37177247 470.62284166 C29.80508424 470.62674245 24.23851823 470.63586946 18.67186928 470.65776634 C13.42456367 470.67823842 8.1774298 470.6843884 2.93008804 470.67989922 C1.01175819 470.68071964 -0.90657784 470.68662102 -2.82487297 470.6981926 C-23.50739444 470.81675816 -41.36858845 467.24732838 -56.92700195 452.34057617 C-70.50696821 438.16695019 -75.40238817 421.50749294 -75.31468201 402.2931366 C-75.31886178 400.79218931 -75.32434282 399.2912452 -75.33100182 397.79030687 C-75.34539094 393.69195167 -75.34123227 389.59379869 -75.33383501 385.49543273 C-75.32908933 381.06516845 -75.34162558 376.63494703 -75.35185242 372.20469666 C-75.36901884 363.53529583 -75.36988484 354.86596755 -75.36463951 346.19655415 C-75.36059228 339.14696707 -75.36204794 332.09740138 -75.36738777 325.04781532 C-75.36813619 324.04311634 -75.36888462 323.03841736 -75.36965572 322.00327295 C-75.37118725 319.96198206 -75.3727256 317.92069117 -75.37427069 315.87940029 C-75.38798812 296.75073513 -75.38256353 277.62211091 -75.37108547 258.49344669 C-75.36115563 241.01160912 -75.37409083 223.52987744 -75.39801966 206.04805621 C-75.42243036 188.07817216 -75.43201358 170.10833738 -75.42536694 152.13843709 C-75.42187888 142.05755841 -75.4240794 131.97676111 -75.44161797 121.895895 C-75.45636465 113.31359831 -75.45694327 104.73144032 -75.43954705 96.14914628 C-75.43105466 91.77469798 -75.42884417 87.40049719 -75.44419861 83.02606201 C-75.45810867 79.01327324 -75.45320228 75.00094254 -75.43395937 70.98817984 C-75.43021827 69.54479799 -75.43306617 68.10137888 -75.44357102 66.65803041 C-75.56853877 48.15642139 -69.86019444 31.79632189 -56.92700195 18.34057617 C-39.59693706 3.17063268 -22.22971938 -0.13409454 0 0 Z " fill="#546D79" transform="translate(74.927001953125,20.659423828125)"/>
<path d="M0 0 C6.59461537 3.29730768 9.98795324 8.69392122 13.4609375 15.0078125 C14.41613281 16.73644531 14.41613281 16.73644531 15.390625 18.5 C16.05217854 19.70828121 16.71363647 20.91661477 17.375 22.125 C18.02821732 23.31013212 18.6818601 24.49502984 19.3359375 25.6796875 C23.24814576 32.77318722 27.12662759 39.88523599 31 47 C31.0093457 45.97640381 31.01869141 44.95280762 31.02832031 43.89819336 C31.06840168 40.07533353 31.13420892 36.25326322 31.20751953 32.4309082 C31.23562456 30.78127234 31.25689091 29.13150442 31.27099609 27.48168945 C31.29257233 25.10039175 31.33929245 22.72066412 31.390625 20.33984375 C31.39246796 19.24566383 31.39246796 19.24566383 31.39434814 18.12937927 C31.54708669 12.70571765 32.943473 9.49598694 36 5 C40.8987134 0.56783074 43.91354476 -0.36151241 50.39453125 -0.27734375 C55.58086836 0.27472512 58.73891446 2.54362021 62.16296387 6.4979248 C64.653743 11.24627769 64.56171077 15.12373035 64.51757812 20.40820312 C64.5245874 21.44307358 64.53159668 22.47794403 64.53881836 23.54417419 C64.55638897 26.95680768 64.54477829 30.36860843 64.53125 33.78125 C64.53394517 36.15726887 64.53782779 38.53328666 64.54284668 40.90930176 C64.54874049 45.88576777 64.54018215 50.86194634 64.52148438 55.83837891 C64.49869537 62.21411266 64.51181901 68.58917285 64.53577423 74.9648819 C64.55023508 79.87027045 64.54562479 84.77549957 64.53526306 89.68089294 C64.53259659 92.03161194 64.53586269 94.38234545 64.54518127 96.73304749 C64.5553511 100.01968677 64.5398383 103.30523849 64.51757812 106.59179688 C64.52567505 107.56132797 64.53377197 108.53085907 64.54211426 109.5297699 C64.4710718 115.19772133 63.81999403 118.52255762 60 123 C55.60116832 126.96967737 52.19124305 128.45323789 46.17016602 128.33178711 C41.34958667 127.59479 37.38708458 124.78379379 34.42504883 120.97460938 C32.92800589 118.54946724 31.57395676 116.08626346 30.25 113.5625 C29.75338867 112.65540283 29.25677734 111.74830566 28.74511719 110.8137207 C27.69370856 108.88806085 26.65125879 106.95748614 25.6171875 105.02246094 C23.95298352 101.91212801 22.26149981 98.81801181 20.5625 95.7265625 C17.68957293 90.49444649 14.83745816 85.25142644 12 80 C11.9906543 81.05388916 11.98130859 82.10777832 11.97167969 83.19360352 C11.93160911 87.1282679 11.86580448 91.06216434 11.79248047 94.99633789 C11.76436929 96.69447922 11.74310598 98.39274901 11.72900391 100.09106445 C11.70743648 102.54184257 11.66071994 104.99109236 11.609375 107.44140625 C11.60753204 108.56839684 11.60753204 108.56839684 11.60565186 109.71815491 C11.45533754 115.20835085 10.13422574 118.46816544 7 123 C1.73554494 127.08263862 -2.32126227 128.65692502 -9 128 C-14.20955662 125.83259118 -17.37356371 123.12325711 -20.1416626 118.13144112 C-21.77001139 114.08789185 -21.55436698 109.96568112 -21.51757812 105.66186523 C-21.52809204 104.13860123 -21.52809204 104.13860123 -21.53881836 102.58456421 C-21.55636152 99.24229237 -21.54478901 95.90087355 -21.53125 92.55859375 C-21.53394575 90.22884458 -21.53782886 87.89909652 -21.54284668 85.5693512 C-21.54873659 80.69301615 -21.54019397 75.81697469 -21.52148438 70.94067383 C-21.49868288 64.69387954 -21.51182933 58.44777224 -21.53577423 52.20100307 C-21.55023483 47.39255098 -21.54562513 42.58426153 -21.53526306 37.77580452 C-21.53259718 35.47253399 -21.53586062 33.16924863 -21.54518127 30.86599541 C-21.55535215 27.64651285 -21.53983757 24.42814023 -21.51757812 21.20874023 C-21.52567505 20.25948166 -21.53377197 19.31022308 -21.54211426 18.3321991 C-21.47025427 12.71544244 -20.77629426 9.44019482 -17 5 C-11.37343316 0.04326255 -7.41017624 -0.82081952 0 0 Z " fill="#2296F2" transform="translate(149,235)"/>
<path d="M0 0 C0.90136185 -0.01283524 1.80272369 -0.02567047 2.73139954 -0.03889465 C4.18923103 -0.04997505 4.18923103 -0.04997505 5.67651367 -0.0612793 C7.18032845 -0.07338692 7.18032845 -0.07338692 8.71452332 -0.08573914 C10.83700841 -0.09957168 12.95951566 -0.11029754 15.08203125 -0.11816406 C18.32163803 -0.13537667 21.56022418 -0.1792708 24.79956055 -0.22338867 C26.86270409 -0.23351592 28.9258563 -0.24203192 30.98901367 -0.2487793 C31.95482864 -0.26628738 32.92064362 -0.28379547 33.91572571 -0.30183411 C39.64667119 -0.28342619 43.01419851 0.29200066 47.53198242 4.17700195 C51.61249589 8.80893615 52.96020541 11.62961555 52.87182617 17.7277832 C52.29110209 21.91300155 50.46444017 25.16720466 47.53198242 28.17700195 C41.9896817 31.96898521 37.99259742 32.76679245 31.35229492 32.7512207 C30.49892548 32.76538528 29.64555603 32.77954987 28.7663269 32.79414368 C26.06308089 32.83580949 23.36050344 32.8512494 20.65698242 32.86450195 C17.93234642 32.89354362 15.20787912 32.92800304 12.48336792 32.96699524 C10.79295514 32.98951948 9.1024371 33.00531642 7.41189575 33.01383972 C3.6667242 32.68634666 3.6667242 32.68634666 0.53198242 34.17700195 C0.29670469 36.52687457 0.11811825 38.88256234 -0.03051758 41.23950195 C-0.11430664 42.52985352 -0.1980957 43.82020508 -0.28442383 45.1496582 C-0.37530273 46.64819336 -0.37530273 46.64819336 -0.46801758 48.17700195 C1.39330811 48.14558105 1.39330811 48.14558105 3.29223633 48.11352539 C7.91028231 48.04094825 12.52827819 47.99513775 17.14672852 47.95727539 C19.1429086 47.93720026 21.13903017 47.90993406 23.13500977 47.87524414 C26.00966862 47.82654539 28.88354782 47.80399209 31.75854492 47.78637695 C33.09014145 47.75540924 33.09014145 47.75540924 34.44863892 47.72381592 C39.99388171 47.72182245 43.13898267 48.46720721 47.53198242 52.17700195 C51.66702503 56.8708341 52.89844319 59.63521355 52.80932617 65.79418945 C52.34162409 69.81247494 50.96117212 71.91677367 48.53198242 75.17700195 C44.3009891 78.45818045 40.88415147 80.30745044 35.51953125 80.29052734 C34.71892776 80.29045181 33.91832428 80.29037628 33.09346008 80.29029846 C32.23399277 80.28513718 31.37452545 80.27997589 30.48901367 80.2746582 C29.60541672 80.27324326 28.72181976 80.27182831 27.81144714 80.27037048 C24.98909114 80.26477264 22.16681445 80.25222057 19.34448242 80.23950195 C17.43107211 80.23448667 15.51766055 80.22992381 13.60424805 80.22583008 C8.91346228 80.21480392 4.2227358 80.19754079 -0.46801758 80.17700195 C-0.32772339 82.32320455 -0.18063594 84.46896413 -0.03051758 86.61450195 C0.05069336 87.80946289 0.1319043 89.00442383 0.21557617 90.2355957 C0.20854356 93.06270439 0.20854356 93.06270439 1.53198242 94.17700195 C4.18728527 94.30021167 6.82056513 94.36314089 9.47729492 94.38793945 C11.12834613 94.41603003 12.77938765 94.44469462 14.43041992 94.47387695 C17.03718571 94.51499004 19.64377496 94.55186769 22.25073242 94.57836914 C24.7641367 94.60614686 27.27671401 94.65204179 29.78979492 94.70043945 C30.5598587 94.70369232 31.32992249 94.70694519 32.12332153 94.71029663 C38.62481144 94.85643646 43.31471296 96.25536842 48.34448242 100.61450195 C52.06921804 104.97776368 52.99343867 108.20416444 52.84448242 113.86450195 C52.13670645 119.10204413 49.64586317 122.31317607 45.46948242 125.55200195 C40.50778215 128.29677232 36.23252701 128.36677467 30.69213867 128.4152832 C29.81480576 128.42335495 28.93747284 128.4314267 28.03355408 128.43974304 C26.17164073 128.45357932 24.30970206 128.46430352 22.44775391 128.47216797 C20.56160951 128.48362653 18.67549595 128.50397985 16.78955078 128.53369141 C2.30656247 128.76175993 -9.82324551 128.30760294 -21.27661133 118.38012695 C-31.60121958 108.0003069 -32.95695081 96.4855312 -33.00708008 82.4777832 C-33.01929159 80.95476567 -33.0317785 79.43175033 -33.04452515 77.90873718 C-33.06690279 74.72572472 -33.07654442 71.54294991 -33.07885742 68.35986328 C-33.08412566 64.31942893 -33.13540318 60.2810223 -33.19837379 56.24113178 C-33.2396332 53.096538 -33.24850253 49.95241703 -33.24897385 46.80757713 C-33.25429148 45.32024767 -33.27085852 43.83290689 -33.29982376 42.34584999 C-33.5235322 29.81437047 -30.65764619 19.75529974 -22.21801758 10.17700195 C-16.22488644 4.81042544 -8.14712177 0.10121066 0 0 Z " fill="#1F84D4" transform="translate(267.468017578125,234.822998046875)"/>
<path d="M0 0 C0.81970779 -0.0065712 1.63941559 -0.0131424 2.48396301 -0.01991272 C5.20382779 -0.03966526 7.92363727 -0.05131337 10.64355469 -0.0612793 C11.57199944 -0.06535482 12.50044418 -0.06943035 13.45702362 -0.07362938 C18.37222573 -0.09449963 23.28739986 -0.10879655 28.20263672 -0.11816406 C33.2780873 -0.12922346 38.35309885 -0.16361519 43.42839432 -0.20333576 C47.33179536 -0.22949263 51.23509172 -0.23785513 55.13857269 -0.24144554 C57.00925406 -0.24631483 58.87993065 -0.25793855 60.75052643 -0.27648354 C63.37179728 -0.30085276 65.99193161 -0.29991405 68.61328125 -0.29296875 C69.76842979 -0.31218384 69.76842979 -0.31218384 70.94691467 -0.33178711 C76.14635226 -0.28168177 79.05641814 0.90593753 83.06542969 4.17700195 C87.14594315 8.80893615 88.49365268 11.62961555 88.40527344 17.7277832 C87.82454936 21.91300155 85.99788744 25.16720466 83.06542969 28.17700195 C76.66035088 32.97285981 70.9295608 32.65763573 63.12792969 32.42700195 C61.96712891 32.40895508 60.80632812 32.3909082 59.61035156 32.37231445 C56.76118221 32.32541455 53.91374438 32.25979254 51.06542969 32.17700195 C51.07431213 33.19906738 51.08319458 34.22113281 51.09234619 35.27416992 C51.17357686 44.92540596 51.2334645 54.57657227 51.27267838 64.22807312 C51.29351672 69.18954767 51.32176564 74.15074533 51.3671875 79.11206055 C51.41077931 83.90369371 51.43459501 88.69506122 51.44493866 93.48687744 C51.45230614 95.31126077 51.46669308 97.13563024 51.48834991 98.9598999 C51.5175617 101.52346754 51.52137836 104.08594982 51.51953125 106.6496582 C51.53391235 107.39700729 51.54829346 108.14435638 51.56311035 108.91435242 C51.52091826 114.35748051 50.16327588 118.66107361 47.06542969 123.17700195 C41.79963186 127.36814716 37.7666004 128.63131861 31.06542969 128.17700195 C25.27254869 126.09156479 21.7486928 122.44865054 18.93899536 116.98762512 C17.8027481 113.3318463 17.80200532 109.86977482 17.83837891 106.08203125 C17.83808685 105.28150833 17.8377948 104.48098541 17.8374939 103.65620422 C17.83888264 101.02109787 17.8544223 98.38627741 17.87011719 95.7512207 C17.87384894 93.91990819 17.87669515 92.08859367 17.87869263 90.25727844 C17.88631631 85.4453273 17.90595396 80.63349754 17.92810059 75.82159424 C17.94858625 70.90817914 17.95770016 65.99474436 17.96777344 61.08129883 C17.98920103 51.44647997 18.02332173 41.81175107 18.06542969 32.17700195 C17.36981934 32.1927124 16.67420898 32.20842285 15.95751953 32.22460938 C12.78523998 32.28723059 9.61309083 32.32607872 6.44042969 32.36450195 C5.34601563 32.38963867 4.25160156 32.41477539 3.12402344 32.44067383 C-4.353494 32.50865126 -8.88254831 31.81283913 -14.68457031 26.80200195 C-17.83635315 23.12492197 -18.77696217 20.59547527 -19.30957031 15.80200195 C-18.71864198 10.08969476 -16.53547676 6.62544112 -12.30957031 2.80200195 C-8.1466331 -0.04632351 -4.92023238 0.0170009 0 0 Z " fill="#2597F2" transform="translate(359.9345703125,234.822998046875)"/>
<path d="M0 0 C28.05 0 56.1 0 85 0 C85.0825 8.62125 85.165 17.2425 85.25 26.125 C85.28641602 28.83734863 85.32283203 31.54969727 85.36035156 34.34423828 C85.37203805 36.50292164 85.38222997 38.66161383 85.390625 40.8203125 C85.41108887 41.93398193 85.43155273 43.04765137 85.45263672 44.19506836 C85.45545508 50.46452338 85.25000587 54.25736657 81 59 C76.60116832 62.96967737 73.19124305 64.45323789 67.17016602 64.33178711 C62.34958667 63.59479 58.38708458 60.78379379 55.42504883 56.97460938 C53.92800589 54.54946724 52.57395676 52.08626346 51.25 49.5625 C50.50508301 48.20185425 50.50508301 48.20185425 49.74511719 46.8137207 C48.69370856 44.88806085 47.65125879 42.95748614 46.6171875 41.02246094 C44.95298352 37.91212801 43.26149981 34.81801181 41.5625 31.7265625 C38.68957293 26.49444649 35.83745816 21.25142644 33 16 C32.9906543 17.05388916 32.98130859 18.10777832 32.97167969 19.19360352 C32.93160911 23.1282679 32.86580448 27.06216434 32.79248047 30.99633789 C32.76436929 32.69447922 32.74310598 34.39274901 32.72900391 36.09106445 C32.70743648 38.54184257 32.66071994 40.99109236 32.609375 43.44140625 C32.60753204 44.56839684 32.60753204 44.56839684 32.60565186 45.71815491 C32.45533754 51.20835085 31.13422574 54.46816544 28 59 C22.73554494 63.08263862 18.67873773 64.65692502 12 64 C6.87311735 61.86698726 3.58105308 59.16080144 0.85050964 54.2407074 C-0.89237269 49.64900245 -0.48183876 44.78632945 -0.390625 39.94140625 C-0.38659668 38.92622925 -0.38256836 37.91105225 -0.37841797 36.8651123 C-0.35759638 33.09738923 -0.30175129 29.32992518 -0.25 25.5625 C-0.1675 17.126875 -0.085 8.69125 0 0 Z " fill="#1D83D4" transform="translate(128,299)"/>
<path d="M0 0 C0.90136185 -0.01283524 1.80272369 -0.02567047 2.73139954 -0.03889465 C4.18923103 -0.04997505 4.18923103 -0.04997505 5.67651367 -0.0612793 C7.18032845 -0.07338692 7.18032845 -0.07338692 8.71452332 -0.08573914 C10.83700841 -0.09957168 12.95951566 -0.11029754 15.08203125 -0.11816406 C18.32163803 -0.13537667 21.56022418 -0.1792708 24.79956055 -0.22338867 C26.86270409 -0.23351592 28.9258563 -0.24203192 30.98901367 -0.2487793 C31.95482864 -0.26628738 32.92064362 -0.28379547 33.91572571 -0.30183411 C39.64667119 -0.28342619 43.01419851 0.29200066 47.53198242 4.17700195 C51.61249589 8.80893615 52.96020541 11.62961555 52.87182617 17.7277832 C52.29110209 21.91300155 50.46444017 25.16720466 47.53198242 28.17700195 C41.9896817 31.96898521 37.99259742 32.76679245 31.35229492 32.7512207 C30.49892548 32.76538528 29.64555603 32.77954987 28.7663269 32.79414368 C26.06308089 32.83580949 23.36050344 32.8512494 20.65698242 32.86450195 C17.93234642 32.89354362 15.20787912 32.92800304 12.48336792 32.96699524 C10.79295514 32.98951948 9.1024371 33.00531642 7.41189575 33.01383972 C3.6667242 32.68634666 3.6667242 32.68634666 0.53198242 34.17700195 C0.29670469 36.52687457 0.11811825 38.88256234 -0.03051758 41.23950195 C-0.11430664 42.52985352 -0.1980957 43.82020508 -0.28442383 45.1496582 C-0.37530273 46.64819336 -0.37530273 46.64819336 -0.46801758 48.17700195 C1.39330811 48.14558105 1.39330811 48.14558105 3.29223633 48.11352539 C7.91028231 48.04094825 12.52827819 47.99513775 17.14672852 47.95727539 C19.1429086 47.93720026 21.13903017 47.90993406 23.13500977 47.87524414 C26.00966862 47.82654539 28.88354782 47.80399209 31.75854492 47.78637695 C33.09014145 47.75540924 33.09014145 47.75540924 34.44863892 47.72381592 C40.00126077 47.72181979 43.11958153 48.48483686 47.53198242 52.17700195 C51.74987708 56.39489661 51.60417884 57.6823769 52.53198242 64.17700195 C24.48198242 64.17700195 -3.56801758 64.17700195 -32.46801758 64.17700195 C-32.46801758 22.79238657 -32.46801758 22.79238657 -22.21801758 10.17700195 C-16.22488644 4.81042544 -8.14712177 0.10121066 0 0 Z " fill="#2296F2" transform="translate(267.468017578125,234.822998046875)"/>
<path d="M0 0 C10.23 0 20.46 0 31 0 C31.09189302 7.58117422 31.17151794 15.16041154 31.21972656 22.74169922 C31.23982563 25.31989088 31.26710941 27.89803704 31.30175781 30.47607422 C31.35034847 34.18468461 31.37298658 37.89269156 31.390625 41.6015625 C31.41127014 42.75177887 31.43191528 43.90199524 31.45318604 45.08706665 C31.45494129 51.36542416 31.2859317 55.25884109 27 60 C23.43471636 62.74931151 19.81605438 63.90151068 15.375 64.4375 C10.05488529 63.7478555 6.64607032 61.99066694 3.1875 57.9375 C0.35247708 54.13046922 -0.12455657 52.56287409 -0.11352539 47.90771484 C-0.11344986 46.84676605 -0.11337433 45.78581726 -0.11329651 44.69271851 C-0.10813522 43.54373077 -0.10297394 42.39474304 -0.09765625 41.2109375 C-0.0962413 40.03737701 -0.09482635 38.86381653 -0.09336853 37.6546936 C-0.08775689 33.89477015 -0.07520238 30.13490555 -0.0625 26.375 C-0.0574865 23.83073002 -0.05292333 21.28645912 -0.04882812 18.7421875 C-0.03863322 12.49475057 -0.01905999 6.24744142 0 0 Z " fill="#1D83D4" transform="translate(379,299)"/>
<path d="M0 0 C5.00230198 2.45567552 8.49851535 5.9970307 11 11 C11.85895445 16.91451492 11.08033922 21.3682911 7.6171875 26.26953125 C3.92992877 30.21507622 -0.21868695 31.6761249 -5.4375 32.625 C-11.64701716 31.53561102 -16.35116262 28.2484146 -20.0625 23.1875 C-21.71064954 17.58379157 -22.0235815 13.04716299 -19.375 7.75 C-13.26806487 0.67881196 -9.53291368 -1.53435869 0 0 Z " fill="#2497F2" transform="translate(85,331)"/>
</svg>
