<?xml version="1.0" standalone="no"?>
<!DOCTYPE svg PUBLIC "-//W3C//DTD SVG 20010904//EN"
 "http://www.w3.org/TR/2001/REC-SVG-20010904/DTD/svg10.dtd">
<svg version="1.0" xmlns="http://www.w3.org/2000/svg"
 width="1200.000000pt" height="1237.000000pt" viewBox="0 0 1200.000000 1237.000000"
 preserveAspectRatio="xMidYMid meet">

<g transform="translate(0.000000,1237.000000) scale(0.100000,-0.100000)"
fill="#000000" stroke="none">
<path d="M8330 12360 c-345 -25 -742 -91 -1025 -171 l-110 -32 -155 22 c-543
75 -979 78 -1370 10 -274 -47 -515 -126 -767 -251 l-162 -80 -183 56 c-493
150 -977 244 -1427 277 -206 15 -641 7 -809 -15 -1164 -153 -1915 -807 -2191
-1911 -118 -469 -149 -1101 -81 -1615 88 -663 319 -1693 566 -2518 286 -956
599 -1695 924 -2182 427 -638 917 -896 1445 -760 104 27 279 113 378 185 l78
57 70 -67 c170 -159 392 -262 709 -325 201 -40 369 -54 579 -47 240 8 451 48
645 123 49 19 90 33 91 32 1 -2 8 -158 14 -348 22 -657 57 -1035 122 -1336 23
-110 120 -415 175 -551 147 -365 353 -611 634 -757 224 -116 377 -151 655
-150 199 1 278 10 505 60 359 79 656 198 867 347 171 121 360 322 476 507 297
469 469 1215 502 2175 3 94 11 220 17 280 l11 111 191 -4 c389 -8 852 64 1172
183 219 82 533 263 715 412 89 73 221 209 272 280 50 68 115 209 127 274 18
96 12 256 -13 330 -32 93 -83 172 -153 238 -105 99 -225 152 -386 172 -103 12
-222 2 -418 -35 -246 -47 -560 -83 -560 -64 0 4 46 88 101 185 368 645 708
1408 949 2131 451 1353 560 2489 300 3120 -54 133 -117 232 -240 379 -602 720
-1433 1150 -2430 1258 -173 19 -635 27 -810 15z m626 -330 c491 -39 891 -141
1281 -326 419 -198 807 -505 1093 -864 127 -160 190 -305 233 -542 20 -111 22
-154 22 -438 -1 -339 -9 -435 -65 -781 -199 -1209 -766 -2648 -1516 -3846 -63
-100 -114 -186 -114 -191 0 -5 26 -21 58 -35 214 -97 599 -95 1117 5 339 66
498 31 565 -124 77 -179 -75 -408 -426 -640 -268 -178 -505 -277 -809 -337
-242 -48 -405 -65 -645 -65 -210 0 -311 9 -430 39 -30 8 -56 12 -58 10 -2 -2
-8 -39 -13 -82 -82 -719 -185 -1514 -245 -1893 -90 -568 -216 -865 -471 -1111
-205 -197 -452 -320 -836 -414 -362 -89 -668 -92 -916 -9 -306 103 -537 316
-703 649 -111 222 -147 339 -182 600 -52 379 -86 1076 -86 1772 l0 353 -79
-64 c-200 -162 -449 -272 -726 -322 -136 -24 -446 -25 -600 -1 -319 49 -544
139 -672 267 -140 140 -143 311 -9 439 95 89 195 129 506 201 365 84 500 137
581 226 38 42 194 237 214 267 l16 25 -78 7 c-177 15 -379 69 -537 143 l-79
37 -51 -57 c-431 -473 -578 -640 -813 -918 -137 -163 -268 -295 -343 -346
-241 -166 -505 -188 -755 -64 -426 211 -833 863 -1224 1962 -326 917 -644
2201 -777 3143 -25 175 -27 216 -28 530 0 264 4 373 17 488 48 401 129 700
266 982 276 564 728 922 1371 1085 693 176 1635 92 2603 -230 l179 -59 96 58
c291 175 582 275 962 328 176 24 599 24 800 -1 166 -20 347 -50 437 -73 61
-15 62 -15 155 16 319 104 665 166 1143 204 99 8 454 6 571 -3z"/>
<path d="M8375 11684 c-22 -2 -92 -9 -155 -15 -124 -11 -332 -41 -417 -59
l-53 -12 153 -77 c738 -374 1355 -1009 1762 -1816 109 -216 190 -417 230 -571
21 -82 25 -118 25 -248 0 -191 -11 -312 -60 -656 -71 -491 -71 -594 -10 -1130
40 -348 54 -560 46 -715 -17 -329 -81 -581 -213 -837 l-55 -107 22 -30 c12
-17 25 -31 29 -31 9 0 139 212 267 435 126 219 396 755 506 1005 396 896 652
1759 759 2550 26 198 37 627 20 780 -16 135 -51 271 -90 348 -63 124 -311 392
-511 552 -423 338 -907 533 -1525 616 -104 14 -635 27 -730 18z"/>
<path d="M6015 11554 c-573 -58 -977 -242 -1331 -605 -419 -433 -697 -1101
-804 -1937 -11 -84 -20 -168 -20 -187 l0 -35 63 35 c81 44 256 119 378 161
407 140 783 156 1051 44 240 -99 407 -288 491 -555 45 -144 110 -499 143 -775
21 -187 30 -614 15 -776 -35 -375 -103 -622 -296 -1064 -88 -203 -239 -593
-258 -670 -4 -14 -13 -46 -21 -71 l-14 -45 82 4 c99 5 178 -13 293 -69 138
-66 262 -206 329 -369 52 -128 52 -142 47 -860 -11 -1289 44 -2163 153 -2429
81 -200 178 -354 288 -459 91 -86 168 -133 283 -171 181 -61 395 -62 653 -5
644 145 910 374 1050 905 50 192 112 601 214 1414 90 716 126 1058 136 1265 5
107 14 220 19 250 45 226 160 386 342 474 52 25 106 48 122 52 15 3 27 9 27
13 0 3 -48 67 -106 141 -152 194 -226 310 -320 504 -45 94 -144 281 -219 416
-533 959 -760 1598 -742 2090 18 497 289 799 802 896 83 16 148 19 377 19 273
0 278 0 272 20 -37 119 -178 418 -282 595 -367 627 -899 1142 -1483 1436 -348
174 -702 280 -1109 330 -119 14 -539 27 -625 18z"/>
<path d="M2530 11524 c-882 -78 -1438 -485 -1684 -1235 -52 -157 -98 -375
-123 -579 -25 -204 -25 -740 0 -920 80 -569 248 -1357 438 -2053 308 -1126
656 -1980 1007 -2471 128 -179 312 -341 433 -381 85 -28 187 -18 276 29 99 52
170 120 357 340 245 290 366 427 776 879 l45 50 -73 71 c-197 190 -354 441
-442 705 -98 291 -118 534 -75 891 44 360 59 711 45 1055 -27 653 -24 798 20
1150 112 884 407 1600 866 2103 49 53 71 84 62 87 -114 41 -496 142 -678 179
-380 76 -570 97 -920 101 -157 1 -305 1 -330 -1z"/>
<path d="M8985 8799 c-314 -45 -489 -172 -551 -400 -22 -82 -28 -231 -15 -349
49 -424 256 -941 691 -1725 74 -132 168 -312 211 -400 l77 -160 25 56 c93 206
136 505 117 820 -6 88 -23 276 -40 417 -65 560 -63 707 10 1214 32 224 63 506
56 515 -1 1 -48 7 -105 12 -119 13 -389 12 -476 0z m178 -165 c53 -18 87 -54
87 -93 0 -38 -52 -123 -101 -165 -118 -101 -258 -113 -383 -33 -58 37 -106 99
-106 138 0 58 86 120 210 153 76 20 234 20 293 0z"/>
<path d="M4775 8743 c-82 -11 -272 -59 -375 -95 -139 -48 -389 -170 -485 -236
-67 -47 -70 -50 -69 -88 0 -21 6 -174 14 -339 18 -415 5 -762 -42 -1140 -57
-456 6 -782 212 -1099 223 -343 575 -560 957 -592 74 -6 81 -5 86 12 68 236
181 542 294 799 104 234 146 343 188 480 141 465 139 1051 -6 1753 -48 232
-92 327 -195 421 -105 96 -221 131 -424 129 -69 0 -138 -3 -155 -5z m380 -199
c78 -20 171 -70 196 -105 46 -65 31 -127 -48 -199 -102 -95 -239 -121 -356
-67 -105 48 -217 179 -217 255 0 59 68 116 158 132 61 11 191 3 267 -16z"/>
<path d="M9546 4743 c-96 -30 -114 -40 -155 -82 -30 -29 -54 -65 -64 -95 -21
-60 -39 -197 -35 -256 3 -38 7 -47 32 -59 211 -100 840 -68 1243 64 182 60
465 218 588 329 36 32 37 36 15 31 -304 -59 -452 -76 -710 -82 -189 -4 -257
-2 -349 11 -171 26 -337 84 -426 151 l-30 22 -109 -34z"/>
<path d="M5459 4711 c-44 -24 -105 -91 -259 -281 -65 -80 -142 -168 -172 -197
-141 -133 -308 -202 -696 -288 -174 -38 -291 -71 -306 -86 -14 -12 123 -73
219 -98 175 -44 264 -55 460 -55 139 0 211 5 270 17 275 58 483 172 670 369
157 165 186 225 166 337 -22 118 -92 221 -183 267 -67 34 -124 39 -169 15z"/>
</g>
</svg>
