<?xml version="1.0" encoding="UTF-8"?>
<svg version="1.1" xmlns="http://www.w3.org/2000/svg" width="512" height="512">
<path d="M0 0 C168.96 0 337.92 0 512 0 C512 168.96 512 337.92 512 512 C343.04 512 174.08 512 0 512 C0 343.04 0 174.08 0 0 Z " fill="#5CA4DA" transform="translate(0,0)"/>
<path d="M0 0 C0.97582031 0.46148437 1.95164063 0.92296875 2.95703125 1.3984375 C23.58715406 12.27965355 37.77115576 32.84908564 50 52 C50.48243164 52.7429834 50.96486328 53.4859668 51.46191406 54.25146484 C51.92049805 54.96641113 52.37908203 55.68135742 52.8515625 56.41796875 C53.26486816 57.05887451 53.67817383 57.69978027 54.10400391 58.36010742 C55 60 55 60 55 62 C55.6077124 61.67314209 56.2154248 61.34628418 56.84155273 61.00952148 C82.08875581 47.48584776 82.08875581 47.48584776 95 43 C96.23387451 42.57050049 96.23387451 42.57050049 97.49267578 42.13232422 C115.41660888 36.10677531 135.20311214 33.10667071 152.91796875 41.359375 C164.25414539 48.30546602 170.67006063 56.46814429 174.38037109 69.27709961 C175.39462316 73.73413402 175.48870142 78.06929267 175.4375 82.625 C175.42614014 84.0639563 175.42614014 84.0639563 175.41455078 85.53198242 C175.216886 94.17512743 173.66532217 101.81710388 171 110 C170.43345703 111.8871875 170.43345703 111.8871875 169.85546875 113.8125 C165.2805281 128.31653073 158.45091653 144.32362521 150 157 C150.6703125 157.2371875 151.340625 157.474375 152.03125 157.71875 C176.36044158 168.21871689 203.49804936 191.47214309 214.25 215.83203125 C218.27922925 226.5066907 218.53194809 237.44262093 214 248 C207.83482551 260.94291439 196.65343917 269.35782456 183.3359375 274.23046875 C181.35421837 274.89862133 179.3669904 275.55062261 177.375 276.1875 C176.32465576 276.52918213 175.27431152 276.87086426 174.19213867 277.22290039 C154.93853048 283.33115514 136.06213002 284.18001911 116 284 C116.02094727 284.58563721 116.04189453 285.17127441 116.06347656 285.7746582 C116.96433717 315.27214159 114.26788104 349.67703395 94 373 C83.50175652 381.77801063 74.29958468 385.49217389 60.56640625 385.3359375 C43.11737072 383.69232627 29.89963761 371.79525482 18 360 C17.23171875 359.24460937 16.4634375 358.48921875 15.671875 357.7109375 C8.02700422 349.69798035 -11 329.49676348 -11 318 C-11.61818604 318.33209473 -12.23637207 318.66418945 -12.87329102 319.00634766 C-24.70555466 325.33811862 -36.37762984 331.40865124 -49 336 C-50.43472656 336.56267578 -50.43472656 336.56267578 -51.8984375 337.13671875 C-54.57943332 338.1699392 -57.26813097 339.11046233 -60 340 C-61.38251953 340.45052734 -61.38251953 340.45052734 -62.79296875 340.91015625 C-69.95319888 342.9016821 -76.86377152 343.28050634 -84.25 343.3125 C-85.17272705 343.31797852 -86.0954541 343.32345703 -87.04614258 343.32910156 C-99.84368522 343.19582973 -110.21389571 339.53314281 -119.875 330.8125 C-129.34574615 320.55445465 -131.58884531 307.61978898 -131.3125 294.25 C-130.19260661 269.20171795 -118.96703175 244.07410279 -106 223 C-106.6703125 222.7628125 -107.340625 222.525625 -108.03125 222.28125 C-134.52136125 210.84867567 -159.58052249 187.25360271 -171 161 C-174.72676542 151.39781289 -173.9601364 140.45096381 -170 131 C-161.14847908 115.05321232 -145.35087485 106.75787825 -128.41699219 101.66113281 C-109.72584562 96.54844343 -91.24929115 95.82417033 -72 96 C-72.0314209 95.07610474 -72.0314209 95.07610474 -72.06347656 94.13354492 C-72.84654821 67.2043056 -70.89815719 38.31030927 -56 15 C-55.56300781 14.28714844 -55.12601562 13.57429688 -54.67578125 12.83984375 C-49.38631479 4.97384635 -40.96278465 -1.01240512 -32 -4 C-20.20669839 -6.27045557 -10.83617106 -5.19816324 0 0 Z " fill="#FDFEFE" transform="translate(234,66)"/>
<path d="M0 0 C136.29 0 272.58 0 413 0 C405.96027887 28.1588845 405.96027887 28.1588845 402.3125 38.875 C401.89097656 40.124021 401.46945312 41.37304199 401.03515625 42.65991211 C394.93923179 60.48966645 387.35879907 77.71814167 378.99609375 94.59399414 C378.60164063 95.39699951 378.2071875 96.20000488 377.80078125 97.02734375 C377.45184814 97.72593506 377.10291504 98.42452637 376.7434082 99.14428711 C375.81406254 101.1309612 375.81406254 101.1309612 376 104 C375.03682861 103.95286865 375.03682861 103.95286865 374.05419922 103.90478516 C343.96259897 102.63827667 320.16335326 112.50389476 293.90673828 126.07958984 C292 127 292 127 289 128 C288.34515625 126.88625 287.6903125 125.7725 287.015625 124.625 C271.53934178 98.61301665 251.83431811 70.37933946 221 62 C208.10104509 60.9117507 197.40964415 63.45954163 186.98046875 71.2578125 C183.85669855 73.94551076 181.59909223 77.07554488 179.4375 80.5625 C179.05182861 81.17746338 178.66615723 81.79242676 178.26879883 82.42602539 C163.72277692 106.19157266 162.61526702 134.90785572 162 162 C160.66545776 162.05945801 160.66545776 162.05945801 159.30395508 162.12011719 C116.3130944 163.91335084 116.3130944 163.91335084 78 182 C77.26523438 182.53109375 76.53046875 183.0621875 75.7734375 183.609375 C68.87620695 189.03416307 63.93155508 197.12217323 62.25390625 205.79296875 C61.03489997 216.3889464 62.38094809 224.37105333 67 234 C67.46148437 234.97582031 67.92296875 235.95164063 68.3984375 236.95703125 C80.75352594 260.38152634 105.68379472 276.2158422 128 289 C126.51085811 292.88428725 124.77140197 296.58135829 122.91796875 300.3046875 C122.30877496 301.54143535 121.70006773 302.77842296 121.09179688 304.015625 C120.14871063 305.93041261 119.20313114 307.84372959 118.2487793 309.75292969 C112.35791043 321.55630797 107.40338439 333.52086816 105.25 346.625 C105.13422607 347.32230225 105.01845215 348.01960449 104.89916992 348.73803711 C103.882808 355.12691003 103.32581549 361.53986534 103 368 C102.67 367.34 102.34 366.68 102 366 C101.44989258 366.25056152 100.89978516 366.50112305 100.33300781 366.75927734 C78.82524302 376.48940073 56.89564027 384.52444597 34.1875 390.9375 C33.53371368 391.12313507 32.87992737 391.30877014 32.20632935 391.50003052 C9.16224004 398 9.16224004 398 0 398 C0 266.66 0 135.32 0 0 Z " fill="#6DAFE0" transform="translate(0,0)"/>
<path d="M0 0 C1.5191025 0.34115437 3.03206044 0.7104059 4.5390625 1.1015625 C5.7755957 1.39377686 5.7755957 1.39377686 7.03710938 1.69189453 C9.7533471 2.34360929 12.4581602 3.03327567 15.1640625 3.7265625 C17.06239452 4.19573949 18.96083347 4.66448403 20.859375 5.1328125 C24.75370433 6.10171454 28.61815896 7.14534733 32.48046875 8.234375 C36.17494062 9.26225973 39.76931466 10.0058312 43.56640625 10.53125 C48.63037533 11.37516452 53.18769399 12.31115352 57.1640625 15.7265625 C61.36495647 22.30279417 62.72370065 30.19158638 64.30175781 37.72607422 C65.21280195 42.06535072 66.32018211 46.3467236 67.4375 50.63671875 C68.9264638 56.42587469 70.40677381 62.21651387 71.79296875 68.03125 C72.08244385 69.22733887 72.37191895 70.42342773 72.67016602 71.65576172 C73.14044323 74.57970973 73.32131737 76.0462413 72.1640625 78.7265625 C70.80053711 80.5065918 70.80053711 80.5065918 69.06640625 82.30078125 C68.43355713 82.96408447 67.80070801 83.6273877 67.14868164 84.31079102 C66.47313232 85.00487061 65.79758301 85.6989502 65.1015625 86.4140625 C63.72299839 87.85324777 62.34538561 89.29334494 60.96875 90.734375 C60.30713867 91.4243457 59.64552734 92.11431641 58.96386719 92.82519531 C56.81875719 95.0913533 54.7632009 97.42525328 52.7265625 99.7890625 C49.83655499 103.075131 46.79581237 105.96094153 43.421875 108.74609375 C41.6124589 110.33324593 39.99193168 111.93113409 38.34375 113.67578125 C37.8394043 114.18898926 37.33505859 114.70219727 36.81542969 115.23095703 C35.8205308 116.2465432 34.84813755 117.28483118 33.90332031 118.34716797 C32.484375 119.76171875 32.484375 119.76171875 29.1640625 121.7265625 C25.6734556 121.65518957 22.50771917 120.6738928 19.1640625 119.7265625 C17.16762217 119.28396172 15.16878252 118.85207797 13.16796875 118.4296875 C0.61151449 115.62063733 -11.75229779 112.57241921 -23.90795898 108.32543945 C-26.12265292 107.59168546 -26.12265292 107.59168546 -29.6640625 107.06640625 C-32.8359375 105.7265625 -32.8359375 105.7265625 -34.62109375 102.18359375 C-35.07806165 100.64433344 -35.50164341 99.09492124 -35.8984375 97.5390625 C-36.1361084 96.70117188 -36.3737793 95.86328125 -36.61865234 95 C-37.38852946 92.24964557 -38.11297855 89.48958708 -38.8359375 86.7265625 C-39.35664798 84.82382822 -39.87879544 82.92148664 -40.40234375 81.01953125 C-41.45574347 77.15510581 -42.44751573 73.28147177 -43.3984375 69.390625 C-44.30214827 65.70172784 -45.33701024 62.10734306 -46.5234375 58.5 C-47.00336763 56.86741174 -47.48257334 55.23461029 -47.9609375 53.6015625 C-48.22922363 52.89322266 -48.49750977 52.18488281 -48.77392578 51.45507812 C-49.48911893 48.80512512 -49.55751002 47.39759017 -48.8359375 44.7265625 C-45.82905373 40.5643312 -42.33623699 37.05342828 -38.65197754 33.4901123 C-36.83850416 31.72905497 -35.06428402 29.93608602 -33.29785156 28.12792969 C-30.30082305 25.06428916 -27.27819325 22.02791616 -24.24243164 19.00268555 C-22.37201197 17.13771394 -20.50711482 15.26733577 -18.64257812 13.39648438 C-17.43782114 12.19238693 -16.23275468 10.98859903 -15.02734375 9.78515625 C-14.47832901 9.23411728 -13.92931427 8.68307831 -13.36366272 8.11534119 C-4.85106604 -0.345799 -4.85106604 -0.345799 0 0 Z " fill="#6EAFE0" transform="translate(243.8359375,195.2734375)"/>
<path d="M0 0 C4.70206211 4.70206211 4.25927159 11.13924884 4.3125 17.4375 C4.3125 25.88254318 2.94599503 33.04166413 0 41 C-0.27376465 41.75007324 -0.5475293 42.50014648 -0.82958984 43.27294922 C-5.29488414 55.37643798 -10.70386904 66.74858078 -17 78 C-20.61210715 77.39220513 -23.66019268 76.40197959 -26.9921875 74.890625 C-27.93803711 74.4680542 -28.88388672 74.0454834 -29.85839844 73.61010742 C-30.85387695 73.16127197 -31.84935547 72.71243652 -32.875 72.25 C-40.88878823 68.67237081 -48.77214206 65.55473677 -57.234375 63.23046875 C-62.3188643 60.9683019 -63.65097489 55.65582944 -65.55859375 50.703125 C-66.02716797 49.4965625 -66.49574219 48.29 -66.97851562 47.046875 C-67.46515984 45.7813715 -67.95148611 44.5157457 -68.4375 43.25 C-72.60070558 32.38804723 -72.60070558 32.38804723 -77.32055664 21.76074219 C-78 20 -78 20 -78 17 C-20.24577059 -14.29113218 -20.24577059 -14.29113218 0 0 Z " fill="#5DA4DA" transform="translate(381,131)"/>
<path d="M0 0 C5.14559937 0.64580397 9.48786218 2.94273876 14.125 5.125 C19.4631542 7.62949594 24.71927064 9.997285 30.36328125 11.73046875 C31.64211182 12.13531494 31.64211182 12.13531494 32.94677734 12.54833984 C34.55909277 13.04300239 36.18348318 13.50048715 37.81884766 13.91259766 C41.46116206 15.05206161 43.4247146 16.03756227 45.41918945 19.37426758 C46.74772321 22.54463826 47.87409648 25.75231504 49 29 C50.02233401 31.47825977 51.05830465 33.94609322 52.11328125 36.41015625 C52.64515636 37.67850206 53.17575008 38.94738596 53.70507812 40.21679688 C54.51642163 42.16000548 55.32935238 44.10245605 56.14770508 46.04272461 C56.95371066 47.95482661 57.75290732 49.86964946 58.55078125 51.78515625 C59.02169189 52.90801025 59.49260254 54.03086426 59.9777832 55.18774414 C61 58 61 58 61 61 C48.04254622 68.22655708 34.99331289 74.07363544 21 79 C19.95457031 79.3815625 18.90914062 79.763125 17.83203125 80.15625 C8.92415016 82.81018423 -3.75283708 83.81155431 -12.75 80.8125 C-16.22124859 78.87661136 -17.97291483 77.40550308 -20 74 C-26.78530274 48.46342144 -12.13037242 21.51736361 0 0 Z " fill="#5CA4DA" transform="translate(148,303)"/>
<path d="M0 0 C1.53785623 6.85977083 2.47943641 13.6922829 3.24511719 20.671875 C3.79581304 25.58242771 4.55641361 30.38760875 5.6328125 35.21484375 C7.18973324 47.0242532 7.18973324 47.0242532 3.359375 52.31640625 C2.17892551 53.75073734 0.97449218 55.16557997 -0.25 56.5625 C-1.53215402 58.11038201 -2.81071859 59.66124329 -4.0859375 61.21484375 C-4.7365918 61.99843262 -5.38724609 62.78202148 -6.05761719 63.58935547 C-9.18420479 67.46968804 -12.03281682 71.53404452 -14.875 75.625 C-15.65085449 76.73597046 -15.65085449 76.73597046 -16.44238281 77.86938477 C-17.63220281 79.57684578 -18.81675369 81.28797695 -20 83 C-40.32742214 75.47267195 -65.17247031 55.37332972 -75.1015625 35.83203125 C-76.91435432 31.45252952 -77.83407955 27.67084545 -77 23 C-69.15143215 10.58499267 -55.09605748 6.76677342 -41.57836914 3.70898438 C-35.69291965 2.54289682 -29.77869773 1.90814331 -23.8125 1.3125 C-22.61947266 1.18294922 -21.42644531 1.05339844 -20.19726562 0.91992188 C-13.43817131 0.21763005 -6.79500229 -0.18422829 0 0 Z " fill="#6EAFE0" transform="translate(163,187)"/>
<path d="M0 0 C20.81054732 7.7062313 46.21048898 28.41531816 55.9375 48.6875 C57.14530061 52.45299602 57.50005692 55.07098134 57 59 C53.05561012 66.58536516 46.69878987 70.77384043 39 74 C38.04351562 74.4021875 37.08703125 74.804375 36.1015625 75.21875 C18.49851728 81.82492715 -1.28924257 83.95005256 -20 83 C-21.46421798 80.07156404 -21.57148145 76.97757615 -21.9375 73.76171875 C-22.02249756 73.04393753 -22.10749512 72.32615631 -22.19506836 71.58662415 C-22.46691699 69.28731586 -22.73379664 66.98746818 -23 64.6875 C-23.266794 62.39832081 -23.53469145 60.10928587 -23.80493164 57.82051086 C-23.97293319 56.39611055 -24.13888351 54.97146636 -24.30249023 53.54655457 C-24.72030763 49.98844818 -25.27100652 46.50629191 -26 43 C-26.6222301 37.80223303 -26.48320114 35.13346096 -23.359375 30.87890625 C-22.17411666 29.42535065 -20.96988228 27.9871222 -19.75 26.5625 C-18.4679438 24.996275 -17.18937677 23.42718831 -15.9140625 21.85546875 C-14.93808105 20.66123291 -14.93808105 20.66123291 -13.94238281 19.44287109 C-10.83671814 15.53697859 -7.97501184 11.46938934 -5.125 7.375 C-4.60776367 6.63451416 -4.09052734 5.89402832 -3.55761719 5.13110352 C-2.36791197 3.42339951 -1.18332236 1.71213308 0 0 Z " fill="#5DA4DA" transform="translate(369,242)"/>
<path d="M0 0 C8.03055823 2.95971605 14.00538539 7.44432797 20.28125 13.1796875 C20.89355469 13.72238281 21.50585938 14.26507813 22.13671875 14.82421875 C30.58226133 22.74818388 37.40889869 32.66517542 43.84375 42.2421875 C44.26116455 42.8609375 44.6785791 43.4796875 45.10864258 44.1171875 C47.24922649 47.3651538 48.99590313 50.50429024 50.28125 54.1796875 C49.32347656 54.89511719 48.36570312 55.61054688 47.37890625 56.34765625 C39.13964609 62.51064375 30.93450461 68.71477548 22.77954102 74.98901367 C22.10334717 75.50826416 21.42715332 76.02751465 20.73046875 76.5625 C20.13580811 77.02027832 19.54114746 77.47805664 18.9284668 77.94970703 C15.35994619 80.61432935 13.83617908 81.42803487 9.4453125 80.9296875 C8.46594727 80.82011719 7.48658203 80.71054688 6.47753906 80.59765625 C0.85894364 79.86293005 -4.74344817 79.04223399 -10.34375 78.1796875 C-17.79292744 77.0400129 -25.2211532 75.94703216 -32.71875 75.1796875 C-33.4954047 52.13893149 -32.28659108 24.27170282 -17.71875 5.1796875 C-12.2504499 -0.52589584 -7.79690968 -2.35251585 0 0 Z " fill="#6EAFE0" transform="translate(219.71875,86.8203125)"/>
<path d="M0 0 C1.18993813 0.16715767 1.18993813 0.16715767 2.40391541 0.33769226 C4.94678663 0.69711524 7.48696401 1.07262556 10.02734375 1.44921875 C12.53818204 1.8110131 15.04947873 2.16946808 17.56088257 2.52731323 C19.17470136 2.75735687 20.78833255 2.98872078 22.40176392 3.22146606 C27.91299587 4.01042302 33.41724309 4.65407181 38.96484375 5.13671875 C40.12570169 27.70895648 38.52511208 58.17932801 22.96484375 76.13671875 C19.05518187 79.77361353 15.63998068 81.64281312 10.17578125 81.5390625 C0.88896208 79.8490583 -7.1713914 73.24185696 -14.03515625 67.13671875 C-14.62554687 66.61722656 -15.2159375 66.09773438 -15.82421875 65.5625 C-24.28787162 57.60024837 -31.1403593 47.68463676 -37.59765625 38.07421875 C-38.0150708 37.45546875 -38.43248535 36.83671875 -38.86254883 36.19921875 C-41.00313274 32.95125245 -42.74980938 29.81211601 -44.03515625 26.13671875 C-43.07738281 25.42128906 -42.11960938 24.70585937 -41.1328125 23.96875 C-32.89355234 17.8057625 -24.68841086 11.60163077 -16.53344727 5.32739258 C-15.85725342 4.80814209 -15.18105957 4.2888916 -14.484375 3.75390625 C-13.88971436 3.29612793 -13.29505371 2.83834961 -12.68237305 2.36669922 C-8.0629338 -1.08264641 -5.4754116 -0.83698878 0 0 Z " fill="#5DA4DA" transform="translate(286.03515625,344.86328125)"/>
<path d="M0 0 C11.21955441 5.72148308 17.25518355 12.93327525 21.22753906 24.8503418 C22.57395955 37.77903851 20.22478735 46.37044209 12.66113281 57.06518555 C7.08094466 63.45652887 -1.45833099 67.57646639 -9.85449219 68.36206055 C-17.49514018 68.72445221 -24.16683586 67.95038495 -30.77246094 63.8503418 C-32.31933594 62.9840918 -32.31933594 62.9840918 -33.89746094 62.1003418 C-41.03134808 56.51729968 -46.3363832 49.6676497 -48.77246094 40.8503418 C-49.78206868 31.90557144 -49.64835337 23.70594628 -44.77246094 15.8503418 C-44.19496094 14.8190918 -43.61746094 13.7878418 -43.02246094 12.7253418 C-32.80253766 -0.33344905 -15.80469301 -7.11628196 0 0 Z " fill="#FDFEFE" transform="translate(269.7724609375,223.149658203125)"/>
<path d="M0 0 C4.45257571 12.47115233 7.78456332 25.16284983 11 38 C11.22139648 38.86705566 11.44279297 39.73411133 11.67089844 40.62744141 C12.27027856 42.97832292 12.85653434 45.33200959 13.4375 47.6875 C13.7015564 48.71979736 13.7015564 48.71979736 13.97094727 49.77294922 C14.80340957 53.23897959 15.21491813 55.63842813 14 59 C12.63647461 60.7800293 12.63647461 60.7800293 10.90234375 62.57421875 C10.26949463 63.23752197 9.63664551 63.9008252 8.98461914 64.58422852 C8.30906982 65.27830811 7.63352051 65.9723877 6.9375 66.6875 C5.55893589 68.12668527 4.18132311 69.56678244 2.8046875 71.0078125 C2.14307617 71.6977832 1.48146484 72.38775391 0.79980469 73.09863281 C-1.34530531 75.3647908 -3.4008616 77.69869078 -5.4375 80.0625 C-8.32750751 83.3485685 -11.36825013 86.23437903 -14.7421875 89.01953125 C-16.5516036 90.60668343 -18.17213082 92.20457159 -19.8203125 93.94921875 C-20.3246582 94.46242676 -20.82900391 94.97563477 -21.34863281 95.50439453 C-22.3435317 96.5199807 -23.31592495 97.55826868 -24.26074219 98.62060547 C-25.6796875 100.03515625 -25.6796875 100.03515625 -29 102 C-32.4906069 101.92862707 -35.65634333 100.9473303 -39 100 C-40.99644033 99.55739922 -42.99527998 99.12551547 -44.99609375 98.703125 C-57.56161492 95.89204644 -69.85186849 92.72527081 -82.06005859 88.63085938 C-85.01749054 87.6691171 -88.00384989 86.83248207 -91 86 C-89.46846008 82.0870483 -87.07723993 80.19176105 -83.8125 77.625 C-82.8328125 76.84511719 -81.853125 76.06523437 -80.84375 75.26171875 C-79.9053125 74.51535156 -78.966875 73.76898438 -78 73 C-75.64685396 71.02158441 -73.32328813 69.01351638 -71 67 C-68.83899818 68.07799395 -66.68119281 69.16167 -64.52734375 70.25390625 C-63.67269531 70.68574219 -62.81804687 71.11757813 -61.9375 71.5625 C-61.08027344 71.99691406 -60.22304687 72.43132812 -59.33984375 72.87890625 C-52.47765233 76.16680097 -43.3481143 76.49976331 -35.99414062 74.4375 C-28.16822902 71.50178596 -21.51521805 67.11336028 -17 60 C-16.49726563 59.21109375 -15.99453125 58.4221875 -15.4765625 57.609375 C-10.95719894 49.26977595 -10.22718522 39.27369891 -12.8046875 30.15234375 C-13.73979695 27.98129506 -14.75955699 26.0096066 -16 24 C-16.5775 23.030625 -17.155 22.06125 -17.75 21.0625 C-18.1625 20.381875 -18.575 19.70125 -19 19 C-19 18.34 -19 17.68 -19 17 C-18.34 17 -17.68 17 -17 17 C-16.73703125 16.42121094 -16.4740625 15.84242188 -16.203125 15.24609375 C-13.5556449 10.30355785 -6.07885235 0 0 0 Z " fill="#5EA5DA" transform="translate(302,215)"/>
<path d="M0 0 C-7.78950691 21.47266191 -25.91050928 47.91050928 -42 64 C-42.235979 63.35675781 -42.47195801 62.71351563 -42.71508789 62.05078125 C-48.88910992 45.21005459 -48.88910992 45.21005459 -55.96704102 28.73632812 C-57.24563888 25.94333011 -58 24.11764823 -58 21 C-19.24017467 0 -19.24017467 0 0 0 Z " fill="#6EAFE0" transform="translate(361,127)"/>
<path d="M0 0 C3.40694936 0.58535305 6.30658129 1.44119349 9.44140625 2.890625 C10.26737305 3.26840088 11.09333984 3.64617676 11.94433594 4.03540039 C12.80833008 4.43621826 13.67232422 4.83703613 14.5625 5.25 C16.34967529 6.06768633 18.13743497 6.88409664 19.92578125 7.69921875 C20.79154785 8.09415527 21.65731445 8.4890918 22.54931641 8.89599609 C27.31882257 11.04460208 32.15072871 13.03860775 37 15 C33.1945702 18.13768457 29.23119915 20.96256973 25.125 23.6875 C24.46862549 24.12320312 23.81225098 24.55890625 23.13598633 25.0078125 C13.11538179 31.60770954 2.77086682 37.62434727 -7.6875 43.5 C-8.45425049 43.93376953 -9.22100098 44.36753906 -10.01098633 44.81445312 C-10.73310303 45.21599609 -11.45521973 45.61753906 -12.19921875 46.03125 C-12.83690186 46.38767578 -13.47458496 46.74410156 -14.1315918 47.11132812 C-16.06911524 48.03287331 -17.90647665 48.55223714 -20 49 C-17.17531449 31.49993691 -8.62559649 15.300445 0 0 Z " fill="#6EAFE0" transform="translate(148,303)"/>
<path d="M0 0 C0.33 0 0.66 0 1 0 C1 14.52 1 29.04 1 44 C-13.52 44 -28.04 44 -43 44 C-43 43.67 -43 43.34 -43 43 C-42.17757813 42.78085937 -41.35515625 42.56171875 -40.5078125 42.3359375 C-25.77941817 38.1521211 -14.5263778 31.10514077 -6.5390625 17.84765625 C-3.43717695 12.10838071 -1.15804285 6.42600249 0 0 Z " fill="#FFFFFF" transform="translate(511,468)"/>
<path d="M0 0 C0.33 0 0.66 0 1 0 C1.21914063 0.82242187 1.43828125 1.64484375 1.6640625 2.4921875 C5.8478789 17.22058183 12.89485923 28.4736222 26.15234375 36.4609375 C31.89161929 39.56282305 37.57399751 41.84195715 44 43 C44 43.33 44 43.66 44 44 C29.48 44 14.96 44 0 44 C0 29.48 0 14.96 0 0 Z " fill="#FFFFFF" transform="translate(0,468)"/>
<path d="M0 0 C14.52 0 29.04 0 44 0 C44 14.52 44 29.04 44 44 C43.67 44 43.34 44 43 44 C42.67128906 42.76636719 42.67128906 42.76636719 42.3359375 41.5078125 C38.1521211 26.77941817 31.10514077 15.5263778 17.84765625 7.5390625 C12.10838071 4.43717695 6.42600249 2.15804285 0 1 C0 0.67 0 0.34 0 0 Z " fill="#FFFFFF" transform="translate(468,0)"/>
<path d="M0 0 C14.52 0 29.04 0 44 0 C44 0.33 44 0.66 44 1 C43.17757812 1.21914063 42.35515625 1.43828125 41.5078125 1.6640625 C26.77941817 5.8478789 15.5263778 12.89485923 7.5390625 26.15234375 C4.43717695 31.89161929 2.15804285 37.57399751 1 44 C0.67 44 0.34 44 0 44 C0 29.48 0 14.96 0 0 Z " fill="#FFFFFF" transform="translate(0,0)"/>
<path d="M0 0 C1.33030297 6.98409058 1.06756843 13.90531503 1 21 C-5.6 20.67 -12.2 20.34 -19 20 C-17.24415023 16.48830047 -16.03274068 14.78533965 -13.33984375 12.109375 C-12.62892578 11.40039062 -11.91800781 10.69140625 -11.18554688 9.9609375 C-10.44369141 9.23132813 -9.70183594 8.50171875 -8.9375 7.75 C-8.19177734 7.00492187 -7.44605469 6.25984375 -6.67773438 5.4921875 C-1.14028159 0 -1.14028159 0 0 0 Z " fill="#63A7DB" transform="translate(322,304)"/>
<path d="M0 0 C2.39591038 -0.02712351 4.79150957 -0.0468982 7.1875 -0.0625 C7.86103516 -0.07087891 8.53457031 -0.07925781 9.22851562 -0.08789062 C12.95434131 -0.10606538 16.3788042 0.10700608 20 1 C16.13082319 5.72899388 11.99697964 10.11269322 7.6875 14.4375 C7.14770508 14.98180664 6.60791016 15.52611328 6.05175781 16.08691406 C2.12372693 20 2.12372693 20 1 20 C-0.05619003 15.71702469 -0.11702092 11.57014354 -0.0625 7.1875 C-0.05798828 6.49462891 -0.05347656 5.80175781 -0.04882812 5.08789062 C-0.03713156 3.39188932 -0.01919924 1.69593297 0 0 Z " fill="#71B1E0" transform="translate(189,188)"/>
<path d="M0 0 C2.80592657 2.44493017 4.11593244 4.99579963 5.625 8.375 C6.05039062 9.31085938 6.47578125 10.24671875 6.9140625 11.2109375 C7.93003191 13.8202978 8.54887492 16.24312449 9 19 C0.73434184 17.74110216 -7.05964735 15.60049705 -15 13 C-10.43369266 8.12927217 -5.25023461 4.10843602 0 0 Z " fill="#74B2E1" transform="translate(279,162)"/>
<path d="M0 0 C7.88416983 1.35258896 15.39353334 3.54399352 23 6 C23 6.66 23 7.32 23 8 C21.2421875 9.5859375 21.2421875 9.5859375 18.875 11.375 C18.05902344 11.99246094 17.24304688 12.60992187 16.40234375 13.24609375 C13.65099443 15.25480244 10.86757685 17.16180971 8 19 C1.48063781 6.51480638 1.48063781 6.51480638 0 0 Z " fill="#61A7DB" transform="translate(224,331)"/>
<path d="M0 0 C0.66 0.33 1.32 0.66 2 1 C2.78438699 3.56627745 3.45490622 6.07923622 4.0625 8.6875 C4.23587891 9.39583984 4.40925781 10.10417969 4.58789062 10.83398438 C5.56038522 14.86927806 6.37277633 18.89394815 7 23 C0.5811453 21.26375242 -5.13784836 19.14819255 -11 16 C-9.55049595 11.64352355 -7.32252888 8.68242711 -4.375 5.1875 C-3.55773437 4.21167969 -2.74046875 3.23585938 -1.8984375 2.23046875 C-1.27195313 1.49441406 -0.64546875 0.75835937 0 0 Z " fill="#74B3E1" transform="translate(175,266)"/>
<path d="M0 0 C6.20477864 1.93624298 12.10825719 4.25609141 18 7 C16.55049595 11.35647645 14.32252888 14.31757289 11.375 17.8125 C10.55773437 18.78832031 9.74046875 19.76414063 8.8984375 20.76953125 C8.27195312 21.50558594 7.64546875 22.24164063 7 23 C4.47167579 20.47167579 4.27180134 18.15141375 3.57421875 14.73046875 C2.53412599 9.78472154 1.24313373 4.8979469 0 0 Z " fill="#61A6DB" transform="translate(330,223)"/>
</svg>
