<?xml version="1.0" encoding="UTF-8"?>
<svg version="1.1" xmlns="http://www.w3.org/2000/svg" width="512" height="512">
<path d="M0 0 C5.04823833 3.85997233 9.71928516 8.11918425 14.34765625 12.46484375 C16.95230284 14.90823362 19.58819324 17.30678003 22.25 19.6875 C26.45684327 23.46287217 30.62674853 27.27730448 34.7890625 31.1015625 C38.72829571 34.71757657 42.6994338 38.29647759 46.6796875 41.8671875 C49.59428447 44.49829783 52.48539224 47.15402475 55.375 49.8125 C58.61213091 52.7897264 61.86137856 55.74702966 65.1875 58.625 C69.319109 62.20687309 73.31929927 65.92587958 77.32958984 69.64208984 C81.42693929 73.43637039 85.56410773 77.18296447 89.72265625 80.91015625 C92.58082242 83.4855981 95.41706617 86.08439696 98.25 88.6875 C103.55118479 93.5569675 108.89104859 98.38173067 114.25 103.1875 C120.12754442 108.45833016 125.97499827 113.75981672 131.78857422 119.10107422 C134.92631113 121.98143829 138.08003818 124.84266247 141.25 127.6875 C145.45684327 131.46287217 149.62674853 135.27730448 153.7890625 139.1015625 C156.92667086 141.98172607 160.08020941 144.84281614 163.25 147.6875 C168.95447112 152.81418707 174.62833 157.97015481 180.25 163.1875 C181.00667969 163.87714844 181.76335937 164.56679687 182.54296875 165.27734375 C195.66515956 177.68885498 204.77255399 197.06397453 205.38422108 215.15794849 C205.39356488 216.69429134 205.39753046 218.23067285 205.39717102 219.76704407 C205.40084771 220.61772199 205.4045244 221.46839992 205.4083125 222.34485596 C205.41930444 225.1886504 205.4231856 228.03240824 205.42700195 230.8762207 C205.43327022 232.91846328 205.43991734 234.96070473 205.44691467 237.00294495 C205.46792227 243.70638236 205.47831713 250.4098199 205.48828125 257.11328125 C205.49233068 259.42653096 205.49644766 261.73978055 205.50063133 264.05303001 C205.51967936 274.92771634 205.53390864 285.80239592 205.5422433 296.67709571 C205.55200076 309.19938772 205.57828302 321.72150226 205.61874419 334.2437318 C205.64899323 343.94085499 205.66372067 353.63792759 205.66702431 363.33509701 C205.66936564 369.11759048 205.67820556 374.89989428 205.70348549 380.68233681 C205.72692395 386.13169169 205.73093652 391.58073417 205.72072411 397.03012657 C205.72023238 399.01773498 205.72644415 401.00535961 205.74028015 402.99291992 C205.92254088 430.75424936 198.11567898 454.0048155 178.25 474.1875 C163.55570336 488.91215676 144.09749254 496.36163875 123.50498241 496.464311 C122.092224 496.4613695 120.67946598 496.45823413 119.26670837 496.45492554 C117.74829033 496.45866625 116.22987422 496.46326944 114.71146113 496.46865618 C110.55548209 496.48084997 106.39958378 496.48062999 102.24359095 496.47826743 C97.75463609 496.47785834 93.26570679 496.48890735 88.77676392 496.49838257 C79.98745315 496.51497449 71.19816922 496.52049133 62.40884411 496.52160732 C55.26054575 496.52255881 48.11225621 496.52667414 40.96396065 496.53300858 C20.67863213 496.55061732 0.39332475 496.55984821 -19.89201147 496.55834763 C-20.98492063 496.55826772 -22.0778298 496.5581878 -23.20385742 496.55810547 C-24.29810779 496.55802371 -25.39235816 496.55794195 -26.51976763 496.55785771 C-44.24287178 496.55704528 -61.96589085 496.57617311 -79.68897039 496.6043822 C-97.90513853 496.63314629 -116.12126523 496.64692051 -134.33745664 496.64519465 C-144.55704462 496.64453189 -154.77654345 496.64997404 -164.99611092 496.67155075 C-173.69953006 496.68980913 -182.40281964 496.69407188 -191.1062497 496.6805319 C-195.54169375 496.67402524 -199.97688958 496.67380115 -204.41230965 496.6912384 C-208.48325238 496.7070772 -212.55375234 496.70399671 -216.62468498 496.68667014 C-218.08700794 496.68362377 -219.54936484 496.68714201 -221.01164771 496.69839029 C-234.1766006 496.79284386 -247.34512559 494.78105519 -259.0625 488.4375 C-259.72072754 488.09315918 -260.37895508 487.74881836 -261.05712891 487.39404297 C-282.19721137 476.05297409 -296.94867629 458.02705835 -304.125 435.125 C-306.04848033 428.49317434 -306.89875774 422.52115464 -306.89717102 415.60758972 C-306.90084771 414.74481 -306.9045244 413.88203027 -306.9083125 412.99310571 C-306.91932407 410.10241272 -306.92318897 407.21175572 -306.92700195 404.32104492 C-306.93326875 402.24777106 -306.93991575 400.17449832 -306.94691467 398.10122681 C-306.96794028 391.29014872 -306.97831902 384.47907045 -306.98828125 377.66796875 C-306.99233005 375.31909994 -306.99644701 372.97023125 -307.00063133 370.62136269 C-307.01968356 359.57955301 -307.03391178 348.53774999 -307.0422433 337.49592704 C-307.05200142 324.77495446 -307.07828365 312.05415654 -307.11874419 299.33324546 C-307.14898066 289.48669009 -307.1637195 279.64018456 -307.16702431 269.79358369 C-307.16936715 263.92000564 -307.17822685 258.04661416 -307.20348549 252.17308617 C-307.22690164 246.63838834 -307.23094528 241.10399813 -307.22072411 235.56926346 C-307.22023184 233.54898488 -307.22645999 231.52869046 -307.24028015 229.50845909 C-307.33661826 214.57792875 -306.27111262 200.3010052 -299 186.875 C-298.65348389 186.21459717 -298.30696777 185.55419434 -297.94995117 184.8737793 C-290.50679382 171.0300793 -279.78932012 160.1605401 -267.8984375 150.05078125 C-264.99762633 147.53498683 -262.18975562 144.92380368 -259.375 142.3125 C-254.71088461 137.98969393 -250.01305399 133.70932959 -245.27734375 129.46484375 C-242.41917758 126.8894019 -239.58293383 124.29060304 -236.75 121.6875 C-230.65016822 116.08442564 -224.49438779 110.54537034 -218.328125 105.015625 C-213.26127991 100.46514629 -208.22637512 95.88144033 -203.21142578 91.27392578 C-199.26936798 87.65521524 -195.29500503 84.07404298 -191.3125 80.5 C-188.44399555 77.91134964 -185.59527019 75.30160892 -182.75 72.6875 C-176.65012856 67.08446824 -170.49438837 61.54537086 -164.328125 56.015625 C-159.26127991 51.46514629 -154.22637512 46.88144033 -149.21142578 42.27392578 C-145.26936798 38.65521524 -141.29500503 35.07404298 -137.3125 31.5 C-134.44399369 28.91134797 -131.59545928 26.30140462 -128.75 23.6875 C-117.9879996 13.81493523 -117.9879996 13.81493523 -112.75 9.1875 C-111.82703125 8.3625 -110.9040625 7.5375 -109.953125 6.6875 C-78.3547934 -20.73115811 -34.52450461 -24.12257352 0 0 Z M-84.875 55.26953125 C-87.26586318 57.71518504 -89.82640835 59.91198529 -92.41796875 62.140625 C-95.41270063 64.76916688 -98.32975602 67.47676718 -101.25 70.1875 C-104.71270951 73.39926007 -108.1764917 76.5985352 -111.75 79.6875 C-115.86360146 83.24567847 -119.84095275 86.9459212 -123.82983398 90.64233398 C-127.92712069 94.43651264 -132.06419343 98.18304128 -136.22265625 101.91015625 C-139.08082242 104.4855981 -141.91706617 107.08439696 -144.75 109.6875 C-150.84983178 115.29057436 -157.00561221 120.82962966 -163.171875 126.359375 C-168.23872009 130.90985371 -173.27362488 135.49355967 -178.28857422 140.10107422 C-182.23063202 143.71978476 -186.20499497 147.30095702 -190.1875 150.875 C-193.05600445 153.46365036 -195.90472981 156.07339108 -198.75 158.6875 C-204.84987144 164.29053176 -211.00561163 169.82962914 -217.171875 175.359375 C-222.19849852 179.87373116 -227.18770244 184.42483422 -232.13256836 189.02856445 C-234.68270819 191.37960903 -237.2645502 193.62893215 -240.00390625 195.7578125 C-247.6080639 201.68395449 -252.86419292 207.50141423 -254.75 217.1875 C-254.85027196 219.90277328 -254.89781999 222.59255623 -254.89717102 225.30789185 C-254.90084771 226.13321502 -254.9045244 226.95853819 -254.9083125 227.80887115 C-254.9193384 230.57847899 -254.92319134 233.34804929 -254.92700195 236.11767578 C-254.93326747 238.10201639 -254.93991435 240.08635582 -254.94691467 242.07069397 C-254.96794841 248.59139185 -254.97831699 255.11208994 -254.98828125 261.6328125 C-254.99232918 263.87873217 -254.99644611 266.12465172 -255.00063133 268.37057114 C-255.01968214 278.9232864 -255.03391294 289.47599468 -255.0422433 300.02872384 C-255.0520132 312.20359496 -255.07832684 324.37828414 -255.11874419 336.55309117 C-255.14892262 345.9672645 -255.16371386 355.38138574 -255.16702431 364.79560649 C-255.16937298 370.41638249 -255.17830966 376.0369641 -255.20348549 381.65768814 C-255.22680103 386.94858792 -255.23098532 392.23916581 -255.22072411 397.53010368 C-255.22022947 399.46743657 -255.22652845 401.40478549 -255.24028015 403.34206963 C-255.33505462 417.49004072 -254.36903586 427.30700196 -244.1953125 437.984375 C-237.71739655 443.82070822 -231.38954517 446.307273 -222.7543993 446.32172108 C-220.90109539 446.32840784 -220.90109539 446.32840784 -219.010351 446.33522969 C-217.63701235 446.3351404 -216.26367371 446.33495055 -214.89033508 446.33467102 C-213.43311677 446.33797063 -211.97589937 446.3416964 -210.51868314 446.3458125 C-206.50893754 446.3558295 -202.49920691 446.35954881 -198.48945057 446.36220181 C-194.16687517 446.36610571 -189.84431161 446.37568394 -185.52174377 446.38441467 C-175.08056601 446.40417587 -164.63938728 446.41424451 -154.19819549 446.42314246 C-149.28163212 446.42752562 -144.36506983 446.43289233 -139.44850731 446.43813133 C-123.10573328 446.45514268 -106.76295993 446.46963726 -90.42017841 446.47688007 C-86.17928886 446.47878997 -81.9383993 446.48071031 -77.69750977 446.48266602 C-76.64345494 446.48314976 -75.58940011 446.4836335 -74.50340422 446.4841319 C-57.42514219 446.49243373 -40.34695016 446.51777367 -23.2687187 446.55024669 C-5.7364048 446.58331149 11.79587351 446.60132828 29.32821876 446.60452431 C39.17263462 446.60668986 49.01694836 446.6154452 58.86133385 446.64098549 C67.24447207 446.66268448 75.62748337 446.67074682 84.01064648 446.66101871 C88.28722622 446.65647179 92.56354403 446.65838296 96.84008789 446.67778015 C100.75789407 446.69539663 104.67524696 446.69442665 108.59305785 446.67888286 C110.00763023 446.67650448 111.42223387 446.68084238 112.83675846 446.69271151 C123.7463734 446.77855631 131.70025703 444.89804694 140.328125 438.08203125 C147.85934475 430.657963 151.43303237 421.59901306 151.52214891 411.12388623 C151.51836958 410.39916619 151.51459026 409.67444615 151.51069641 408.92776489 C151.51452196 408.13577599 151.51834751 407.3437871 151.52228898 406.52779853 C151.53254251 403.89492813 151.52864148 401.26227892 151.5246582 398.62939453 C151.52900892 396.73313192 151.53419327 394.83687106 151.54014587 392.94061279 C151.55350854 387.80419537 151.55411757 382.66785165 151.55158257 377.53142023 C151.55051099 373.23730819 151.55540104 368.94321095 151.560188 364.64910209 C151.57127378 354.51524294 151.57172584 344.38142087 151.56567383 334.24755859 C151.55963436 323.80701373 151.57194653 313.36660365 151.5932439 302.92608178 C151.61087965 293.94918433 151.61685813 284.9723297 151.61360615 275.99541557 C151.61179628 270.63966892 151.61440001 265.28401841 151.62832069 259.92828751 C151.64092649 254.89015738 151.63892888 249.85223683 151.62590981 244.8141098 C151.62355046 242.97031202 151.62625561 241.12649937 151.63453293 239.28271866 C151.73986227 225.96101719 151.73986227 225.96101719 148.25 213.1875 C147.8478125 212.19878906 147.445625 211.21007812 147.03125 210.19140625 C141.83736858 200.29452855 133.86595375 193.29657318 125.46875 186.12109375 C122.54913836 183.57671388 119.71419673 180.94594598 116.875 178.3125 C112.21083545 173.98974614 107.51305505 169.70933054 102.77734375 165.46484375 C99.91917758 162.8894019 97.08293383 160.29060304 94.25 157.6875 C88.94881521 152.8180325 83.60895141 147.99326933 78.25 143.1875 C72.37245558 137.91666984 66.52500173 132.61518328 60.71142578 127.27392578 C57.57368887 124.39356171 54.41996182 121.53233753 51.25 118.6875 C47.5616951 115.37748278 43.89934235 112.040355 40.25 108.6875 C34.94878077 103.81806955 29.60895189 98.99326976 24.25 94.1875 C18.37245558 88.91666984 12.52500173 83.61518328 6.71142578 78.27392578 C3.57368887 75.39356171 0.41996182 72.53233753 -2.75 69.6875 C-6.43831216 66.37747627 -10.10005448 63.03970357 -13.75 59.6875 C-14.76689072 58.75647069 -15.78381746 57.82548074 -16.80078125 56.89453125 C-18.68189024 55.17156045 -20.55236997 53.43916959 -22.41796875 51.69921875 C-31.34294663 43.46609962 -39.61675243 36.43059126 -52.4296875 36.8828125 C-66.02687597 38.6683019 -75.60047399 45.60233377 -84.875 55.26953125 Z " fill="#000000" transform="translate(306.75,15.8125)"/>
</svg>
