<?xml version="1.0" encoding="UTF-8"?>
<svg version="1.1" xmlns="http://www.w3.org/2000/svg" width="5000" height="887">
<path d="M0 0 C2.8758036 -0.00217864 5.75121722 -0.02039379 8.62695312 -0.03930664 C26.04726819 -0.09263945 43.31138317 1.2112641 60.52539062 3.93530273 C61.59845459 4.10449219 62.67151855 4.27368164 63.77709961 4.44799805 C132.57357982 15.72627376 194.8677558 47.08770217 247.11083984 92.75024414 C248.30840613 93.78270155 249.52020501 94.79873372 250.74072266 95.80395508 C251.38251465 96.33585449 252.02430664 96.86775391 252.68554688 97.41577148 C253.27601807 97.89812256 253.86648926 98.38047363 254.47485352 98.87744141 C255.77539062 100.18530273 255.77539062 100.18530273 255.77539062 102.18530273 C256.76539063 102.51530273 257.75539063 102.84530273 258.77539062 103.18530273 C258.77539062 103.84530273 258.77539062 104.50530273 258.77539062 105.18530273 C259.76539063 105.51530273 260.75539063 105.84530273 261.77539062 106.18530273 C261.77539062 106.84530273 261.77539062 107.50530273 261.77539062 108.18530273 C262.76539063 108.51530273 263.75539063 108.84530273 264.77539062 109.18530273 C264.77539062 109.84530273 264.77539062 110.50530273 264.77539062 111.18530273 C265.76539063 111.51530273 266.75539063 111.84530273 267.77539062 112.18530273 C269.28320312 113.68139648 269.28320312 113.68139648 270.90039062 115.62280273 C274.43314555 119.79446015 278.07886208 123.84715601 281.75976562 127.88842773 C286.77539062 133.60390739 286.77539062 133.60390739 286.77539062 136.18530273 C287.43539062 136.18530273 288.09539063 136.18530273 288.77539062 136.18530273 C290.11303711 137.65966797 290.11303711 137.65966797 291.64648438 139.74389648 C292.21520264 140.5134668 292.7839209 141.28303711 293.36987305 142.07592773 C293.97806885 142.91639648 294.58626465 143.75686523 295.21289062 144.62280273 C295.84106689 145.48518555 296.46924316 146.34756836 297.11645508 147.23608398 C310.33099774 165.528243 322.05574291 184.85785632 331.82373047 205.20825195 C332.7913993 207.21856037 333.77689099 209.21947328 334.76367188 211.22045898 C355.4996357 253.70500294 367.66023565 302.69415704 368.01367188 350.00952148 C368.02346573 351.10203217 368.03325958 352.19454285 368.04335022 353.32015991 C368.21605232 377.58679384 368.00257886 401.23447527 363.77539062 425.18530273 C363.56640137 426.4025 363.35741211 427.61969727 363.14208984 428.8737793 C358.86112429 453.13579082 352.19962539 477.39335907 342.77539062 500.18530273 C342.45634766 500.97098633 342.13730469 501.75666992 341.80859375 502.56616211 C336.52681717 515.51979293 330.54627851 527.94690893 323.77539062 540.18530273 C323.41026367 540.84675293 323.04513672 541.50820313 322.66894531 542.18969727 C310.54248742 564.04083537 296.14045239 584.31967512 279.77539062 603.18530273 C279.2368042 603.80783936 278.69821777 604.43037598 278.14331055 605.07177734 C273.96242503 609.88070547 269.68743493 614.59112549 265.33789062 619.24780273 C264.72107422 619.91618164 264.10425781 620.58456055 263.46875 621.27319336 C259.71074096 625.29711772 255.80721499 629.00676678 251.6262207 632.58837891 C249.12100561 634.74991589 246.73891119 637.03414951 244.33789062 639.31030273 C236.93329195 646.18093327 228.90017168 652.1995801 220.77539062 658.18530273 C220.09879395 658.68674805 219.42219727 659.18819336 218.72509766 659.70483398 C202.50409811 671.66254627 185.28709276 682.6194585 167.00195312 691.14428711 C164.43837576 692.34287197 161.88916692 693.57013559 159.33789062 694.79467773 C127.6026049 709.85397888 93.18788012 720.95189368 58.31445312 725.8293457 C56.56028411 726.07526671 54.80772477 726.33285092 53.05664062 726.59985352 C19.87173697 731.54525162 -16.11860446 731.63845997 -49.22460938 726.18530273 C-50.44100098 725.98662598 -51.65739258 725.78794922 -52.91064453 725.58325195 C-75.24710391 721.8158264 -98.33204494 717.13883622 -119.22460938 708.18530273 C-118.73443292 701.14088548 -117.78452426 694.47470085 -116.09960938 687.62280273 C-113.99441633 678.73386308 -112.09913438 669.81280023 -110.28973389 660.8600769 C-107.83387676 648.72502309 -105.26360127 636.62338246 -102.47460938 624.56030273 C-102.05236084 622.71275391 -102.05236084 622.71275391 -101.62158203 620.82788086 C-97.87347464 604.834168 -97.87347464 604.834168 -95.22460938 602.18530273 C-93.2423512 602.28027956 -91.26315414 602.43945838 -89.28710938 602.62280273 C-86.59980549 602.82035881 -83.91342011 603.01128784 -81.22460938 603.18530273 C-80.55187988 603.22896973 -79.87915039 603.27263672 -79.18603516 603.31762695 C-31.68452316 605.9522026 17.98559943 579.58594365 52.77539062 549.18530273 C53.93748047 548.19143555 53.93748047 548.19143555 55.12304688 547.17749023 C58.9442733 543.89373882 62.53478915 540.4627022 66.06054688 536.86499023 C67.73381112 535.22602981 69.46849765 533.73677913 71.27539062 532.24780273 C75.22193925 528.90105996 78.47644886 525.1634384 81.77539062 521.18530273 C82.2265625 520.64647461 82.67773438 520.10764648 83.14257812 519.55249023 C98.23018289 501.49426899 111.02730778 482.57832298 122.77539062 462.18530273 C123.31583008 461.25169922 123.85626953 460.3180957 124.41308594 459.35620117 C132.98150294 444.4487672 140.05552862 429.00101372 146.77539062 413.18530273 C147.14083984 412.33887207 147.50628906 411.49244141 147.8828125 410.62036133 C158.36594495 386.24656752 166.30131706 360.43500823 173.07568359 334.8137207 C173.71779732 332.40164938 174.38379752 329.99799808 175.06054688 327.59545898 C182.66615109 300.25524958 187.40093374 272.1903003 191.77539062 244.18530273 C191.94022949 243.13922852 192.10506836 242.0931543 192.27490234 241.01538086 C194.64759776 225.80237313 196.25078312 210.50345813 197.77539062 195.18530273 C197.9363623 193.59274658 197.9363623 193.59274658 198.10058594 191.96801758 C199.32752507 179.66941345 200.07404122 167.54611906 199.77539062 155.18530273 C199.19144531 155.91233398 199.19144531 155.91233398 198.59570312 156.65405273 C186.1006488 171.62508556 168.06190972 181.02342717 150.67822266 189.28100586 C148.8287543 190.15994232 146.98737695 191.05419785 145.14648438 191.95092773 C131.01518766 198.76423151 116.38333505 204.4308247 101.5402832 209.48803711 C97.57282922 210.84212288 93.62430066 212.23481804 89.69775391 213.70336914 C78.40838223 217.92450457 67.04306576 221.82328833 55.57470703 225.5300293 C52.74807829 226.44413529 49.92375288 227.36511307 47.09960938 228.28686523 C30.7178196 233.61418171 30.7178196 233.61418171 22.89501953 235.58325195 C20.56157393 236.24603436 18.38278639 237.11433436 16.15039062 238.06030273 C11.97395158 239.7918388 7.74307706 241.13307697 3.40039062 242.37280273 C-4.7136634 244.69352973 -12.75243046 247.22880656 -20.78710938 249.81030273 C-21.98835449 250.19468506 -23.18959961 250.57906738 -24.42724609 250.97509766 C-31.51036606 253.25448774 -31.51036606 253.25448774 -38.50976562 255.77514648 C-42.66927805 257.35409915 -46.8709449 258.74342786 -51.09960938 260.12280273 C-56.71288023 261.97112344 -62.22425116 263.91998572 -67.68164062 266.19311523 C-70.94584934 267.46670819 -74.26861318 268.54045758 -77.59960938 269.62280273 C-84.29991672 271.81793201 -90.76690722 274.35862172 -97.22460938 277.18530273 C-98.66593859 277.80136841 -100.10735078 278.41723999 -101.54882812 279.03295898 C-110.50506202 282.89600699 -118.9024411 287.08265941 -127.22460938 292.18530273 C-128.34867188 292.81436523 -129.47273437 293.44342773 -130.63085938 294.09155273 C-134.26371966 296.15788696 -137.65301465 298.48714263 -141.03710938 300.93530273 C-141.64458008 301.37285889 -142.25205078 301.81041504 -142.87792969 302.26123047 C-161.99732842 316.12657807 -178.04047766 332.04894319 -192.09960938 350.99780273 C-192.79642822 351.93100342 -192.79642822 351.93100342 -193.50732422 352.88305664 C-196.1587059 356.50263404 -198.33238896 360.093846 -200.22460938 364.18530273 C-200.88460937 364.18530273 -201.54460937 364.18530273 -202.22460938 364.18530273 C-202.31226563 364.7022168 -202.39992188 365.21913086 -202.49023438 365.75170898 C-203.51031943 369.13209723 -205.25839216 372.05840851 -206.97460938 375.12280273 C-210.70739079 381.94486868 -213.56697154 388.87440009 -216.22460938 396.18530273 C-216.90666755 397.83339869 -217.59387295 399.47937739 -218.28710938 401.12280273 C-229.77832908 429.75818086 -234.77495151 464.29601565 -222.83056641 493.43652344 C-213.3681932 515.32214994 -197.44635685 536.84324833 -178.22460938 551.18530273 C-177.23460937 551.51530273 -176.24460937 551.84530273 -175.22460938 552.18530273 C-175.10085938 550.90397461 -174.97710937 549.62264648 -174.84960938 548.30249023 C-172.01738406 523.07798354 -162.67205153 498.16275009 -152.22460938 475.18530273 C-151.86367188 474.38656738 -151.50273437 473.58783203 -151.13085938 472.76489258 C-141.92204978 452.51270586 -130.81433077 433.80839844 -117.22460938 416.18530273 C-116.39926266 415.09110056 -115.57506985 413.99602717 -114.75195312 412.90014648 C-109.56018085 406.01868467 -104.07416142 399.52059497 -98.22460938 393.18530273 C-96.74447382 391.51949646 -95.26531471 389.85282209 -93.78710938 388.18530273 C-86.72218983 380.34496519 -79.26932032 373.01197646 -71.22460938 366.18530273 C-70.32742188 365.39897461 -69.43023437 364.61264648 -68.50585938 363.80249023 C-39.29605067 338.36597068 -5.48392796 318.92723353 29.77539062 303.18530273 C31.28830688 302.50818237 31.28830688 302.50818237 32.83178711 301.81738281 C41.27801406 298.11085905 49.81349153 294.98652334 58.58789062 292.12280273 C59.9098038 291.68742116 61.23166198 291.25187256 62.5534668 290.81616211 C71.90546019 287.74515187 81.27516827 284.76505615 90.77539062 282.18530273 C92.18111328 281.80245117 92.18111328 281.80245117 93.61523438 281.41186523 C97.62537531 280.41095486 100.78750908 279.89888933 104.77539062 281.18530273 C104.53515625 283.04663086 104.53515625 283.04663086 103.77539062 285.18530273 C101.96875 286.40209961 101.96875 286.40209961 99.61914062 287.40405273 C98.33136719 287.96672852 98.33136719 287.96672852 97.01757812 288.54077148 C96.11265625 288.9184668 95.20773437 289.29616211 94.27539062 289.68530273 C92.96441406 290.2518457 92.96441406 290.2518457 91.62695312 290.82983398 C89.87614438 291.58574696 88.12222372 292.33449389 86.36523438 293.07592773 C83.10178468 294.47384585 79.88275956 295.96239838 76.66796875 297.46850586 C74.77539062 298.18530273 74.77539062 298.18530273 71.77539062 298.18530273 C71.77539062 298.84530273 71.77539062 299.50530273 71.77539062 300.18530273 C70.32132813 300.89493164 70.32132813 300.89493164 68.83789062 301.61889648 C51.52674344 310.131682 35.15806103 319.65278271 19.33398438 330.70874023 C16.73461047 332.52452832 14.12034018 334.31683781 11.49804688 336.09936523 C10.77576904 336.59146484 10.05349121 337.08356445 9.30932617 337.59057617 C7.89707495 338.55198659 6.48323515 339.51106867 5.06762695 340.4675293 C4.09925903 341.12833496 4.09925903 341.12833496 3.11132812 341.80249023 C2.53946777 342.19033691 1.96760742 342.57818359 1.37841797 342.9777832 C-0.31948865 344.25677287 -1.74976085 345.65736688 -3.22460938 347.18530273 C-8.26127072 351.77994761 -13.52066139 356.04310062 -18.92773438 360.19311523 C-21.38394299 362.32350026 -23.21471582 364.63675771 -25.22460938 367.18530273 C-26.52723405 368.38615986 -27.8600699 369.55529348 -29.22460938 370.68530273 C-32.29120198 373.3032642 -34.78438615 375.96072204 -37.22460938 379.18530273 C-39.34960938 381.49780273 -39.34960938 381.49780273 -41.22460938 383.18530273 C-41.88460938 383.18530273 -42.54460937 383.18530273 -43.22460938 383.18530273 C-43.45019531 383.71897461 -43.67578125 384.25264648 -43.90820312 384.80249023 C-45.65463872 387.96369413 -47.94323802 390.58517933 -50.28710938 393.31030273 C-53.58871484 397.01637542 -53.58871484 397.01637542 -56.22460938 401.18530273 C-56.88460938 401.18530273 -57.54460937 401.18530273 -58.22460938 401.18530273 C-58.49015625 401.92651367 -58.75570313 402.66772461 -59.02929688 403.43139648 C-60.20885433 406.14900436 -61.4692329 407.97823206 -63.34960938 410.24780273 C-68.54129404 416.73468755 -73.69068535 423.63310977 -77.22460938 431.18530273 C-77.88460938 431.18530273 -78.54460937 431.18530273 -79.22460938 431.18530273 C-79.39766602 432.04176392 -79.39766602 432.04176392 -79.57421875 432.91552734 C-80.28767853 435.40540558 -81.30471596 437.27876836 -82.63085938 439.50170898 C-83.12320068 440.33911621 -83.61554199 441.17652344 -84.12280273 442.03930664 C-84.65139893 442.93311035 -85.17999512 443.82691406 -85.72460938 444.74780273 C-91.12196174 454.02412434 -95.90115333 463.45610161 -100.33300781 473.22583008 C-101.07694639 474.86078382 -101.83986962 476.48708218 -102.60742188 478.11108398 C-110.06870552 493.99719453 -115.87640841 510.51422792 -121.25878906 527.19799805 C-122.19739342 530.10112316 -123.15100328 532.99894285 -124.10742188 535.89624023 C-127.70823769 546.88866108 -130.82610758 557.90682185 -133.49853516 569.15893555 C-134.335826 572.64886741 -135.19958326 576.13179162 -136.06445312 579.61499023 C-139.76267097 594.56181212 -143.21604727 609.53494286 -146.35144043 624.61013794 C-148.2001147 633.49465052 -150.1687376 642.323791 -152.4453125 651.10913086 C-154.34803058 658.49875691 -155.95358728 665.94615724 -157.52587891 673.41235352 C-158.58414249 678.40357999 -159.74904428 683.30044113 -161.22460938 688.18530273 C-167.83242507 687.80081549 -172.40685505 685.21094337 -178.03710938 681.87280273 C-179.41709106 681.06746094 -179.41709106 681.06746094 -180.82495117 680.24584961 C-200.55868468 668.6036091 -218.94490286 655.2121765 -236.22460938 640.18530273 C-236.93746094 639.57299805 -237.6503125 638.96069336 -238.38476562 638.32983398 C-240.34789379 636.63275604 -242.28852469 634.91316699 -244.22460938 633.18530273 C-245.55878906 632.00774414 -245.55878906 632.00774414 -246.91992188 630.80639648 C-257.54309798 621.32909898 -267.18257383 610.98441335 -276.06835938 599.86108398 C-277.51738112 598.062932 -278.99744301 596.28939799 -280.50585938 594.54077148 C-292.5567181 580.55316761 -302.68722862 565.05251529 -312.04882812 549.16967773 C-313.08914485 547.41392724 -314.15502441 545.6733783 -315.22460938 543.93530273 C-344.15891436 495.71146109 -361.18388926 435.48986277 -361.42773438 379.36889648 C-361.43474869 378.2821312 -361.441763 377.19536591 -361.44898987 376.07566833 C-361.46638486 372.5913371 -361.47284139 369.10717579 -361.47460938 365.62280273 C-361.47528412 364.43245422 -361.47595886 363.24210571 -361.47665405 362.01568604 C-361.46119331 344.87159895 -361.10058471 328.12407429 -358.22460938 311.18530273 C-358.04768555 310.08798828 -357.87076172 308.99067383 -357.68847656 307.86010742 C-351.85329383 272.11331442 -341.30696259 237.65561207 -325.22460938 205.18530273 C-324.74330566 204.19046875 -324.26200195 203.19563477 -323.76611328 202.1706543 C-310.04666186 173.90489948 -291.97710055 147.75650755 -271.22460938 124.18530273 C-270.4228125 123.27135742 -269.62101562 122.35741211 -268.79492188 121.41577148 C-257.31848223 108.63437842 -245.29625735 95.63741274 -231.69335938 85.09936523 C-228.94892763 82.97156214 -226.3504031 80.70762422 -223.72460938 78.43530273 C-216.36203603 72.2870759 -208.44358186 66.98038242 -200.46240234 61.67358398 C-198.52397369 60.38439992 -196.59421586 59.08343985 -194.66601562 57.77905273 C-151.908626 29.44522431 -101.81671512 10.94016547 -51.16503906 3.47338867 C-49.29988374 3.19647834 -47.43791452 2.89836031 -45.57617188 2.59936523 C-30.44134572 0.25261691 -15.28279563 -0.00128817 0 0 Z " fill="#45A257" transform="translate(577.224609375,64.814697265625)"/>
<path d="M0 0 C29.37 0 58.74 0 89 0 C98.15394509 22.23100951 107.23607153 44.47638984 116.125 66.8125 C118.29193484 72.25744343 120.46040479 77.70176874 122.6328125 83.14453125 C122.8970187 83.80656744 123.1612249 84.46860363 123.43343735 85.15070152 C127.83345724 96.16709373 132.33133885 107.14094226 136.89407349 118.09089661 C140.21022568 126.05316379 143.43923054 134.04720954 146.625 142.0625 C154.60418381 162.10090645 162.81272961 182.04592116 171 202 C176.13640345 191.29690125 180.36585867 180.21447463 184.734375 169.18359375 C185.60180369 166.99939128 186.46951685 164.81530176 187.3374939 162.63131714 C189.18470313 157.98233741 191.03045847 153.33278437 192.87506104 148.68276978 C197.71382781 136.48602683 202.56413693 124.2938715 207.4140625 112.1015625 C207.90167431 110.87555391 208.38928612 109.64954533 208.89167404 108.38638496 C218.23310692 84.9009604 227.61928972 61.43375535 237.05079651 37.98436356 C238.12614607 35.30964937 239.20037963 32.63448952 240.27429199 29.959198 C241.9394874 25.81130118 243.60727233 21.66445622 245.27736282 17.51852798 C245.88297693 16.01414313 246.4877694 14.50942721 247.09168625 13.0043602 C247.90521538 10.97758659 248.72191362 8.95212108 249.53955078 6.92700195 C249.99387482 5.7982515 250.44819885 4.66950104 250.91629028 3.50654602 C252 1 252 1 253 0 C282.04 0 311.08 0 341 0 C341 99.33 341 198.66 341 301 C316.25 301 291.5 301 266 301 C264.14264501 299.14264501 264.85487367 296.05962365 264.84178162 293.57774353 C264.83684364 292.89901941 264.83190566 292.2202953 264.82681805 291.52100378 C264.81137051 289.23006957 264.80306294 286.93916353 264.79467773 284.64819336 C264.7851049 283.01259612 264.77509518 281.37700139 264.76467896 279.7414093 C264.73755935 275.28708109 264.71658812 270.83274221 264.69667697 266.37837672 C264.67486078 261.72851395 264.6474508 257.07868433 264.62062073 252.42884827 C264.5706346 243.61740701 264.52571781 234.80594742 264.48259836 225.99447018 C264.43327647 215.96559538 264.37833968 205.93675384 264.32291877 195.90791118 C264.20900789 175.27197175 264.10218878 154.63600059 264 134 C261.17807929 141.60556923 258.35627153 149.21118036 255.53459191 156.81683904 C254.22308397 160.35191579 252.91154304 163.8869803 251.59991455 167.42201233 C245.02820827 185.13381919 238.462141 202.84769261 231.90558624 220.56511497 C221.97712503 247.39173983 211.99406644 274.1977309 202 301 C181.54 301 161.08 301 140 301 C133.56295605 284.22946013 127.13353403 267.45942524 120.88671875 250.6171875 C120.63343937 249.93431923 120.38015999 249.25145096 120.11920547 248.54788971 C118.30623315 243.65781532 116.49665821 238.76648646 114.6875 233.875 C102.23279523 200.20922152 89.60406208 166.61083221 77 133 C76.67 188.44 76.34 243.88 76 301 C50.92 301 25.84 301 0 301 C0 201.67 0 102.34 0 0 Z " fill="#45A257" transform="translate(1093,313)"/>
<path d="M0 0 C4.3970797 -0.12892918 8.77890976 -0.30744345 13.16769505 -0.61073685 C42.23128115 -2.56740211 42.23128115 -2.56740211 49.77887058 3.9657402 C55.64980739 10.00849102 59.39061606 17.61628201 62.92096043 25.17832565 C64.97858047 29.44389162 67.48686946 33.23004189 70.19772434 37.09824753 C71.00174807 38.31465687 71.80134435 39.53400597 72.59616184 40.75645065 C72.97981907 41.34273239 73.3634763 41.92901413 73.7587595 42.53306198 C74.15240696 43.13465134 74.54605442 43.73624069 74.95163059 44.35606003 C75.83174199 45.69922251 76.71195341 47.04231946 77.59225559 48.3853569 C79.80825085 51.76670796 82.02305164 55.14883932 84.23745823 58.53123093 C86.26781062 61.63213628 88.29916808 64.73238293 90.33053684 67.83262253 C92.66618542 71.39729876 95.00174774 74.96203115 97.33664036 78.52720261 C101.52487521 84.92183406 105.71648848 91.3142293 109.91256809 97.70371628 C121.29222226 115.03224574 132.63376685 132.38394768 143.88913059 149.79356003 C150.73880471 160.37250117 157.62959529 170.92477257 164.51413059 181.48106003 C164.84413059 122.08106003 165.17413059 62.68106003 165.51413059 1.48106003 C190.26413059 1.48106003 215.01413059 1.48106003 240.51413059 1.48106003 C240.51413059 100.81106003 240.51413059 200.14106003 240.51413059 302.48106003 C165.51413059 302.48106003 165.51413059 302.48106003 151.51413059 288.54356003 C149.65330543 285.1589674 148.50878573 282.89963588 147.45553684 279.37949753 C143.78969476 269.27373163 138.30110552 261.00713493 132.20141697 252.21299362 C129.25251583 247.92487982 126.41696068 243.56301137 123.56881809 239.20762253 C122.39972513 237.42897124 121.23012571 235.65065274 120.06002903 233.87266159 C119.4763657 232.98518234 118.89270237 232.09770309 118.29135227 231.18333054 C112.88870254 222.9685866 107.48446693 214.75489071 102.07663059 206.54356003 C101.47996586 205.63749008 100.88330112 204.73142014 100.26855564 203.79789352 C89.89394361 188.04805183 79.4501118 172.34499194 68.96164036 156.67075729 C63.68355212 148.77776305 58.43525236 140.86772299 53.27194309 132.89902878 C52.80513126 132.17919312 52.33831944 131.45935745 51.85736179 130.71770859 C48.64108234 125.73496351 48.64108234 125.73496351 47.51413059 123.48106003 C47.18413059 182.55106003 46.85413059 241.62106003 46.51413059 302.48106003 C21.76413059 302.48106003 -2.98586941 302.48106003 -28.48586941 302.48106003 C-30.12895428 300.83797515 -29.61130523 298.9564933 -29.61171055 296.6912117 C-29.6143183 295.64830207 -29.61692604 294.60539245 -29.61961281 293.5308795 C-29.61738209 292.37108092 -29.61515137 291.21128234 -29.61285305 290.01633835 C-29.61441304 288.79520733 -29.61597303 287.57407632 -29.61758029 286.31594133 C-29.62089368 282.91104143 -29.61968104 279.50619618 -29.61659408 276.10129952 C-29.61434191 272.43527676 -29.61781867 268.76925895 -29.620574 265.10323715 C-29.62503266 257.91541112 -29.6240548 250.7275955 -29.62116136 243.53976905 C-29.6189077 237.70074558 -29.61859464 231.86172504 -29.61968517 226.02270126 C-29.61983841 225.19329247 -29.61999164 224.36388367 -29.62014952 223.50934127 C-29.62046922 221.82468553 -29.62079344 220.1400298 -29.62112211 218.45537406 C-29.62397718 202.63918062 -29.62068945 186.82299297 -29.61532174 171.00680047 C-29.61085368 157.42058071 -29.6116296 143.83436948 -29.6162405 130.24814987 C-29.62158578 114.49054241 -29.62370249 98.73294003 -29.62062824 82.97533178 C-29.62030967 81.29669412 -29.6199953 79.61805646 -29.61968517 77.93941879 C-29.6195309 77.11338552 -29.61937662 76.28735225 -29.61921767 75.43628767 C-29.61835238 69.60079247 -29.61981566 63.76530047 -29.62216473 57.92980576 C-29.62496242 50.82329327 -29.62422513 43.71679184 -29.61888398 36.61028063 C-29.61624654 32.98086604 -29.61524262 29.35146991 -29.61853313 25.72205544 C-29.62203834 21.7966203 -29.61786778 17.87121574 -29.61285305 13.94578171 C-29.61508377 12.78598313 -29.61731449 11.62618455 -29.61961281 10.43124056 C-29.61700507 9.38833093 -29.61439732 8.3454213 -29.61171055 7.27090836 C-29.6115482 6.36353912 -29.61138584 5.45616988 -29.61121857 4.52130461 C-29.24328074 -1.46743235 -5.52812103 0.15804423 0 0 Z " fill="#45A257" transform="translate(3395.485869407654,311.5189399719238)"/>
<path d="M0 0 C17.47464178 16.41414617 31.39988359 39.13042051 34.71875 63.09375 C24.20079255 63.39584237 13.68387701 63.62637805 3.16245461 63.76730824 C-1.72415444 63.83497514 -6.60778266 63.92662521 -11.49267578 64.07446289 C-16.21326225 64.21642288 -20.93099593 64.29358071 -25.65355301 64.32715416 C-27.44878689 64.35105442 -29.2438757 64.39773547 -31.03788376 64.46824074 C-44.7550757 64.98556079 -44.7550757 64.98556079 -48.97110748 61.82824326 C-51.48900436 59.23699645 -53.39378419 56.43295128 -55.22769165 53.33232117 C-61.4398513 43.5354137 -74.07867828 38.41924662 -84.84375 35.28125 C-106.51623941 30.76506658 -128.298097 33.80957552 -147.28125 45.09375 C-165.73234297 57.70620944 -174.92923858 76.70361385 -179.28125 98.09375 C-179.88222337 101.77471189 -180.16802099 105.36703858 -180.28125 109.09375 C-180.32121094 110.38925781 -180.36117187 111.68476563 -180.40234375 113.01953125 C-180.89736244 137.57639569 -176.08225803 161.4072581 -159.28125 180.09375 C-158.75144531 180.71636719 -158.22164062 181.33898437 -157.67578125 181.98046875 C-145.27105594 195.61035211 -125.62731243 202.11239846 -107.64697266 203.26220703 C-85.28733536 204.19957825 -65.64541688 200.23044358 -48.28125 185.09375 C-38.49313306 175.9877318 -33.18052354 164.34193386 -28.28125 152.09375 C-58.64125 152.09375 -89.00125 152.09375 -120.28125 152.09375 C-120.3121875 138.7596875 -120.3121875 138.7596875 -120.34375 125.15625 C-120.352854 122.34617432 -120.36195801 119.53609863 -120.37133789 116.64086914 C-120.37425683 114.42854866 -120.37680544 112.21622765 -120.37890625 110.00390625 C-120.38402222 108.84306519 -120.38913818 107.68222412 -120.39440918 106.48620605 C-120.39459045 104.84186584 -120.39459045 104.84186584 -120.39477539 103.16430664 C-120.396996 102.20722305 -120.39921661 101.25013947 -120.40150452 100.26405334 C-120.28125 98.09375 -120.28125 98.09375 -119.28125 97.09375 C-117.23097261 96.99694959 -115.17730121 96.97188057 -113.1247406 96.97349548 C-112.47460135 96.97264106 -111.8244621 96.97178663 -111.15462166 96.97090632 C-108.9603942 96.96924974 -106.76624198 96.97477575 -104.57202148 96.98022461 C-103.00539146 96.98050647 -101.4387613 96.98034877 -99.87213135 96.9797821 C-95.60578623 96.97949408 -91.33946898 96.98539157 -87.07313037 96.99235606 C-82.61947949 96.99858882 -78.16582803 96.99919334 -73.71217346 97.00038147 C-65.27257557 97.00349502 -56.83299056 97.01170872 -48.39339834 97.02173096 C-38.78775556 97.03289137 -29.18211218 97.03840236 -19.57646453 97.04342639 C0.18861418 97.05389132 19.95368128 97.07149121 39.71875 97.09375 C39.85884817 106.20489657 39.96491961 115.31566258 40.02962303 124.42765808 C40.06070511 128.6604972 40.10274302 132.89259016 40.17138672 137.125 C40.23742033 141.22294249 40.27262897 145.32017545 40.28801346 149.41860962 C40.29895167 150.96850736 40.3203031 152.51837399 40.35313034 154.06796265 C40.58753842 165.61058582 38.44100561 174.56626185 33.71875 185.09375 C33.1788015 186.29985176 33.1788015 186.29985176 32.62794495 187.53031921 C16.08197855 222.2737224 -14.05323338 248.62461515 -49.86669922 262.06396484 C-55.59365894 264.0633829 -61.3845919 265.67898849 -67.28125 267.09375 C-67.99796875 267.27019043 -68.7146875 267.44663086 -69.453125 267.62841797 C-110.60271334 277.23951395 -156.72770118 268.03746039 -192.40576172 246.28955078 C-197.66492129 242.93634021 -202.51622026 239.10847664 -207.28125 235.09375 C-207.79139648 234.66868164 -208.30154297 234.24361328 -208.82714844 233.80566406 C-238.64573724 208.67636507 -254.10261421 171.07113542 -258.03125 132.96875 C-258.14635136 131.01202683 -258.22540845 129.05305998 -258.28125 127.09375 C-258.30171387 126.39137207 -258.32217773 125.68899414 -258.34326172 124.96533203 C-259.41361321 82.07165931 -247.68674646 40.4199189 -217.80664062 8.71264648 C-162.39549245 -48.80730175 -59.77316474 -53.92737846 0 0 Z " fill="#45A257" transform="translate(2544.28125,345.90625)"/>
<path d="M0 0 C2.42615195 2.22566891 4.79609165 4.50556904 7.16723633 6.78979492 C7.86075195 7.42014648 8.55426758 8.05049805 9.26879883 8.69995117 C35.85535433 33.59065643 49.74737335 71.8180575 51.28833008 107.60180664 C52.6694242 150.4226299 40.70028888 191.94744506 11.12426758 223.75073242 C8.83780092 226.133039 6.53315151 228.48614066 4.16723633 230.78979492 C3.71735352 231.28479492 3.2674707 231.77979492 2.80395508 232.28979492 C-20.14019556 256.88501347 -58.37530057 270.36142883 -91.30688477 271.95825195 C-128.43035964 273.12124979 -162.96633887 266.3199742 -193.83276367 244.78979492 C-194.38834961 244.40774902 -194.94393555 244.02570313 -195.51635742 243.63208008 C-228.40572028 220.71008708 -249.09236889 184.73162109 -256.21948242 145.71166992 C-257.69811873 136.25593201 -258.07332436 126.98945048 -258.08276367 117.41479492 C-258.08377075 116.70525665 -258.08477783 115.99571838 -258.08581543 115.26467896 C-258.07490279 103.87429514 -257.39186807 92.91657328 -254.83276367 81.78979492 C-254.68822754 81.13849609 -254.54369141 80.48719727 -254.39477539 79.81616211 C-245.71530927 41.61882173 -221.90219639 7.84233025 -188.83276367 -13.21020508 C-131.64807837 -48.8965836 -51.01113282 -45.66312787 0 0 Z M-161.42797852 56.11889648 C-178.81279093 76.79697368 -182.79365293 104.04598367 -180.63061523 130.23754883 C-178.0598697 153.30150168 -168.9107573 173.8354287 -150.83276367 188.78979492 C-133.51137827 201.78624015 -111.13131514 206.2901861 -89.83276367 203.28979492 C-69.49385625 199.62212309 -52.2619287 189.28488605 -40.36523438 172.34179688 C-25.37362911 149.97988498 -22.6269573 120.19028299 -27.35668945 94.15649414 C-31.45855692 74.24149983 -41.86608422 54.83065205 -59.12963867 43.41870117 C-66.98127004 38.68729903 -74.90072 34.9205036 -83.83276367 32.78979492 C-84.65905273 32.58483398 -85.4853418 32.37987305 -86.33666992 32.16870117 C-113.89075018 26.21439173 -142.68507053 35.12332564 -161.42797852 56.11889648 Z " fill="#45A257" transform="translate(2118.832763671875,345.210205078125)"/>
<path d="M0 0 C42.21598872 -1.13182188 82.29605609 13.31060314 113.296875 42.09375 C141.70191672 69.13935648 157.95044065 108.09007537 159.10546875 147.16015625 C159.14542969 148.28679687 159.18539062 149.4134375 159.2265625 150.57421875 C159.99815573 192.96645843 145.31426579 234.00434431 115.81689453 264.85351562 C87.44884357 293.71029361 48.88557284 308.82367312 8.66357422 309.51367188 C-4.71662826 309.62178168 -17.80356815 309.06925916 -30.89453125 306.16015625 C-31.64412109 305.99386719 -32.39371094 305.82757812 -33.16601562 305.65625 C-60.74138105 299.26539278 -84.38015526 285.51783443 -104.89453125 266.16015625 C-105.62027344 265.49886719 -106.34601563 264.83757812 -107.09375 264.15625 C-132.25992202 240.3455271 -148.7723427 203.41488267 -150.09960938 168.86206055 C-150.2017612 165.00265015 -150.22093562 161.145279 -150.21020508 157.28466797 C-150.20705281 154.92628309 -150.23058386 152.56916804 -150.25585938 150.2109375 C-150.42311634 110.18657954 -133.83666262 73.70177833 -106.60546875 44.83203125 C-102.29556109 40.584226 -97.69239201 36.83896289 -92.89453125 33.16015625 C-91.9715625 32.42152344 -91.04859375 31.68289063 -90.09765625 30.921875 C-64.30494607 10.74082203 -32.42240024 1.33331837 0 0 Z M-54.20703125 93.80859375 C-71.49525813 115.59409587 -74.95847748 142.65137189 -72.67626953 169.75195312 C-70.16140637 190.84321323 -61.25429267 210.47990769 -45.16015625 224.55078125 C-27.2083506 238.14434507 -4.96979352 243.57076845 17.33789062 240.89208984 C36.54153677 237.8203754 53.77138001 228.1206998 65.53515625 212.51196289 C81.38044686 190.19290302 85.28850488 161.21302211 80.85546875 134.59765625 C77.9478022 118.58895951 72.02105811 104.36683682 61.10546875 92.16015625 C59.99558594 90.89171875 59.99558594 90.89171875 58.86328125 89.59765625 C49.24500171 79.25406382 37.75413993 73.45945335 24.10546875 70.16015625 C23.21601563 69.93585938 22.3265625 69.7115625 21.41015625 69.48046875 C-5.93065788 63.5226197 -35.77228018 72.69582141 -54.20703125 93.80859375 Z " fill="#45A257" transform="translate(4397.89453125,307.83984375)"/>
<path d="M0 0 C152.34177215 0 152.34177215 0 175 8 C175.87527344 8.28359375 176.75054688 8.5671875 177.65234375 8.859375 C197.26302894 15.77695447 214.07047487 30.77723395 223.34301758 49.26538086 C235.52515156 74.90636643 237.07911394 102.5174543 227.87109375 129.28125 C222.96519184 141.84554003 215.34416001 151.50556841 206 161 C205.36578125 161.65871094 204.7315625 162.31742188 204.078125 162.99609375 C195.6320548 171.08713002 179.9150918 181 168 181 C174.00909053 192.0503708 180.28096564 202.92379685 186.71820068 213.73028564 C191.75056373 222.18022176 196.72169559 230.66168634 201.625 239.1875 C206.43743184 247.55398928 211.26281115 255.91230666 216.125 264.25 C216.6912207 265.22243652 217.25744141 266.19487305 217.84082031 267.19677734 C220.78576043 272.24464408 223.75713027 277.2748793 226.765625 282.28515625 C227.37132324 283.29739258 227.97702148 284.30962891 228.60107422 285.35253906 C229.75844048 287.28371282 230.92128224 289.21161867 232.09033203 291.13574219 C232.60450684 291.99458008 233.11868164 292.85341797 233.6484375 293.73828125 C234.33172119 294.86810425 234.33172119 294.86810425 235.02880859 296.02075195 C236 298 236 298 236 301 C208.28 301 180.56 301 152 301 C146.76754348 291.84320109 141.57954845 282.6777355 136.5 273.4375 C135.80740903 272.17962287 135.11469768 270.92181202 134.421875 269.6640625 C132.99042537 267.06519436 131.55948047 264.46604933 130.12890625 261.86669922 C127.08652072 256.33964109 124.03774908 250.81610822 120.98919678 245.29244995 C119.6701148 242.90223956 118.35140399 240.51182448 117.03268433 238.12141418 C114.27050702 233.11451712 111.50773862 228.10794704 108.74407959 223.10186768 C107.3010901 220.48799161 105.85830167 217.8740046 104.41552734 215.26000977 C103.73528862 214.02769555 103.0549541 212.7954342 102.37451172 211.56323242 C100.82674698 208.76038673 99.28047415 205.95674633 97.73730469 203.15136719 C96.56714045 201.02875898 95.3905713 198.90967061 94.20800781 196.79394531 C93.38187988 195.30652832 93.38187988 195.30652832 92.5390625 193.7890625 C92.04873535 192.9120166 91.5584082 192.0349707 91.05322266 191.13134766 C90 189 90 189 90 187 C85.05 187 80.1 187 75 187 C75.00222061 188.39870331 75.00444122 189.79740662 75.00672913 191.23849487 C75.02696549 204.3941055 75.04197454 217.54971298 75.05181217 230.70533562 C75.05697284 237.46941629 75.06401119 244.23348536 75.07543945 250.99755859 C75.08645478 257.52032554 75.09227779 264.04308494 75.09487724 270.56586075 C75.09673068 273.05944128 75.10034974 275.55302111 75.10573006 278.04659653 C75.11294639 281.52831217 75.11399069 285.00997735 75.11352539 288.49169922 C75.11712067 289.53179138 75.12071594 290.57188354 75.12442017 291.64349365 C75.1230455 292.58862823 75.12167084 293.53376282 75.12025452 294.50753784 C75.12117631 295.33162077 75.1220981 296.1557037 75.12304783 297.00475883 C75 299 75 299 74 301 C49.58 301 25.16 301 0 301 C0 201.67 0 102.34 0 0 Z M75 62 C74.07875117 69.52114636 73.85330919 76.93543572 73.8671875 84.5078125 C73.86623077 85.67327606 73.86527405 86.83873962 73.86428833 88.03952026 C73.86361155 90.48842422 73.86543061 92.93733002 73.86962891 95.38623047 C73.87499398 99.12080935 73.86966178 102.85526851 73.86328125 106.58984375 C73.86394193 108.97916693 73.86522289 111.36849004 73.8671875 113.7578125 C73.86516327 114.86633575 73.86313904 115.97485901 73.86105347 117.11697388 C73.87826434 122.84038587 74.13963979 128.33973543 75 134 C82.50725743 134.07643488 90.01441346 134.12876094 97.52197266 134.16479492 C100.07279206 134.17982636 102.62358585 134.20025705 105.17431641 134.22631836 C108.85325463 134.26294972 112.53184935 134.27978346 116.2109375 134.29296875 C117.34050873 134.30845261 118.47007996 134.32393646 119.63388062 134.33988953 C130.37606977 134.34214257 139.76449855 132.21000798 148 125 C155.82333668 116.23717966 157.57273119 105.80376249 157.28515625 94.36328125 C156.47300769 84.78437834 152.85931494 76.38229641 145.8125 69.75 C139.32504832 64.52873955 130.93223326 61.86682802 122.68066406 61.88647461 C121.08946747 61.88658791 121.08946747 61.88658791 119.46612549 61.88670349 C118.32746033 61.89186478 117.18879517 61.89702606 116.015625 61.90234375 C114.84489441 61.9037587 113.67416382 61.90517365 112.46795654 61.90663147 C108.72861171 61.9122291 104.98932674 61.9247812 101.25 61.9375 C98.71484461 61.9425153 96.17968829 61.94707816 93.64453125 61.95117188 C87.42966707 61.96219776 81.21483781 61.97893356 75 62 Z " fill="#45A257" transform="translate(2625,313)"/>
<path d="M0 0 C1.31238144 0.00222061 2.62476288 0.00444122 3.97691345 0.00672913 C4.71053573 0.00660859 5.444158 0.00648806 6.20001125 0.00636387 C8.58522973 0.00711291 10.97037099 0.01474069 13.35557556 0.02259827 C14.82395897 0.02406771 16.29234289 0.02508841 17.76072693 0.02565002 C23.21813235 0.03090258 28.67552658 0.04486367 34.13291931 0.05775452 C52.41698181 0.08869202 52.41698181 0.08869202 71.07041931 0.12025452 C71.07041931 38.73025452 71.07041931 77.34025452 71.07041931 117.12025452 C107.70041931 117.12025452 144.33041931 117.12025452 182.07041931 117.12025452 C182.05881775 108.75810608 182.04721619 100.39595764 182.03526306 91.78041077 C182.02950765 85.82733596 182.02438073 79.87426322 182.02016544 73.9211874 C182.0146137 66.19953233 182.00755415 58.47788801 181.99497986 50.75624084 C181.98397244 43.99357384 181.97814312 37.23092087 181.97554207 30.46824455 C181.97368728 27.88173171 181.97006564 25.29521954 181.96468925 22.70871162 C181.9574828 19.09986596 181.9564282 15.49106905 181.95689392 11.88221741 C181.95329865 10.80112701 181.94970337 9.72003662 181.94599915 8.60618591 C181.94737381 7.62876938 181.94874847 6.65135284 181.95016479 5.64431763 C181.94878211 4.36256448 181.94878211 4.36256448 181.94737148 3.05491734 C182.07041931 1.12025452 182.07041931 1.12025452 183.07041931 0.12025452 C207.49041931 0.12025452 231.91041931 0.12025452 257.07041931 0.12025452 C257.07041931 99.45025452 257.07041931 198.78025452 257.07041931 301.12025452 C232.65041931 301.12025452 208.23041931 301.12025452 183.07041931 301.12025452 C182.07041931 300.12025452 182.07041931 300.12025452 181.94737148 298.0762701 C181.94829328 297.1701476 181.94921507 296.2640251 181.95016479 295.33044434 C181.9481028 293.77597092 181.9481028 293.77597092 181.94599915 292.19009399 C181.94959442 291.04354843 181.9531897 289.89700287 181.95689392 288.7157135 C181.95674789 287.5158783 181.95660187 286.31604309 181.95645142 285.07984924 C181.95703037 281.78040261 181.96205953 278.48101788 181.96902537 275.18158221 C181.97525958 271.73691155 181.97586276 268.29224013 181.97705078 264.8475647 C181.9801639 258.32042722 181.98837702 251.79330641 181.99840027 245.26617628 C182.01065611 237.10881493 182.01614402 228.9514509 182.02159119 220.79408264 C182.03134245 206.23612693 182.05137271 191.67820762 182.07041931 177.12025452 C145.44041931 177.12025452 108.81041931 177.12025452 71.07041931 177.12025452 C71.07041931 218.04025452 71.07041931 258.96025452 71.07041931 301.12025452 C52.78635681 301.15119202 52.78635681 301.15119202 34.13291931 301.18275452 C30.278703 301.19185852 26.42448669 301.20096252 22.45347595 301.21034241 C17.76072693 301.21485901 17.76072693 301.21485901 15.5664978 301.21569824 C14.02820548 301.21723765 12.48991439 301.22076251 10.95162964 301.22583008 C8.62670279 301.2331087 6.30184992 301.2341619 3.97691345 301.23377991 C2.66453201 301.23600052 1.35215057 301.23822113 0 301.24050903 C-2.92958069 301.12025452 -2.92958069 301.12025452 -3.92958069 300.12025452 C-4.02752324 298.52609335 -4.05513605 296.9275732 -4.05542183 295.33040619 C-4.05802958 294.28749656 -4.06063732 293.24458694 -4.06332409 292.17007399 C-4.06109337 291.01027541 -4.05886265 289.85047683 -4.05656433 288.65553284 C-4.05812432 287.43440182 -4.05968431 286.21327081 -4.06129158 284.95513582 C-4.06460496 281.55023591 -4.06339232 278.14539067 -4.06030536 274.74049401 C-4.05805319 271.07447125 -4.06152995 267.40845344 -4.06428528 263.74243164 C-4.06874394 256.55460561 -4.06776608 249.36678999 -4.06487264 242.17896354 C-4.06261898 236.33994007 -4.06230592 230.50091953 -4.06339645 224.66189575 C-4.06354969 223.83248695 -4.06370292 223.00307816 -4.0638608 222.14853576 C-4.06418051 220.46388002 -4.06450472 218.77922429 -4.06483339 217.09456855 C-4.06768846 201.27837511 -4.06440073 185.46218745 -4.05903302 169.64599496 C-4.05456496 156.0597752 -4.05534088 142.47356397 -4.05995178 128.88734436 C-4.06529706 113.1297369 -4.06741377 97.37213451 -4.06433952 81.61452627 C-4.06402095 79.93588861 -4.06370658 78.25725095 -4.06339645 76.57861328 C-4.06324218 75.75258001 -4.0630879 74.92654674 -4.06292895 74.07548216 C-4.06206366 68.23998695 -4.06352694 62.40449495 -4.06587601 56.56900024 C-4.0686737 49.46248776 -4.06793641 42.35598633 -4.06259526 35.24947512 C-4.05995782 31.62006053 -4.0589539 27.9906644 -4.06224442 24.36124992 C-4.06574962 20.43581479 -4.06157906 16.51041023 -4.05656433 12.5849762 C-4.05879505 11.42517762 -4.06102577 10.26537904 -4.06332409 9.07043505 C-4.06071635 8.02752542 -4.0581086 6.98461579 -4.05542183 5.91010284 C-4.05525948 5.00273361 -4.05509712 4.09536437 -4.05492985 3.1604991 C-3.85396111 -0.1105669 -3.33285006 0.13680807 0 0 Z " fill="#45A257" transform="translate(3951.9295806884766,312.87974548339844)"/>
<path d="M0 0 C0.82757812 0.64066406 1.65515625 1.28132813 2.5078125 1.94140625 C19.60366838 16.06290476 28.59335285 37.34017563 31 59 C31 61.64 31 64.28 31 67 C4.27 67 -22.46 67 -50 67 C-50.99 63.535 -50.99 63.535 -52 60 C-55.66332465 49.37943694 -59.96089889 44.20022295 -70 39 C-78.54909052 35.38307709 -89.59605259 35.70679661 -98.17578125 39.1640625 C-98.77777344 39.43992187 -99.37976562 39.71578125 -100 40 C-100.9075 40.391875 -101.815 40.78375 -102.75 41.1875 C-107.92595685 45.35702079 -110.6310695 51.17865418 -111.77734375 57.64453125 C-112.43452905 64.59686 -111.64882551 70.42810331 -107.5546875 76.19921875 C-95.98216273 89.60357533 -75.02939668 94.42338258 -59 100 C11.81135434 124.6820976 11.81135434 124.6820976 27.8125 155.9375 C37.93337461 177.17058774 37.05323783 201.4319034 29.58422852 223.38696289 C20.99997439 247.00943697 2.47360183 263.53200179 -19.77197266 274.00683594 C-47.69835594 286.45528292 -82.37840314 287.85849348 -112 281 C-113.2890625 280.7215625 -114.578125 280.443125 -115.90625 280.15625 C-125.46776229 277.86464788 -134.13726775 274.15624805 -143 270 C-143.79148437 269.65066406 -144.58296875 269.30132813 -145.3984375 268.94140625 C-151.48683733 266.14571245 -156.70399821 262.05787166 -162 258 C-162.92619141 257.32710937 -162.92619141 257.32710937 -163.87109375 256.640625 C-178.85832506 244.99586974 -187.94003371 226.12075348 -192 208 C-192.19722656 207.12601563 -192.39445312 206.25203125 -192.59765625 205.3515625 C-193.20778762 200.26910893 -193 195.11894468 -193 190 C-166.6 190 -140.2 190 -113 190 C-111.68 194.95 -110.36 199.9 -109 205 C-103.43863247 214.62544381 -97.50502224 219.59079905 -86.77734375 222.5 C-74.79650142 224.65688863 -63.17617455 222.73873766 -53 216 C-47.43101646 210.5456046 -45.06003028 204.43647678 -44.625 196.6875 C-44.89175868 188.83145677 -47.64469361 182.86706788 -53.25 177.375 C-57.33206541 174.05739976 -61.55206057 171.44027747 -66.25 169.10546875 C-67.28957855 168.58842125 -67.28957855 168.58842125 -68.35015869 168.06092834 C-75.50364789 164.60528943 -82.88874577 162.07044092 -90.44970703 159.66860962 C-92.81823006 158.91581422 -95.18100866 158.14690466 -97.54296875 157.3737793 C-100.64885002 156.35796965 -103.75611582 155.34667805 -106.86523438 154.34082031 C-137.30189829 144.48410093 -168.24307086 133.41393443 -184.78515625 103.8046875 C-195.29968578 82.36228083 -195.37813281 57.13720287 -188.09448242 34.66503906 C-180.16078432 11.6980221 -162.29250575 -3.71271721 -140.95996094 -14.10400391 C-98.40871917 -33.55630302 -36.77099277 -29.84063432 0 0 Z " fill="#45A257" transform="translate(1798,333)"/>
<path d="M0 0 C0.98871094 0.78117187 1.97742187 1.56234375 2.99609375 2.3671875 C22.11072171 19.1204505 27.27277155 41.45494392 30 66 C3.27 66 -23.46 66 -51 66 C-52.39139758 62.52150604 -53.27301809 59.85054858 -54.0625 56.3125 C-56.19753995 49.13490338 -61.05062381 43.38726248 -67.44921875 39.51953125 C-69.61851375 38.52631684 -71.718811 37.69351635 -74 37 C-74.6084375 36.81050781 -75.216875 36.62101562 -75.84375 36.42578125 C-86.3143884 34.35820954 -96.35964813 35.81617111 -105.3125 41.5 C-110.7434095 45.87941604 -112.41333213 51.90554713 -113.375 58.6171875 C-113.72369089 65.61279848 -111.9296686 71.37646252 -107.515625 76.8359375 C-95.22584224 88.85382241 -75.75204823 93.54229842 -60 99 C9.72515234 123.27750691 9.72515234 123.27750691 26 154 C36.39596208 175.59587857 35.83782882 199.49072204 28.4765625 221.98828125 C24.11146084 234.36000714 16.59640504 245.10577094 7 254 C6.39027344 254.59167969 5.78054687 255.18335938 5.15234375 255.79296875 C-17.08927562 276.662147 -47.0241106 283.45630391 -76.6875 283.3125 C-77.43090637 283.31134186 -78.17431274 283.31018372 -78.94024658 283.30899048 C-90.53229197 283.27335186 -101.66568898 282.5343801 -113 280 C-114.62035156 279.67515625 -114.62035156 279.67515625 -116.2734375 279.34375 C-134.03625168 275.427539 -151.28348095 266.87102376 -165 255 C-165.825 254.36707031 -166.65 253.73414063 -167.5 253.08203125 C-182.23432297 240.8111029 -190.25509665 222.35002641 -194 204 C-194.33 199.05 -194.66 194.1 -195 189 C-168.27 189 -141.54 189 -114 189 C-113.01 193.29 -112.02 197.58 -111 202 C-106.68636264 210.72759187 -101.90582696 216.2386642 -92.75 219.8125 C-82.3517017 223.10529446 -71.12866617 223.56046184 -61 219 C-55.40281344 216.00245459 -50.68859314 212.91490491 -48 207 C-45.69659249 197.88284775 -45.24496861 190.29813728 -49.625 181.875 C-64.56780398 163.78634255 -90.48166073 158.89416883 -111.92089844 152.0703125 C-141.14766602 142.76198447 -171.17873597 130.31217594 -186.5703125 101.99609375 C-196.39555427 81.4060379 -196.58537126 56.6251714 -190 35 C-186.3822126 24.85682701 -181.37610908 15.89779853 -174 8 C-173.37480469 7.30777344 -172.74960938 6.61554688 -172.10546875 5.90234375 C-130.74035277 -37.82167905 -45.00445536 -36.97268678 0 0 Z " fill="#45A257" transform="translate(3874,334)"/>
<path d="M0 0 C149.22316986 0 149.22316986 0 171 8 C172.20398437 8.44214844 173.40796875 8.88429688 174.6484375 9.33984375 C196.89296812 18.20328255 213.06649961 34.43316628 222.5 56.2421875 C232.91784567 81.61932664 233.08861172 111.04016099 222.59375 136.3828125 C212.25957097 159.83734628 193.58634623 175.97891548 170.0703125 185.5 C159.36405738 189.58345907 148.38779409 191.42793451 137.03515625 192.60546875 C134.12697002 192.66967678 134.12697002 192.66967678 133 194 C131.18944975 194.09376053 129.37522799 194.1174411 127.56225586 194.11352539 C125.79609924 194.11334412 125.79609924 194.11334412 123.9942627 194.11315918 C122.74705444 194.10804321 121.49984619 194.10292725 120.21484375 194.09765625 C119.07567505 194.09664917 117.93650635 194.09564209 116.76281738 194.09460449 C112.48770142 194.08935338 108.21259975 194.07539227 103.9375 194.0625 C94.388125 194.041875 84.83875 194.02125 75 194 C75 229.31 75 264.62 75 301 C50.25 301 25.5 301 0 301 C0 201.67 0 102.34 0 0 Z M75 60 C75 84.09 75 108.18 75 133 C83.0025 133.0825 91.005 133.165 99.25 133.25 C101.75110352 133.28641602 104.25220703 133.32283203 106.82910156 133.36035156 C108.84960069 133.37205268 110.87010938 133.38224112 112.890625 133.390625 C114.41792236 133.4213208 114.41792236 133.4213208 115.97607422 133.45263672 C126.97177895 133.45788026 136.84010428 130.56572856 145 123 C152.4519162 115.34108613 154.30417649 105.63114437 154.31469727 95.35351562 C154.12989106 85.65173633 151.59931036 77.62146264 144.703125 70.609375 C144.14109375 70.07828125 143.5790625 69.5471875 143 69 C141.9171875 67.88625 141.9171875 67.88625 140.8125 66.75 C131.04691065 60.67363329 119.89070507 59.83967308 108.69140625 59.90234375 C107.40453918 59.90385437 107.40453918 59.90385437 106.0916748 59.90539551 C102.91526943 59.91059099 99.73888324 59.92455201 96.5625 59.9375 C89.446875 59.958125 82.33125 59.97875 75 60 Z " fill="#45A257" transform="translate(4596,313)"/>
<path d="M0 0 C0.71691259 0.00291284 1.43382519 0.00582568 2.1724624 0.00882679 C2.92877402 0.00797237 3.68508563 0.00711794 4.46431577 0.00623763 C7.01784728 0.00458055 9.57131419 0.01010789 12.12483972 0.01555592 C13.94762413 0.01583777 15.77040865 0.0156801 17.59319299 0.01511341 C22.55786133 0.01482535 27.52250574 0.02072352 32.48716849 0.02768737 C37.66952721 0.03391943 42.85188641 0.03452459 48.03424829 0.03571278 C57.85506804 0.03882653 67.67587672 0.04704051 77.49669158 0.05706227 C88.67425152 0.06822204 99.85181197 0.07373351 111.02937609 0.0787577 C134.02922244 0.08922309 157.0290536 0.10756912 180.02889246 0.12908131 C180.02889246 19.92908131 180.02889246 39.72908131 180.02889246 60.12908131 C143.39889246 60.12908131 106.76889246 60.12908131 69.02889246 60.12908131 C69.02889246 79.26908131 69.02889246 98.40908131 69.02889246 118.12908131 C76.01947839 118.11747975 83.01006433 118.10587818 90.21248621 118.09392506 C94.62850275 118.08881843 99.04451569 118.08400466 103.46053308 118.08025318 C110.47722367 118.07426426 117.49390127 118.06716265 124.51058191 118.05364186 C130.16450958 118.04281461 135.81842332 118.03680482 141.47236055 118.03420407 C143.63462856 118.03234952 145.79689577 118.02872835 147.95915788 118.02335125 C150.97647903 118.01614298 153.99374189 118.01509028 157.01107019 118.01555592 C158.36620973 118.010163 158.36620973 118.010163 159.74872583 118.00466114 C165.9148403 118.01502915 165.9148403 118.01502915 167.02889246 119.12908131 C167.1225987 120.90900055 167.14633517 122.6926487 167.14241785 124.47502857 C167.142297 125.63216358 167.14217615 126.78929859 167.14205164 127.9814983 C167.13693567 129.20711476 167.1318197 130.43273121 167.12654871 131.69548756 C167.12554163 132.81499806 167.12453455 133.93450855 167.12349695 135.08794361 C167.11824595 139.28916653 167.10428484 143.4903749 167.09139246 147.69158131 C167.07076746 157.07595631 167.05014246 166.46033131 167.02889246 176.12908131 C134.68889246 176.12908131 102.34889246 176.12908131 69.02889246 176.12908131 C69.02889246 197.57908131 69.02889246 219.02908131 69.02889246 241.12908131 C105.65889246 241.12908131 142.28889246 241.12908131 180.02889246 241.12908131 C180.02889246 260.92908131 180.02889246 280.72908131 180.02889246 301.12908131 C155.92515823 301.15162599 131.82143249 301.17005911 107.71769041 301.18089348 C96.52674286 301.18605703 85.33580231 301.19310085 74.14485925 301.20452076 C64.39459868 301.2144658 54.64434317 301.22093431 44.89407766 301.2231698 C39.72800148 301.22447722 34.56193979 301.227565 29.39586824 301.23481137 C24.53932912 301.24156875 19.68281056 301.24369885 14.82626718 301.24218899 C13.03836004 301.24246545 11.25045225 301.24447223 9.46254915 301.24828678 C7.03249447 301.25321964 4.60251869 301.25208112 2.1724624 301.24933583 C1.45554981 301.25224867 0.73863722 301.25516151 0 301.25816262 C-4.85698633 301.24320252 -4.85698633 301.24320252 -5.97110754 300.12908131 C-6.0690501 298.53492015 -6.09666291 296.9364 -6.09694868 295.33923298 C-6.09955643 294.29632335 -6.10216418 293.25341373 -6.10485095 292.17890078 C-6.10262023 291.0191022 -6.1003895 289.85930362 -6.09809119 288.66435963 C-6.09965118 287.44322861 -6.10121117 286.2220976 -6.10281843 284.96396261 C-6.10613181 281.55906271 -6.10491918 278.15421746 -6.10183221 274.74932081 C-6.09958004 271.08329804 -6.10305681 267.41728023 -6.10581213 263.75125843 C-6.11027079 256.5634324 -6.10929294 249.37561678 -6.10639949 242.18779033 C-6.10414583 236.34876686 -6.10383277 230.50974632 -6.10492331 224.67072254 C-6.10507654 223.84131375 -6.10522977 223.01190495 -6.10538765 222.15736255 C-6.10570736 220.47270681 -6.10603157 218.78805108 -6.10636024 217.10339534 C-6.10921531 201.2872019 -6.10592758 185.47101425 -6.10055988 169.65482175 C-6.09609181 156.06860199 -6.09686774 142.48239076 -6.10147864 128.89617115 C-6.10682392 113.13856369 -6.10894062 97.38096131 -6.10586637 81.62335306 C-6.10554781 79.9447154 -6.10523344 78.26607774 -6.10492331 76.58744007 C-6.10476903 75.7614068 -6.10461476 74.93537353 -6.10445581 74.08430895 C-6.10359051 68.24881375 -6.10505379 62.41332175 -6.10740286 56.57782704 C-6.11020055 49.47131455 -6.10946326 42.36481312 -6.10412212 35.25830191 C-6.10148468 31.62888732 -6.10048075 27.99949119 -6.10377127 24.37007672 C-6.10727648 20.44464158 -6.10310591 16.51923702 -6.09809119 12.59380299 C-6.10032191 11.43400441 -6.10255263 10.27420583 -6.10485095 9.07926184 C-6.1022432 8.03635221 -6.09963545 6.99344259 -6.09694868 5.91892964 C-6.09678633 5.0115604 -6.09662398 4.10419116 -6.09645671 3.16932589 C-5.84896853 -0.85891319 -3.4669082 0.01067849 0 0 Z " fill="#45A257" transform="translate(2908.971107542515,312.8709186911583)"/>
<path d="M0 0 C61.05 0 122.1 0 185 0 C185 19.8 185 39.6 185 60 C148.7 60 112.4 60 75 60 C75 79.14 75 98.28 75 118 C107.01 118 139.02 118 172 118 C173.29663922 120.59327843 173.12003569 122.46408068 173.11352539 125.36767578 C173.11340454 126.50438721 173.11328369 127.64109863 173.11315918 128.81225586 C173.10804321 130.01116455 173.10292725 131.21007324 173.09765625 132.4453125 C173.09664917 133.54415771 173.09564209 134.64300293 173.09460449 135.77514648 C173.08936056 139.89177489 173.07539937 144.00838846 173.0625 148.125 C173.041875 157.32375 173.02125 166.5225 173 176 C140.66 176 108.32 176 75 176 C75 197.45 75 218.9 75 241 C111.3 241 147.6 241 185 241 C185 260.8 185 280.6 185 301 C123.95 301 62.9 301 0 301 C0 201.67 0 102.34 0 0 Z " fill="#45A257" transform="translate(3135,313)"/>
<path d="M0 0 C24.75 0 49.5 0 75 0 C75 99.33 75 198.66 75 301 C50.25 301 25.5 301 0 301 C-1.64308488 299.35691512 -1.12543582 297.47543327 -1.12584114 295.21015167 C-1.12844889 294.16724205 -1.13105664 293.12433242 -1.13374341 292.04981947 C-1.13151268 290.89002089 -1.12928196 289.73022231 -1.12698364 288.53527832 C-1.12854363 287.31414731 -1.13010362 286.09301629 -1.13171089 284.83488131 C-1.13502427 281.4299814 -1.13381163 278.02513616 -1.13072467 274.6202395 C-1.1284725 270.95421673 -1.13194926 267.28819892 -1.13470459 263.62217712 C-1.13916325 256.43435109 -1.1381854 249.24653547 -1.13529195 242.05870903 C-1.13303829 236.21968556 -1.13272523 230.38066501 -1.13381577 224.54164124 C-1.133969 223.71223244 -1.13412223 222.88282364 -1.13428011 222.02828124 C-1.13459982 220.3436255 -1.13492403 218.65896977 -1.1352527 216.97431403 C-1.13810777 201.15812059 -1.13482004 185.34193294 -1.12945233 169.52574044 C-1.12498427 155.93952068 -1.12576019 142.35330946 -1.13037109 128.76708984 C-1.13571638 113.00948238 -1.13783308 97.25188 -1.13475883 81.49427176 C-1.13444026 79.81563409 -1.13412589 78.13699643 -1.13381577 76.45835876 C-1.13366149 75.63232549 -1.13350721 74.80629222 -1.13334826 73.95522764 C-1.13248297 68.11973244 -1.13394625 62.28424044 -1.13629532 56.44874573 C-1.13909301 49.34223324 -1.13835572 42.23573181 -1.13301457 35.1292206 C-1.13037713 31.49980601 -1.12937321 27.87040988 -1.13266373 24.24099541 C-1.13616894 20.31556027 -1.13199837 16.39015571 -1.12698364 12.46472168 C-1.12921436 11.3049231 -1.13144509 10.14512452 -1.13374341 8.95018053 C-1.13113566 7.9072709 -1.12852791 6.86436128 -1.12584114 5.78984833 C-1.12567879 4.88247909 -1.12551644 3.97510985 -1.12534916 3.04024458 C-1 1 -1 1 0 0 Z " fill="#45A357" transform="translate(1486,313)"/>
<path d="M0 0 C0 3 0 3 -2.203125 5.54370117 C-3.21108431 6.55118515 -4.22730922 7.55044193 -5.25 8.54296875 C-5.78270508 9.07142899 -6.31541016 9.59988922 -6.86425781 10.1443634 C-8.56927029 11.83256735 -10.28441127 13.51005145 -12 15.1875 C-13.15693178 16.32938778 -14.31319065 17.47195776 -15.46875 18.61523438 C-18.30474911 21.41813541 -21.14987676 24.2114652 -24 27 C-24.66 26.34 -25.32 25.68 -26 25 C-23.337658 22.30818725 -20.66933333 19.62237853 -18 16.9375 C-17.25621094 16.18533203 -16.51242187 15.43316406 -15.74609375 14.65820312 C-11.47680342 10.37035066 -7.1239089 6.25524872 -2.53125 2.31469727 C-1.66377645 1.56990373 -0.80846391 0.80846391 0 0 Z " fill="#2D8D3A" transform="translate(507,430)"/>
</svg>
